<?xml version="1.0" encoding="utf-8"?>
<!DOCTYPE svg PUBLIC "-//W3C//DTD SVG 1.1//EN" "http://www.w3.org/Graphics/SVG/1.1/DTD/svg11.dtd">
<svg xmlns="http://www.w3.org/2000/svg" xmlns:xlink="http://www.w3.org/1999/xlink" version="1.1" baseProfile="full" width="484.119" height="363.19" viewBox="0 0 484.12 363.19" enable-background="new 0 0 484.12 363.19" xml:space="preserve">
	<path fill="#000000" fill-opacity="1" stroke-width="0.2" stroke-linejoin="round" d="M 178.877,142.247C 172.832,155.298 166.811,168.36 160.742,181.4C 160.397,182.143 160.005,182.863 159.636,183.594C 159.311,181.573 159.016,179.548 158.661,177.532C 158.162,174.701 157.603,171.882 157.074,169.056C 153.69,172.509 150.46,176.138 146.773,179.264C 144.743,180.087 142.401,179.562 140.211,179.605C 134.191,179.724 128.171,179.843 122.151,179.961C 117.921,180.045 113.428,181.157 109.463,179.681C 108.515,179.01 108.165,177.729 107.757,176.641C 106.897,174.347 106.038,172.052 105.178,169.757C 104.963,169.184 104.748,168.61 104.533,168.036C 102.288,162.045 100.044,156.054 97.7992,150.063L 100.28,148.94L 102.287,148.042C 105.686,157.109 109.085,166.176 112.483,175.243C 123.244,175.029 134.005,174.815 144.766,174.6C 148.007,171.292 151.249,167.984 154.491,164.677C 151.363,162.207 148.232,159.731 145.264,157.07C 145.313,157.051 145.362,157.033 145.411,157.014C 146.021,156.779 146.642,156.572 147.24,156.308C 157.799,151.649 168.332,146.934 178.877,142.247"/>
	<path fill="#000000" fill-opacity="1" stroke-width="0.2" stroke-linejoin="round" d="M 193.599,116.118C 187.554,103.067 181.532,90.0051 175.464,76.9649C 175.118,76.2224 174.726,75.5024 174.357,74.7712C 174.032,76.7919 173.738,78.8176 173.382,80.8331C 172.883,83.6639 172.324,86.4837 171.795,89.309C 168.411,85.8567 165.181,82.2273 161.494,79.1008C 159.464,78.278 157.122,78.8035 154.932,78.7603C 148.912,78.6415 142.892,78.5228 136.872,78.404C 132.643,78.3205 128.149,77.2079 124.185,78.6838C 123.236,79.3556 122.886,80.6359 122.479,81.724C 121.618,84.0184 120.759,86.3132 119.899,88.6078C 119.684,89.1816 119.469,89.7555 119.254,90.3293C 117.01,96.3202 114.765,102.311 112.521,108.302L 115.001,109.425L 117.008,110.324C 120.407,101.256 123.807,92.1894 127.205,83.1219C 137.965,83.3365 148.726,83.5503 159.487,83.7654C 162.729,87.0731 165.971,90.3808 169.212,93.6886C 166.084,96.1587 162.953,98.6342 159.986,101.295C 160.034,101.314 160.083,101.332 160.132,101.351C 160.742,101.586 161.363,101.793 161.962,102.057C 172.52,106.716 183.053,111.431 193.599,116.118"/>
	<path fill="#000000" fill-opacity="1" stroke-width="0.2" stroke-linejoin="round" d="M 308.809,141.607C 302.764,154.658 296.742,167.72 290.674,180.76C 290.328,181.503 289.936,182.223 289.567,182.954C 289.242,180.933 288.947,178.908 288.592,176.892C 288.093,174.061 287.534,171.242 287.005,168.416C 283.621,171.869 280.391,175.498 276.704,178.624C 274.674,179.447 272.332,178.922 270.142,178.965C 264.122,179.084 258.102,179.202 252.082,179.321C 247.852,179.405 243.359,180.517 239.395,179.041C 238.446,178.37 238.096,177.089 237.688,176.001C 236.828,173.707 235.969,171.412 235.109,169.117C 234.894,168.544 234.679,167.97 234.464,167.396C 232.22,161.405 229.975,155.414 227.73,149.423L 230.211,148.3L 232.218,147.402C 235.617,156.469 239.017,165.536 242.415,174.603C 253.175,174.389 263.936,174.175 274.697,173.96C 277.939,170.652 281.181,167.344 284.422,164.037C 281.294,161.567 278.163,159.091 275.195,156.43C 275.244,156.411 275.293,156.393 275.342,156.374C 275.952,156.139 276.573,155.932 277.172,155.668C 287.73,151.009 298.263,146.294 308.809,141.607"/>
	<path fill="#000000" fill-opacity="1" stroke-width="0.2" stroke-linejoin="round" d="M 323.53,116.758C 317.485,103.707 311.463,90.6451 305.395,77.6049C 305.049,76.8625 304.657,76.1425 304.289,75.4113C 303.964,77.4319 303.669,79.4576 303.313,81.4731C 302.815,84.3039 302.255,87.1237 301.726,89.949C 298.342,86.4968 295.112,82.8674 291.425,79.7409C 289.395,78.9181 287.053,79.4436 284.864,79.4004C 278.843,79.2816 272.823,79.1628 266.803,79.044C 262.574,78.9606 258.08,77.848 254.116,79.3239C 253.168,79.9956 252.818,81.2759 252.41,82.364C 251.55,84.6585 250.69,86.9532 249.831,89.2479C 249.616,89.8217 249.401,90.3955 249.186,90.9693C 246.941,96.9603 244.696,102.951 242.452,108.942L 244.933,110.065L 246.94,110.964C 250.338,101.896 253.738,92.8295 257.136,83.7619C 267.897,83.9765 278.657,84.1903 289.418,84.4055C 292.66,87.7132 295.902,91.0209 299.144,94.3287C 296.015,96.7988 292.884,99.2743 289.917,101.935C 289.966,101.954 290.014,101.973 290.063,101.991C 290.673,102.227 291.295,102.433 291.893,102.697C 302.451,107.356 312.984,112.071 323.53,116.758"/>
	<path fill="#000000" fill-opacity="1" stroke-width="0.2" stroke-linejoin="round" d="M 438.74,140.967C 432.695,154.018 426.673,167.08 420.605,180.12C 420.259,180.863 419.867,181.583 419.499,182.314C 419.174,180.293 418.879,178.268 418.523,176.252C 418.024,173.421 417.465,170.601 416.936,167.776C 413.552,171.228 410.322,174.858 406.635,177.984C 404.605,178.807 402.263,178.282 400.074,178.325C 394.053,178.444 388.033,178.562 382.013,178.681C 377.784,178.765 373.29,179.877 369.326,178.401C 368.378,177.73 368.028,176.449 367.62,175.361C 366.76,173.067 365.9,170.772 365.041,168.477C 364.826,167.904 364.611,167.33 364.396,166.756C 362.151,160.765 359.906,154.774 357.662,148.783L 360.142,147.66L 362.15,146.761C 365.548,155.829 368.948,164.896 372.346,173.963C 383.107,173.749 393.867,173.535 404.628,173.32C 407.87,170.012 411.112,166.704 414.354,163.397C 411.225,160.926 408.094,158.451 405.127,155.79C 405.175,155.771 405.224,155.753 405.273,155.734C 405.883,155.499 406.505,155.292 407.103,155.028C 417.661,150.369 428.194,145.654 438.74,140.967"/>
	<path fill="#000000" fill-opacity="1" stroke-width="0.2" stroke-linejoin="round" d="M 453.461,117.398C 447.416,104.347 441.395,91.2852 435.326,78.245C 434.981,77.5025 434.589,76.7826 434.22,76.0514C 433.895,78.072 433.6,80.0977 433.245,82.1132C 432.746,84.944 432.186,87.7638 431.657,90.5891C 428.273,87.1368 425.043,83.5074 421.356,80.381C 419.327,79.5581 416.984,80.0836 414.795,80.0404C 408.775,79.9216 402.754,79.8029 396.734,79.6841C 392.505,79.6006 388.011,78.488 384.047,79.964C 383.099,80.6357 382.749,81.916 382.341,83.0041C 381.481,85.2986 380.621,87.5933 379.762,89.8879C 379.547,90.4618 379.332,91.0356 379.117,91.6094C 376.872,97.6003 374.628,103.591 372.383,109.582L 374.864,110.706L 376.871,111.604C 380.269,102.536 383.669,93.4695 387.067,84.402C 397.828,84.6166 408.589,84.8304 419.349,85.0455C 422.591,88.3532 425.833,91.6609 429.075,94.9687C 425.946,97.4388 422.816,99.9144 419.848,102.576C 419.897,102.594 419.946,102.613 419.994,102.631C 420.604,102.867 421.226,103.073 421.824,103.337C 432.382,107.996 442.915,112.711 453.461,117.398"/>
	<rect x="29.1599" y="208.658" fill="#A4A4A4" fill-opacity="1" stroke-width="2.56022" stroke-linejoin="round" stroke="#000000" stroke-opacity="1" width="74.8865" height="19.8417"/>
	<rect x="122.313" y="208.658" fill="#A4A4A4" fill-opacity="1" stroke-width="2.56022" stroke-linejoin="round" stroke="#000000" stroke-opacity="1" width="74.8865" height="19.8417"/>
	<rect x="215.466" y="208.658" fill="#A4A4A4" fill-opacity="1" stroke-width="2.56022" stroke-linejoin="round" stroke="#000000" stroke-opacity="1" width="74.8865" height="19.8417"/>
	<rect x="308.62" y="208.658" fill="#A4A4A4" fill-opacity="1" stroke-width="2.56022" stroke-linejoin="round" stroke="#000000" stroke-opacity="1" width="74.8865" height="19.8417"/>
	<rect x="401.773" y="207.378" fill="#A4A4A4" fill-opacity="1" stroke-width="2.56022" stroke-linejoin="round" stroke="#000000" stroke-opacity="1" width="74.8865" height="19.8417"/>
	<line fill="none" stroke-width="16" stroke-linejoin="round" x1="112.488" y1="246.421" x2="112.488" y2="320.737"/>
	<path fill="#000000" fill-opacity="1" stroke-width="0.2" stroke-linejoin="round" d="M 112.72,320.717L 104.244,299.529L 110.92,302.055L 110.862,246.535L 112.371,246.421L 113.591,246.329L 113.591,246.421L 113.649,302.001L 120.266,299.181L 112.72,320.717"/>
	<line fill="none" stroke-width="16" stroke-linejoin="round" x1="206.296" y1="246.421" x2="206.296" y2="320.737"/>
	<path fill="#000000" fill-opacity="1" stroke-width="0.2" stroke-linejoin="round" d="M 206.528,320.717L 198.052,299.529L 204.728,302.055L 204.67,246.535L 206.179,246.421L 207.399,246.329L 207.399,246.421L 207.457,302.001L 214.074,299.181L 206.528,320.717"/>
	<line fill="none" stroke-width="16" stroke-linejoin="round" x1="300.104" y1="246.421" x2="300.104" y2="320.737"/>
	<path fill="#000000" fill-opacity="1" stroke-width="0.2" stroke-linejoin="round" d="M 300.336,320.717L 291.861,299.529L 298.536,302.055L 298.478,246.535L 299.988,246.421L 301.207,246.329L 301.207,246.421L 301.265,302.001L 307.882,299.181L 300.336,320.717"/>
	<line fill="none" stroke-width="16" stroke-linejoin="round" x1="393.912" y1="246.421" x2="393.912" y2="320.737"/>
	<path fill="#000000" fill-opacity="1" stroke-width="0.2" stroke-linejoin="round" d="M 394.144,320.717L 385.669,299.529L 392.344,302.055L 392.286,246.535L 393.796,246.421L 395.015,246.329L 395.015,246.421L 395.073,302.001L 401.69,299.181L 394.144,320.717"/>
	<text transform="matrix(1.0000000000000000 0.0000000000000000 0.0000000000000000 1.0000000000000000 155.00 362.00)" xml:space="preserve">
		<tspan style=" font-family:Arial; font-size:30.000000pt;" letter-spacing="0.00em" fill="#000000" fill-opacity="1" stroke-width="0.640055" stroke-linejoin="round">Permeate</tspan>
	</text>
	<ellipse fill="#FFC800" fill-opacity="1" stroke-width="2.56022" stroke-linejoin="round" stroke="#000000" stroke-opacity="1" cx="64.5626" cy="194.015" rx="13.1211" ry="13.1211"/>
	<ellipse fill="#FFC800" fill-opacity="1" stroke-width="2.56022" stroke-linejoin="round" stroke="#000000" stroke-opacity="1" cx="90.8049" cy="178.013" rx="13.1211" ry="13.1211"/>
	<ellipse fill="#FFC800" fill-opacity="1" stroke-width="2.56022" stroke-linejoin="round" stroke="#000000" stroke-opacity="1" cx="151.61" cy="115.928" rx="13.1211" ry="13.1211"/>
	<ellipse fill="#FFC800" fill-opacity="1" stroke-width="2.56022" stroke-linejoin="round" stroke="#000000" stroke-opacity="1" cx="113.847" cy="194.015" rx="13.1211" ry="13.1211"/>
	<ellipse fill="#FFC800" fill-opacity="1" stroke-width="2.56022" stroke-linejoin="round" stroke="#000000" stroke-opacity="1" cx="137.529" cy="161.372" rx="13.1211" ry="13.1211"/>
	<path fill="#FFC800" fill-opacity="1" stroke-width="2.56022" stroke-linejoin="round" stroke="#000000" stroke-opacity="1" d="M 154.17,47.762C 161.417,47.762 167.292,53.6364 167.292,60.8831C 167.292,68.1297 161.417,74.0042 154.17,74.0042C 146.924,74.0042 141.049,68.1297 141.049,60.8831C 141.049,53.6364 146.924,47.762 154.17,47.762 Z "/>
	<ellipse fill="#FFC800" fill-opacity="1" stroke-width="2.56022" stroke-linejoin="round" stroke="#000000" stroke-opacity="1" cx="167.611" cy="194.015" rx="13.1211" ry="13.1211"/>
	<ellipse fill="#FFC800" fill-opacity="1" stroke-width="2.56022" stroke-linejoin="round" stroke="#000000" stroke-opacity="1" cx="206.655" cy="149.211" rx="13.1211" ry="13.1211"/>
	<ellipse fill="#FFC800" fill-opacity="1" stroke-width="2.56022" stroke-linejoin="round" stroke="#000000" stroke-opacity="1" cx="195.774" cy="69.8439" rx="13.1211" ry="13.1211"/>
	<ellipse fill="#FFC800" fill-opacity="1" stroke-width="2.56022" stroke-linejoin="round" stroke="#000000" stroke-opacity="1" cx="220.736" cy="194.015" rx="13.1211" ry="13.1211"/>
	<ellipse fill="#FFC800" fill-opacity="1" stroke-width="2.56022" stroke-linejoin="round" stroke="#000000" stroke-opacity="1" cx="246.978" cy="178.013" rx="13.1211" ry="13.1211"/>
	<path fill="#FFC800" fill-opacity="1" stroke-width="2.56022" stroke-linejoin="round" stroke="#000000" stroke-opacity="1" d="M 237.378,109.207C 244.624,109.207 250.499,115.082 250.499,122.328C 250.499,129.575 244.624,135.45 237.378,135.45C 230.131,135.45 224.256,129.575 224.256,122.328C 224.256,115.082 230.131,109.207 237.378,109.207 Z "/>
	<ellipse fill="#FFC800" fill-opacity="1" stroke-width="2.56022" stroke-linejoin="round" stroke="#000000" stroke-opacity="1" cx="276.421" cy="194.015" rx="13.1211" ry="13.1211"/>
	<ellipse fill="#FFC800" fill-opacity="1" stroke-width="2.56022" stroke-linejoin="round" stroke="#000000" stroke-opacity="1" cx="302.663" cy="178.013" rx="13.1211" ry="13.1211"/>
	<ellipse fill="#FFC800" fill-opacity="1" stroke-width="2.56022" stroke-linejoin="round" stroke="#000000" stroke-opacity="1" cx="298.183" cy="69.8439" rx="13.1211" ry="13.1211"/>
	<ellipse fill="#FFC800" fill-opacity="1" stroke-width="2.56022" stroke-linejoin="round" stroke="#000000" stroke-opacity="1" cx="334.666" cy="194.015" rx="13.1211" ry="13.1211"/>
	<ellipse fill="#FFC800" fill-opacity="1" stroke-width="2.56022" stroke-linejoin="round" stroke="#000000" stroke-opacity="1" cx="350.667" cy="149.851" rx="13.1211" ry="13.1211"/>
	<path fill="#FFC800" fill-opacity="1" stroke-width="2.56022" stroke-linejoin="round" stroke="#000000" stroke-opacity="1" d="M 354.508,97.6863C 361.754,97.6863 367.629,103.561 367.629,110.807C 367.629,118.054 361.754,123.929 354.508,123.929C 347.261,123.929 341.387,118.054 341.387,110.807C 341.387,103.561 347.261,97.6863 354.508,97.6863 Z "/>
	<path fill="#FFC800" fill-opacity="1" stroke-width="2.56022" stroke-linejoin="round" stroke="#000000" stroke-opacity="1" d="M 394.191,180.893C 401.438,180.893 407.312,186.768 407.312,194.015C 407.312,201.261 401.438,207.136 394.191,207.136C 386.945,207.136 381.07,201.261 381.07,194.015C 381.07,186.768 386.944,180.893 394.191,180.893 Z "/>
	<path fill="#FFC800" fill-opacity="1" stroke-width="2.56022" stroke-linejoin="round" stroke="#000000" stroke-opacity="1" d="M 420.433,164.892C 427.68,164.892 433.555,170.767 433.555,178.013C 433.555,185.26 427.68,191.134 420.433,191.134C 413.187,191.134 407.312,185.26 407.312,178.013C 407.312,170.767 413.187,164.892 420.433,164.892 Z "/>
	<path fill="#FFC800" fill-opacity="1" stroke-width="2.56022" stroke-linejoin="round" stroke="#000000" stroke-opacity="1" d="M 408.272,57.3628C 415.519,57.3628 421.393,63.2373 421.393,70.4839C 421.393,77.7305 415.519,83.605 408.272,83.605C 401.026,83.605 395.151,77.7305 395.151,70.4839C 395.151,63.2373 401.026,57.3628 408.272,57.3628 Z "/>
	<path fill="#FFC800" fill-opacity="1" stroke-width="2.56022" stroke-linejoin="round" stroke="#000000" stroke-opacity="1" d="M 441.555,180.893C 448.802,180.893 454.676,186.768 454.676,194.015C 454.676,201.261 448.802,207.136 441.555,207.136C 434.309,207.136 428.434,201.261 428.434,194.015C 428.434,186.768 434.309,180.893 441.555,180.893 Z "/>
	<ellipse fill="#FFC800" fill-opacity="1" stroke-width="2.56022" stroke-linejoin="round" stroke="#000000" stroke-opacity="1" cx="469.078" cy="140.89" rx="13.1211" ry="13.1211"/>
	<ellipse fill="#FFC800" fill-opacity="1" stroke-width="2.56022" stroke-linejoin="round" stroke="#000000" stroke-opacity="1" cx="469.718" cy="110.167" rx="13.1211" ry="13.1211"/>
	<line fill="none" stroke-width="28.8025" stroke-linejoin="round" x1="20.1992" y1="82.5672" x2="86.7772" y2="82.5672"/>
	<path fill="#000000" fill-opacity="1" stroke-width="0.2" stroke-linejoin="round" d="M 86.7419,82.1492L 48.5996,97.4061L 53.1476,85.3887L 20.3013,85.4932L 20.1992,82.7762L 20.1167,80.5817L 20.1992,80.5814L 53.05,80.477L 47.9727,68.5643L 86.7419,82.1492"/>
	<text transform="matrix(1.0000000000000000 0.0000000000000000 0.0000000000000000 1.0000000000000000 -3.00 142.00)" xml:space="preserve">
		<tspan style=" font-family:Arial; font-size:30.000000pt;" letter-spacing="0.00em" fill="#000000" fill-opacity="1" stroke-width="0.640055" stroke-linejoin="round">Feed</tspan>
	</text>
	<rect x="27.9805" y="1.28012" fill="#A4A4A4" fill-opacity="1" stroke-width="2.56022" stroke-linejoin="round" stroke="#000000" stroke-opacity="1" width="448.679" height="19.2017"/>
</svg>
