<?xml version="1.0" encoding="UTF-8"?>
<svg xmlns="http://www.w3.org/2000/svg" xmlns:xlink="http://www.w3.org/1999/xlink" width="360pt" height="314pt" viewBox="0 0 360 314" version="1.1">
<g id="surface36">
<path style="fill:none;stroke-width:3.6;stroke-linecap:square;stroke-linejoin:miter;stroke:rgb(99.998474%,50%,0%);stroke-opacity:1;stroke-miterlimit:3.25;" d="M 330.910156 161.984375 L 329.25 160.378906 L 324.421875 158.957031 L 316.894531 157.875 L 307.371094 157.234375 L 296.71875 157.070313 L 285.882813 157.339844 L 275.738281 157.929688 L 267.035156 158.695313 L 260.28125 159.460938 L 255.710938 160.066406 L 253.257813 160.394531 L 252.585938 160.40625 L 253.121094 160.128906 L 254.15625 159.695313 L 254.941406 159.289063 L 254.773438 159.152344 L 253.105469 159.527344 L 249.621094 160.628906 L 244.265625 162.601563 L 237.269531 165.476563 L 229.117188 169.160156 L 220.496094 173.4375 L 212.210938 177.964844 L 205.085938 182.320313 L 199.878906 186.03125 L 197.179688 188.652344 L 197.34375 189.789063 L 200.457031 189.179688 L 206.328125 186.714844 L 214.507813 182.449219 L 224.347656 176.628906 L 235.085938 169.632813 L 245.917969 161.953125 L 256.101563 154.125 L 265.03125 146.667969 L 272.300781 140.003906 L 277.742188 134.425781 L 281.414063 130.03125 L 283.597656 126.730469 L 284.738281 124.238281 L 285.363281 122.121094 L 286.035156 119.847656 L 287.242188 116.871094 L 289.359375 112.691406 L 292.574219 106.941406 L 296.898438 99.445313 L 307.921875 79.648438 L 313.792969 68.152344 L 319.210938 56.441406 L 323.664063 45.296875 L 326.707031 35.519531 L 328.023438 27.828125 L 327.472656 22.777344 L 325.070313 20.699219 L 321.019531 21.652344 L 315.65625 25.414063 L 309.402344 31.507813 L 302.734375 39.25 L 296.105469 47.835938 L 289.910156 56.441406 L 284.4375 64.304688 L 279.847656 70.820313 L 276.175781 75.628906 L 273.125 78.800781 L 270.816406 80.097656 L 268.953125 80.117188 L 267.230469 79.6875 L 265.386719 79.761719 L 263.261719 81.25 L 260.800781 84.878906 L 258.070313 91.070313 L 255.226563 99.851563 L 252.480469 110.855469 L 250.050781 123.328125 L 248.113281 136.242188 L 246.765625 148.421875 L 246.019531 158.699219 L 245.773438 166.074219 L 245.847656 169.863281 L 246.007813 169.773438 L 246.023438 165.945313 L 245.691406 158.949219 L 244.882813 149.691406 L 243.566406 139.292969 L 241.816406 128.933594 L 239.78125 119.699219 L 237.675781 112.421875 L 235.703125 107.59375 L 234.046875 105.300781 L 232.789063 105.230469 L 231.914063 106.730469 L 231.28125 108.929688 L 230.65625 110.855469 L 229.734375 111.628906 L 228.199219 110.558594 L 225.785156 107.28125 L 222.335938 101.8125 L 217.855469 94.542969 L 212.519531 86.203125 L 206.675781 77.746094 L 200.824219 70.230469 L 195.542969 64.664063 L 191.410156 61.855469 L 188.941406 62.332031 L 188.484375 66.238281 L 190.191406 73.339844 L 193.960938 83.050781 L 199.460938 94.523438 L 206.15625 106.765625 L 213.402344 118.773438 L 220.511719 129.667969 L 226.875 138.789063 L 232.039063 145.796875 L 238.167969 153.695313 L 239.5 155.410156 L 240.324219 156.492188 L 241.304688 157.648438 L 243.140625 159.5 L 246.453125 162.492188 L 251.648438 166.820313 L 258.871094 172.40625 L 267.925781 178.917969 L 278.308594 185.828125 L 289.230469 192.484375 L 299.738281 198.21875 L 308.8125 202.441406 L 315.164063 204.636719 L 318.847656 204.960938 L 319.492188 203.429688 L 317.015625 200.226563 L 311.625 195.691406 L 303.800781 190.269531 L 294.242188 184.445313 L 283.78125 178.695313 L 273.285156 173.4375 L 263.546875 168.964844 L 255.195313 165.457031 L 248.617188 162.945313 L 243.910156 161.339844 L 240.890625 160.453125 L 239.09375 160.046875 L 237.867188 159.863281 L 236.453125 159.683594 L 234.085938 159.347656 L 230.113281 158.78125 L 224.085938 157.996094 L 215.816406 157.085938 L 205.4375 156.199219 L 193.382813 155.519531 L 180.347656 155.207031 L 167.21875 155.394531 L 154.96875 156.152344 L 144.539063 157.464844 L 136.734375 159.25 L 132.128906 161.355469 L 130.992188 163.589844 L 133.25 165.753906 L 138.515625 167.675781 L 146.121094 169.226563 L 155.195313 170.351563 L 164.785156 171.0625 L 173.949219 171.460938 L 181.890625 171.6875 L 188.027344 171.914063 L 192.058594 172.308594 L 194.011719 172.984375 L 194.195313 174.003906 L 193.171875 175.332031 L 191.660156 176.847656 L 190.445313 178.347656 L 190.261719 179.589844 L 191.695313 180.304688 L 195.097656 180.265625 L 200.550781 179.308594 L 207.824219 177.382813 L 216.425781 174.578125 L 225.652344 171.101563 L 234.660156 167.304688 L 242.59375 163.617188 L 248.667969 160.523438 L 252.265625 158.480469 L 253.019531 157.882813 L 250.84375 159 L 245.953125 161.933594 L 238.816406 166.601563 L 230.113281 172.746094 L 220.636719 179.949219 L 211.207031 187.695313 L 202.582031 195.421875 L 195.351563 202.601563 L 189.996094 208.699219 L 186.476563 213.601563 L 184.703125 217.230469 L 184.371094 219.703125 L 185.027344 221.316406 L 186.132813 222.507813 L 187.144531 223.804688 L 187.582031 225.742188 L 187.089844 228.804688 L 185.480469 233.339844 L 182.765625 239.507813 L 179.132813 247.25 L 174.933594 256.273438 L 170.632813 266.078125 L 166.742188 275.992188 L 163.761719 285.253906 L 162.113281 293.089844 L 162.101563 298.808594 L 163.863281 301.871094 L 167.371094 301.957031 L 172.425781 299.019531 L 178.707031 293.277344 L 185.785156 285.195313 L 193.199219 275.449219 L 200.503906 264.820313 L 207.304688 254.132813 L 218.375 235.449219 L 229.832031 217.421875 L 231.410156 215.804688 L 232.917969 214.148438 L 234.527344 211.726563 L 236.316406 207.902344 L 238.304688 202.199219 L 240.414063 194.382813 L 242.519531 184.5 L 244.460938 172.882813 L 246.078125 160.121094 L 247.230469 147.003906 L 247.839844 134.429688 L 247.890625 123.316406 L 247.441406 114.484375 L 246.613281 108.566406 L 245.578125 105.945313 L 244.523438 106.691406 L 243.632813 110.578125 L 243.058594 117.085938 L 242.882813 125.480469 L 243.128906 134.886719 L 243.75 144.402344 L 244.640625 153.183594 L 245.640625 160.546875 L 246.601563 166.058594 L 247.375 169.542969 L 247.871094 171.125 L 248.070313 171.183594 L 248.03125 170.304688 L 247.890625 169.195313 L 247.859375 168.589844 L 248.175781 169.148438 L 249.089844 171.375 L 250.996094 175.980469 L 254.011719 182.859375 L 258.148438 191.632813 L 263.242188 201.589844 L 268.964844 211.804688 L 274.84375 221.230469 L 280.3125 228.863281 L 284.804688 233.882813 L 287.8125 235.742188 L 288.972656 234.25 L 288.121094 229.59375 L 285.328125 222.300781 L 280.894531 213.171875 L 275.316406 203.160156 L 269.21875 193.242188 L 263.273438 184.300781 L 258.089844 177 L 254.132813 171.71875 L 251.65625 168.519531 L 250.640625 167.152344 L 250.8125 167.121094 L 251.679688 167.777344 L 252.589844 168.414063 L 252.847656 168.390625 L 251.824219 167.226563 L 249.054688 164.671875 L 244.335938 160.742188 L 237.773438 155.707031 L 229.789063 150.039063 L 221.082031 144.359375 L 212.554688 139.324219 L 205.195313 135.53125 L 199.941406 133.453125 L 197.558594 133.34375 L 198.535156 135.234375 L 203.011719 138.925781 L 210.742188 144.011719 L 221.136719 149.972656 L 233.335938 156.214844 L 246.320313 162.179688 L 259.042969 167.398438 L 270.59375 171.550781 L 280.289063 174.488281 L 287.792969 176.234375 L 293.140625 176.964844 L 296.726563 176.949219 L 299.242188 176.492188 L 301.5625 175.890625 L 304.613281 175.363281 L 309.214844 175.035156 L 315.953125 174.914063 L 325.074219 174.90625 L 336.441406 174.835938 L 349.519531 174.503906 L 363.445313 173.71875 L 377.128906 172.339844 L 389.40625 170.316406 L 399.175781 167.695313 L 405.550781 164.617188 L 408 161.292969 L 406.382813 157.972656 L 401.003906 154.882813 L 392.535156 152.21875 L 381.964844 150.082031 L 371.203125 148.574219 L 360.535156 147.464844 L 350.789063 146.628906 L 342.605469 145.910156 L 336.359375 145.140625 L 332.117188 144.195313 L 329.664063 143.003906 L 328.519531 141.574219 L 328.019531 140 L 327.414063 138.460938 L 325.96875 137.191406 L 323.054688 136.445313 L 318.253906 136.46875 L 311.40625 137.445313 L 302.632813 139.46875 L 292.34375 142.5 L 281.167969 146.375 L 269.894531 150.800781 L 259.375 155.375 L 250.429688 159.644531 L 243.738281 163.132813 L 239.765625 165.425781 L 238.722656 166.199219 L 240.523438 165.277344 L 244.816406 162.664063 L 251.023438 158.53125 L 258.40625 153.222656 L 266.175781 147.203125 L 273.550781 141 L 279.875 135.152344 L 284.679688 130.121094 L 287.722656 126.246094 L 288.996094 123.691406 L 288.730469 122.417969 L 287.339844 122.183594 L 285.355469 122.59375 L 283.347656 123.117188 L 281.855469 123.191406 L 281.304688 122.269531 L 281.953125 119.929688 L 283.871094 115.921875 L 286.921875 110.214844 L 290.789063 103.027344 L 295.027344 94.804688 L 299.105469 86.195313 L 302.496094 77.953125 L 304.730469 70.882813 L 305.449219 65.730469 L 304.460938 63.101563 L 301.746094 63.375 L 297.46875 66.667969 L 291.933594 72.8125 L 285.558594 81.367188 L 278.808594 91.667969 L 272.160156 102.914063 L 266.019531 114.246094 L 260.699219 124.859375 L 256.386719 134.101563 L 250.875 146.988281 L 249.425781 150.59375 L 248.5625 152.742188 L 248.019531 154.027344 L 247.570313 155.175781 L 246.972656 157.144531 L 246.140625 160.679688 L 245.0625 166.390625 L 243.839844 174.523438 L 242.652344 184.90625 L 241.703125 196.972656 L 241.1875 209.816406 L 241.242188 222.296875 L 241.902344 233.214844 L 243.117188 241.453125 L 244.71875 246.140625 L 246.492188 246.773438 L 248.171875 243.28125 L 249.523438 236.042969 L 250.363281 225.832031 L 250.601563 213.699219 L 250.25 200.839844 L 249.414063 188.425781 L 248.277344 177.453125 L 247.042969 168.601563 L 245.90625 162.164063 L 244.996094 158.015625 L 244.335938 155.65625 L 243.832031 154.292969 L 243.285156 152.988281 L 242.402344 150.808594 L 240.859375 146.960938 L 238.355469 140.945313 L 234.683594 132.617188 L 229.765625 122.238281 L 223.707031 110.425781 L 216.796875 98.078125 L 209.484375 86.261719 L 202.335938 76.042969 L 195.949219 68.363281 L 190.890625 63.894531 L 187.597656 62.945313 L 186.308594 65.449219 L 187.03125 70.949219 L 189.523438 78.691406 L 193.328125 87.722656 L 197.832031 97.023438 L 202.355469 105.652344 L 206.253906 112.863281 L 209.007813 118.195313 L 210.328125 121.515625 L 210.179688 123.027344 L 208.808594 123.199219 L 206.707031 122.679688 L 204.527344 122.199219 L 203 122.425781 L 202.800781 123.886719 L 204.441406 126.859375 L 208.175781 131.359375 L 213.929688 137.128906 L 221.300781 143.679688 L 229.585938 150.375 L 237.875 156.53125 L 245.144531 161.511719 L 250.429688 164.820313 L 252.929688 166.171875 L 252.132813 165.523438 L 247.898438 163.074219 L 240.480469 159.230469 L 230.691406 154.617188 L 219.273438 149.746094 L 207.222656 145.15625 L 195.558594 141.300781 L 185.179688 138.484375 L 176.746094 136.84375 L 170.59375 136.347656 L 166.695313 136.828125 L 164.667969 138.011719 L 163.835938 139.59375 L 163.347656 141.277344 L 162.285156 142.832031 L 159.832031 144.125 L 155.390625 145.140625 L 148.675781 145.953125 L 139.792969 146.726563 L 129.21875 147.652344 L 117.769531 148.917969 L 106.476563 150.660156 L 96.480469 152.941406 L 88.863281 155.722656 L 84.515625 158.875 L 84 162.199219 L 87.5 165.457031 L 94.769531 168.414063 L 105.191406 170.878906 L 117.828125 172.730469 L 131.582031 173.953125 L 145.304688 174.613281 L 157.972656 174.867188 L 168.808594 174.90625 L 177.371094 174.925781 L 183.597656 175.082031 L 187.8125 175.453125 L 190.636719 176 L 192.910156 176.59375 L 195.53125 176.992188 L 199.34375 176.90625 L 204.976563 176.035156 L 212.769531 174.125 L 222.695313 171.03125 L 234.375 166.746094 L 247.097656 161.445313 L 259.949219 155.460938 L 271.90625 149.265625 L 281.972656 143.414063 L 289.335938 138.484375 L 293.445313 134.976563 L 294.105469 133.273438 L 291.484375 133.546875 L 286.074219 135.753906 L 278.65625 139.617188 L 270.152344 144.675781 L 261.523438 150.335938 L 247.199219 160.910156 L 242.578125 164.769531 L 239.875 167.265625 L 238.890625 168.398438 L 239.160156 168.410156 L 240.066406 167.773438 L 240.925781 167.125 L 241.109375 167.144531 L 240.121094 168.476563 L 237.902344 171.335938 L 234.410156 175.972656 L 229.808594 182.375 L 224.441406 190.289063 L 218.769531 199.246094 L 213.320313 208.597656 L 208.613281 217.578125 L 205.109375 225.414063 L 203.132813 231.382813 L 202.867188 234.917969 L 204.316406 235.664063 L 207.308594 233.535156 L 211.539063 228.726563 L 216.597656 221.679688 L 222.035156 213.058594 L 227.394531 203.644531 L 232.285156 194.277344 L 236.417969 185.722656 L 239.613281 178.617188 L 241.839844 173.363281 L 243.167969 170.101563 L 243.777344 168.703125 L 243.898438 168.773438 L 243.785156 169.710938 L 243.671875 170.804688 L 243.734375 171.308594 L 244.078125 170.558594 L 244.726563 168.050781 L 245.609375 163.523438 L 246.617188 157 L 247.585938 148.800781 L 248.355469 139.5 L 248.796875 129.882813 L 248.820313 120.855469 L 248.421875 113.324219 L 247.660156 108.121094 L 246.65625 105.875 L 245.582031 106.960938 L 244.636719 111.449219 L 243.996094 119.085938 L 243.816406 129.335938 L 244.179688 141.4375 L 245.109375 154.496094 L 246.546875 167.574219 L 248.378906 179.816406 L 250.449219 190.527344 L 252.582031 199.257813 L 254.640625 205.839844 L 256.523438 210.398438 L 258.207031 213.320313 L 259.746094 215.203125 L 261.28125 216.757813 L 271.761719 232.671875 L 276.476563 240.816406 L 282.183594 250.445313 L 288.765625 261.015625 L 295.96875 271.804688 L 303.429688 282 L 310.707031 290.773438 L 317.335938 297.394531 L 322.867188 301.320313 L 327.191406 302.167969 L 329.488281 299.449219 L 329.675781 293.503906 L 327.914063 285.003906 L 324.578125 274.835938 L 320.230469 264.007813 L 315.527344 253.484375 L 311.117188 244.082031 L 307.554688 236.363281 L 305.210938 230.578125 L 304.210938 226.652344 L 304.414063 224.21875 L 305.421875 222.703125 L 306.640625 221.417969 L 307.375 219.675781 L 306.929688 216.914063 L 304.730469 212.757813 L 300.425781 207.097656 L 293.953125 200.085938 L 285.578125 192.125 L 275.878906 183.792969 L 265.679688 175.757813 L 247.691406 163.140625 L 241.785156 159.507813 L 238.875 157.941406 L 239.289063 158.359375 L 242.960938 160.460938 L 249.46875 163.773438 L 258.058594 167.738281 L 267.769531 171.765625 L 277.546875 175.347656 L 286.398438 178.097656 L 293.527344 179.789063 L 298.445313 180.390625 L 301.027344 180.011719 L 301.535156 178.902344 L 300.574219 177.375 L 298.972656 175.734375 L 297.683594 174.253906 L 297.609375 173.105469 L 299.480469 172.34375 L 303.707031 171.914063 L 310.328125 171.675781 L 318.96875 171.421875 L 328.894531 170.949219 L 339.09375 170.089844 L 348.410156 168.75 L 355.695313 166.933594 L 359.972656 164.746094 L 360.566406 162.371094 L 357.199219 160.039063 L 350.023438 157.992188 L 339.613281 156.433594 L 326.875 155.492188 L 312.933594 155.203125 L 298.972656 155.492188 L 286.078125 156.21875 L 275.109375 157.167969 L 266.570313 158.128906 L 260.570313 158.929688 L 256.824219 159.46875 L 254.710938 159.757813 L 253.375 159.929688 L 251.996094 160.175781 L 249.757813 160.757813 L 246.078125 161.914063 L 240.613281 163.878906 L 233.289063 166.789063 L 224.328125 170.695313 L 214.21875 175.503906 L 203.664063 180.992188 L 193.492188 186.808594 L 184.5625 192.515625 L 177.652344 197.625 L 173.386719 201.671875 L 172.128906 204.242188 L 173.980469 205.058594 L 178.738281 204.003906 L 185.945313 201.136719 L 194.933594 196.695313 L 204.910156 191.082031 L 215.054688 184.789063 L 224.613281 178.363281 L 232.976563 172.328125 L 239.742188 167.101563 L 244.75 162.960938 L 248.089844 159.984375 L 250.066406 158.046875 L 251.148438 156.835938 L 251.886719 155.882813 L 252.847656 154.625 L 254.519531 152.5 L 257.257813 149 L 266.386719 136.660156 L 272.507813 127.765625 L 279.191406 117.417969 L 285.921875 106.183594 L 292.152344 94.78125 L 297.347656 84.027344 L 301.082031 74.730469 L 303.058594 67.59375 L 303.160156 63.140625 L 301.453125 61.632813 L 298.171875 63.0625 L 293.6875 67.125 L 288.453125 73.257813 L 282.945313 80.722656 L 277.609375 88.671875 L 268.816406 102.769531 L 265.722656 107.636719 L 263.519531 110.585938 L 262.074219 111.621094 L 261.179688 111.03125 L 260.574219 109.351563 L 260.011719 107.28125 L 259.28125 105.59375 L 258.25 105.035156 L 256.863281 106.214844 L 255.15625 109.503906 L 253.246094 115.007813 L 251.28125 122.511719 L 249.445313 131.511719 L 247.894531 141.261719 L 246.738281 150.859375 L 246.027344 159.347656 L 245.722656 165.726563 L 245.71875 169.488281 L 245.863281 170.171875 L 245.972656 167.613281 L 245.871094 161.949219 L 245.402344 153.609375 L 244.464844 143.257813 L 243.015625 131.742188 L 241.09375 119.960938 L 238.796875 108.789063 L 236.265625 98.976563 L 233.667969 91.058594 L 231.167969 85.308594 L 228.882813 81.707031 L 226.878906 79.980469 L 225.128906 79.609375 L 223.539063 79.929688 L 221.933594 80.21875 L 220.09375 79.785156 L 217.785156 78.054688 L 214.785156 74.664063 L 210.949219 69.503906 L 200.628906 54.734375 L 194.386719 46.160156 L 187.789063 37.753906 L 181.226563 30.328125 L 175.152344 24.636719 L 170.019531 21.324219 L 166.230469 20.808594 L 164.09375 23.269531 L 163.777344 28.613281 L 165.289063 36.492188 L 168.460938 46.339844 L 172.972656 57.453125 L 178.394531 69.054688 L 184.214844 80.386719 L 189.921875 90.804688 L 199.296875 107.171875 L 202.449219 112.8125 L 204.523438 116.921875 L 205.710938 119.859375 L 206.375 122.105469 L 206.992188 124.199219 L 208.101563 126.652344 L 210.21875 129.886719 L 213.78125 134.183594 L 219.066406 139.640625 L 226.148438 146.171875 L 234.871094 153.507813 L 244.863281 161.238281 L 255.550781 168.875 L 266.222656 175.894531 L 276.109375 181.816406 L 284.449219 186.246094 L 290.605469 188.941406 L 294.109375 189.816406 L 294.738281 188.949219 L 292.527344 186.582031 L 287.785156 183.070313 L 281.042969 178.84375 L 273.011719 174.363281 L 264.480469 170.046875 L 255.582031 165.957031 L 247.914063 162.769531 L 242.101563 160.625 L 238.445313 159.472656 L 236.859375 159.144531 L 236.917969 159.363281 L 237.902344 159.832031 L 238.921875 160.257813 L 239.042969 160.441406 L 237.457031 160.261719 L 233.585938 159.734375 L 227.191406 158.960938 L 218.425781 158.121094 L 207.824219 157.429688 L 196.246094 157.082031 L 184.769531 157.21875 L 174.546875 157.90625 L 166.652344 159.097656 L 161.945313 160.664063 L 160.941406 162.402344 L 163.75 164.089844 L 170.066406 165.5 L 179.195313 166.460938 L 190.15625 166.882813 L 201.824219 166.777344 L 213.0625 166.242188 L 222.878906 165.453125 L 230.558594 164.621094 L 235.742188 163.945313 L 238.472656 163.578125 L 239.152344 163.574219 L 238.492188 163.894531 L 237.371094 164.371094 L 236.726563 164.761719 L 237.375 164.753906 L 239.917969 164.0625 L 244.617188 162.453125 L 251.371094 159.804688 L 259.722656 156.160156 L 268.90625 151.734375 L 277.960938 146.902344 L 285.863281 142.167969 L 291.65625 138.101563 L 294.59375 135.273438 L 294.226563 134.160156 L 290.46875 135.078125 L 283.609375 138.136719 L 274.253906 143.21875 L 263.253906 149.96875 L 251.585938 157.859375 L 240.21875 166.25 L 229.996094 174.484375 L 221.53125 181.980469 L 215.140625 188.3125 L 210.828125 193.285156 L 208.296875 196.972656 L 207.023438 199.691406 L 206.347656 201.964844 L 205.59375 204.449219 L 204.15625 207.828125 L 201.613281 212.691406 L 197.78125 219.441406 L 186.78125 238.828125 L 180.878906 249.96875 L 175.15625 261.6875 L 170.148438 273.234375 L 166.347656 283.808594 L 164.140625 292.632813 L 163.761719 299.058594 L 165.269531 302.628906 L 168.550781 303.152344 L 173.332031 300.714844 L 179.21875 295.675781 L 185.757813 288.628906 L 192.46875 280.332031 L 198.929688 271.617188 L 204.785156 263.296875 L 209.820313 256.0625 L 213.929688 250.402344 L 217.15625 246.542969 L 219.636719 244.4375 L 221.582031 243.757813 L 223.234375 243.957031 L 224.832031 244.335938 L 226.566406 244.132813 L 228.550781 242.648438 L 230.820313 239.3125 L 233.328125 233.800781 L 235.953125 226.050781 L 238.53125 216.3125 L 240.890625 205.113281 L 242.875 193.207031 L 244.378906 181.492188 L 245.359375 170.914063 L 245.859375 162.34375 L 245.972656 156.496094 L 245.863281 153.816406 L 245.71875 154.464844 L 245.722656 158.265625 L 246.035156 164.746094 L 246.746094 173.191406 L 247.898438 182.71875 L 249.4375 192.398438 L 251.257813 201.34375 L 253.203125 208.824219 L 255.105469 214.335938 L 256.804688 217.675781 L 258.195313 218.921875 L 259.238281 218.4375 L 259.976563 216.808594 L 260.539063 214.753906 L 261.128906 213.03125 L 261.984375 212.339844 L 263.363281 213.214844 L 265.472656 215.960938 L 268.449219 220.609375 L 272.328125 226.914063 L 277.003906 234.359375 L 282.25 242.25 L 287.71875 249.769531 L 292.980469 256.085938 L 297.570313 260.457031 L 301.035156 262.300781 L 303 261.285156 L 303.207031 257.34375 L 301.570313 250.695313 L 298.167969 241.808594 L 292.785156 230.429688 L 286.152344 218.191406 L 278.914063 206.109375 L 271.757813 195.085938 L 265.308594 185.796875 L 260.039063 178.617188 L 253.703125 170.4375 L 252.308594 168.648438 L 251.472656 167.542969 L 250.523438 166.410156 L 248.753906 164.617188 L 245.546875 161.703125 L 240.464844 157.449219 L 224.375 145.4375 L 214.035156 138.523438 L 203.097656 131.824219 L 192.523438 126.015625 L 183.335938 121.699219 L 176.484375 119.3125 L 172.707031 119.074219 L 172.445313 120.960938 L 175.753906 124.710938 L 182.308594 129.882813 L 191.4375 135.90625 L 202.203125 142.179688 L 213.550781 148.132813 L 224.445313 153.328125 L 234.003906 157.476563 L 241.636719 160.476563 L 247.113281 162.398438 L 250.59375 163.449219 L 252.601563 163.914063 L 253.921875 164.113281 L 255.492188 164.3125 L 258.246094 164.707031 L 262.960938 165.371094 L 270.121094 166.265625 L 279.847656 167.253906 L 291.839844 168.128906 L 305.410156 168.675781 L 319.570313 168.710938 L 333.148438 168.113281 L 344.957031 166.859375 L 353.941406 165.035156 L 359.335938 162.8125 L 360.761719 160.421875 L 358.273438 158.101563 L 352.367188 156.070313 L 343.886719 154.480469 L 333.933594 153.386719 L 323.691406 152.738281 L 314.273438 152.402344 L 306.582031 152.179688 L 301.175781 151.863281 L 298.210938 151.269531 L 297.449219 150.296875 L 298.28125 148.949219 L 299.867188 147.347656 L 301.238281 145.722656 L 301.480469 144.378906 L 299.867188 143.640625 L 295.972656 143.785156 L 289.875 144.96875 L 281.84375 147.21875 L 272.523438 150.398438 L 262.785156 154.214844 L 253.632813 158.222656 L 246.046875 161.894531 L 240.871094 164.667969 L 238.6875 166.03125 L 239.746094 165.601563 L 243.941406 163.179688 L 250.820313 158.78125 L 259.65625 152.65625 L 269.546875 145.246094 L 279.527344 137.132813 L 288.707031 128.976563 L 296.367188 121.390625 L 302.058594 114.882813 L 305.625 109.765625 L 307.21875 106.109375 L 307.257813 103.722656 L 306.332031 102.191406 L 305.121094 100.933594 L 304.273438 99.277344 L 304.320313 96.582031 L 305.59375 92.332031 L 308.167969 86.234375 L 311.875 78.28125 L 316.316406 68.765625 L 320.945313 58.28125 L 325.125 47.636719 L 328.234375 37.777344 L 329.757813 29.652344 L 329.359375 24.101563 L 326.902344 21.734375 L 322.488281 22.847656 L 316.429688 27.382813 L 309.183594 34.925781 L 301.308594 44.757813 L 293.375 55.949219 L 285.894531 67.492188 L 279.257813 78.414063 L 273.707031 87.925781 L 269.308594 95.523438 L 265.964844 101.039063 L 263.472656 104.667969 L 261.542969 106.941406 L 259.886719 108.621094 L 258.246094 110.59375 L 256.445313 113.738281 L 254.414063 118.773438 L 252.195313 126.148438 L 249.914063 135.96875 L 247.757813 147.949219 L 245.933594 161.445313 L 244.613281 175.535156 L 243.917969 189.109375 L 243.863281 201.039063 L 244.378906 210.304688 L 245.3125 216.148438 L 246.445313 218.152344 L 247.542969 216.304688 L 248.390625 211.007813 L 248.824219 203.007813 L 248.773438 193.308594 L 248.304688 183.714844 L 247.515625 174.5 L 246.542969 166.429688 L 245.542969 160.0625 L 244.671875 155.691406 L 244.046875 153.316406 L 243.722656 152.660156 L 243.671875 153.21875 L 243.792969 154.320313 L 243.898438 155.230469 L 243.761719 155.234375 L 243.125 153.757813 L 241.761719 150.417969 L 239.503906 145.097656 L 232.125 129.375 L 227.226563 120.015625 L 221.871094 110.644531 L 216.457031 102.078125 L 211.425781 95.101563 L 207.230469 90.359375 L 204.273438 88.296875 L 202.859375 89.085938 L 203.148438 92.644531 L 205.132813 98.621094 L 208.640625 106.445313 L 213.339844 115.40625 L 218.773438 124.726563 L 224.425781 133.660156 L 229.78125 141.558594 L 237.871094 152.59375 L 240.097656 155.464844 L 241.074219 156.773438 L 241.011719 156.902344 L 240.285156 156.363281 L 239.390625 155.707031 L 238.871094 155.460938 L 239.261719 156.054688 L 240.984375 157.769531 L 244.316406 160.691406 L 249.308594 164.730469 L 255.792969 169.597656 L 263.367188 174.886719 L 271.4375 180.09375 L 279.285156 184.703125 L 286.128906 188.242188 L 291.222656 190.339844 L 293.941406 190.773438 L 293.855469 189.488281 L 290.789063 186.597656 L 284.824219 182.371094 L 276.328125 177.1875 L 265.882813 171.5 L 254.234375 165.765625 L 242.210938 160.414063 L 230.617188 155.78125 L 220.144531 152.089844 L 211.296875 149.441406 L 204.324219 147.808594 L 199.207031 147.050781 L 195.660156 146.96875 L 193.164063 147.320313 L 191.0625 147.859375 L 188.375 148.433594 L 184.410156 148.839844 L 178.480469 149.03125 L 170.203125 149.066406 L 159.578125 149.089844 L 147.003906 149.304688 L 133.238281 149.914063 L 119.3125 151.074219 L 106.390625 152.875 L 95.617188 155.304688 L 87.972656 158.246094 L 84.125 161.519531 L 84.355469 164.875 L 88.515625 168.074219 L 96.042969 170.902344 L 106.042969 173.226563 L 117.402344 175.007813 L 128.964844 176.292969 L 139.65625 177.230469 L 148.636719 178.011719 L 155.410156 178.832031 L 159.875 179.859375 L 162.320313 181.167969 L 163.363281 182.742188 L 163.855469 184.441406 L 164.730469 186.023438 L 166.859375 187.191406 L 170.921875 187.621094 L 177.292969 187.046875 L 185.96875 185.296875 L 196.582031 182.355469 L 208.429688 178.378906 L 220.566406 173.699219 L 231.945313 168.785156 L 241.554688 164.203125 L 248.550781 160.535156 L 252.375 158.289063 L 252.828125 157.839844 L 250.078125 159.359375 L 244.652344 162.78125 L 237.34375 167.816406 L 229.109375 173.964844 L 220.925781 180.609375 L 213.679688 187.074219 L 208.042969 192.753906 L 204.394531 197.179688 L 202.792969 200.101563 L 202.996094 201.542969 L 204.503906 201.773438 L 206.660156 201.304688 L 208.753906 200.78125 L 210.148438 200.914063 L 210.355469 202.339844 L 209.128906 205.527344 L 206.480469 210.679688 L 202.691406 217.695313 L 198.238281 226.148438 L 193.746094 235.335938 L 189.875 244.355469 L 187.234375 252.214844 L 186.289063 257.980469 L 187.300781 260.878906 L 190.292969 260.4375 L 195.066406 256.519531 L 200.773438 249.953125 L 207.25 241.054688 L 214.023438 230.527344 L 220.628906 219.191406 L 226.664063 207.902344 L 231.835938 197.457031 L 239.058594 181.371094 L 241.171875 176.238281 L 242.5 172.910156 L 243.292969 170.960938 L 243.800781 169.75 L 244.257813 168.542969 L 244.835938 166.585938 L 245.617188 163.222656 L 246.609375 157.996094 L 247.730469 150.703125 L 248.851563 141.4375 L 249.804688 130.597656 L 250.429688 118.847656 L 250.601563 107.035156 L 250.253906 96.109375 L 249.402344 87.003906 L 248.125 80.527344 L 246.570313 77.269531 L 244.929688 77.535156 L 243.40625 81.292969 L 242.183594 88.203125 L 241.402344 97.636719 L 241.136719 108.753906 L 241.382813 120.617188 L 242.0625 132.285156 L 243.050781 142.925781 L 244.179688 151.914063 L 245.292969 158.902344 L 246.253906 163.832031 L 247.003906 166.949219 L 247.554688 168.75 L 248.007813 169.910156 L 248.542969 171.1875 L 249.398438 173.304688 L 250.832031 176.878906 L 253.078125 182.300781 L 256.3125 189.703125 L 260.613281 198.929688 L 265.925781 209.542969 L 272.066406 220.890625 L 278.722656 232.160156 L 285.484375 242.5 L 291.878906 251.089844 L 297.429688 257.265625 L 301.726563 260.585938 L 304.453125 260.875 L 305.449219 258.246094 L 304.730469 253.089844 L 302.492188 246.007813 L 299.09375 237.75 L 295.003906 229.121094 L 290.761719 220.890625 L 286.890625 213.699219 L 283.847656 208 L 281.9375 204 L 281.304688 201.679688 L 281.875 200.773438 L 283.535156 200.894531 L 285.746094 201.476563 L 287.800781 201.804688 L 288.980469 201.234375 L 288.636719 199.3125 L 286.339844 195.832031 L 281.929688 190.878906 L 275.585938 184.785156 L 267.816406 178.101563 L 259.40625 171.496094 L 251.328125 165.648438 L 244.59375 161.164063 L 240.144531 158.480469 L 238.699219 157.796875 L 240.648438 159.082031 L 246.003906 162.054688 L 254.386719 166.261719 L 265.066406 171.125 L 277.078125 176.046875 L 289.335938 180.480469 L 300.792969 184.003906 L 310.582031 186.363281 L 318.148438 187.492188 L 323.308594 187.496094 L 326.269531 186.613281 L 327.609375 185.15625 L 328.15625 183.453125 L 328.871094 181.785156 L 330.683594 180.34375 L 334.34375 179.199219 L 340.296875 178.304688 L 348.59375 177.523438 L 358.867188 176.65625 L 370.367188 175.496094 L 382.054688 173.875 L 392.738281 171.703125 L 401.238281 168.988281 L 406.546875 165.847656 L 407.96875 162.472656 L 405.214844 159.117188 L 398.457031 156.027344 L 388.285156 153.425781 L 375.644531 151.445313 L 361.6875 150.121094 L 347.636719 149.394531 L 334.59375 149.109375 L 323.410156 149.0625 L 314.585938 149.046875 L 308.1875 148.890625 L 303.890625 148.511719 L 301.027344 147.949219 L 298.714844 147.347656 L 295.984375 146.964844 L 291.960938 147.109375 L 285.996094 148.097656 L 277.769531 150.1875 L 267.351563 153.523438 L 255.207031 158.078125 L 242.128906 163.644531 L 229.117188 169.835938 L 217.273438 176.128906 L 207.609375 181.921875 L 200.9375 186.613281 L 197.742188 189.695313 L 198.089844 190.824219 L 201.613281 189.957031 L 207.726563 187.210938 L 215.585938 182.921875 L 224.242188 177.609375 L 232.742188 171.886719 L 246.179688 161.734375 L 250.207031 158.273438 L 252.339844 156.210938 L 252.875 155.46875 L 252.332031 155.71875 L 251.367188 156.433594 L 250.65625 156.945313 L 250.804688 156.570313 L 252.242188 154.699219 L 255.15625 150.910156 L 259.480469 145.050781 L 264.910156 137.269531 L 270.933594 128.023438 L 276.921875 118.039063 L 282.21875 108.222656 L 286.238281 99.539063 L 288.53125 92.898438 L 288.867188 89.03125 L 287.234375 88.375 L 283.839844 91.023438 L 279.089844 96.699219 L 273.503906 104.789063 L 267.644531 114.433594 L 262.054688 124.625 L 257.171875 134.347656 L 253.289063 142.722656 L 250.523438 149.117188 L 248.832031 153.230469 L 248.03125 155.136719 L 247.84375 155.257813 L 247.953125 154.292969 L 248.074219 153.125 L 247.984375 152.671875 L 247.5625 153.746094 L 246.800781 156.921875 L 245.796875 162.445313 L 244.710938 170.183594 L 243.75 179.605469 L 243.09375 189.878906 L 242.878906 199.941406 L 243.160156 208.65625 L 243.890625 214.949219 L 244.933594 217.972656 L 246.085938 217.195313 L 247.109375 212.496094 L 247.777344 204.171875 L 247.910156 192.898438 L 247.402344 179.640625 L 246.25 165.523438 L 244.550781 151.6875 L 242.457031 139.144531 L 240.179688 128.628906 L 237.917969 120.539063 L 235.820313 114.878906 L 233.953125 111.277344 L 232.273438 109.066406 L 230.636719 107.390625 L 228.933594 105.507813 L 226.8125 102.621094 L 224.039063 98.226563 L 220.40625 92.039063 L 215.789063 84.050781 L 210.164063 74.535156 L 203.648438 64.007813 L 196.480469 53.183594 L 189.015625 42.878906 L 181.683594 33.925781 L 174.964844 27.066406 L 169.3125 22.878906 L 165.101563 21.695313 L 162.601563 23.578125 L 161.902344 28.3125 L 162.9375 35.433594 L 165.460938 44.289063 L 169.082031 54.109375 L 173.320313 64.105469 L 177.640625 73.546875 L 181.550781 81.851563 L 184.644531 88.644531 L 186.664063 93.773438 L 187.53125 97.332031 L 187.375 99.617188 L 186.5 101.074219 L 185.359375 102.25 L 184.496094 103.6875 L 184.46875 105.867188 L 185.773438 109.148438 L 188.769531 113.699219 L 193.628906 119.503906 L 200.28125 126.351563 L 208.433594 133.863281 L 217.5625 141.5625 L 226.984375 148.90625 L 235.929688 155.378906 L 243.605469 160.539063 L 249.3125 164.085938 L 252.519531 165.867188 L 252.917969 165.921875 L 250.484375 164.445313 L 245.457031 161.773438 L 238.335938 158.328125 L 229.816406 154.574219 L 220.703125 150.949219 L 211.828125 147.832031 L 203.933594 145.492188 L 197.613281 144.070313 L 193.207031 143.578125 L 190.792969 143.917969 L 190.171875 144.894531 L 190.894531 146.265625 L 192.3125 147.78125 L 193.699219 149.21875 L 194.304688 150.414063 L 193.488281 151.285156 L 190.800781 151.835938 L 186.042969 152.148438 L 179.308594 152.351563 L 170.980469 152.617188 L 161.703125 153.097656 L 152.296875 153.921875 L 143.679688 155.15625 L 136.28125 156.957031 L 131.867188 159.136719 L 131.128906 161.511719 L 134.363281 163.855469 L 141.429688 165.917969 L 151.765625 167.496094 L 164.472656 168.460938 L 178.417969 168.769531 L 192.417969 168.492188 L 205.371094 167.773438 L 216.410156 166.824219 L 225.019531 165.859375 L 231.078125 165.054688 L 234.867188 164.507813 L 237.007813 164.214844 L 238.351563 164.042969 L 239.84375 163.769531 L 242.375 163.101563 L 246.625 161.726563 L 252.972656 159.386719 L 261.417969 155.925781 L 271.582031 151.34375 L 282.746094 145.8125 L 293.960938 139.6875 L 304.171875 133.460938 L 312.359375 127.714844 L 317.691406 123.050781 L 319.625 119.988281 L 317.980469 118.90625 L 312.964844 119.976563 L 305.144531 123.132813 L 295.339844 128.0625 L 284.539063 134.265625 L 273.75 141.105469 L 263.863281 147.914063 L 255.554688 154.082031 L 249.195313 159.152344 L 244.839844 162.902344 L 242.21875 165.371094 L 240.824219 166.859375 L 240 167.898438 L 239.039063 169.160156 L 234.394531 175.089844 L 230.054688 180.828125 L 224.355469 188.726563 L 210.382813 210.070313 L 203.289063 222.28125 L 197.019531 234.320313 L 192.179688 245.171875 L 189.234375 253.894531 L 188.414063 259.734375 L 189.71875 262.246094 L 192.914063 261.347656 L 197.578125 257.34375 L 203.15625 250.878906 L 209.066406 242.867188 L 214.75 234.339844 L 219.773438 226.332031 L 223.84375 219.722656 L 226.867188 215.105469 L 228.902344 212.734375 L 230.15625 212.460938 L 230.878906 213.664063 L 231.433594 215.632813 L 232.058594 217.617188 L 232.925781 218.832031 L 234.136719 218.597656 L 235.691406 216.398438 L 237.523438 211.992188 L 239.484375 205.433594 L 241.410156 197.085938 L 243.121094 187.585938 L 244.484375 177.777344 L 245.421875 168.605469 L 245.917969 161.019531 L 246.050781 155.847656 L 245.949219 153.703125 L 245.800781 154.902344 L 245.796875 159.445313 L 246.117188 166.992188 L 246.894531 176.917969 L 248.195313 188.382813 L 250.015625 200.4375 L 252.265625 212.121094 L 254.804688 222.589844 L 257.457031 231.203125 L 260.046875 237.597656 L 262.429688 241.714844 L 264.535156 243.804688 L 266.359375 244.367188 L 268 244.09375 L 269.628906 243.757813 L 271.472656 244.105469 L 273.789063 245.757813 L 276.8125 249.121094 L 280.703125 254.339844 L 285.539063 261.253906 L 291.25 269.425781 L 297.644531 278.195313 L 304.394531 286.746094 L 311.078125 294.226563 L 317.207031 299.824219 L 322.308594 302.882813 L 325.953125 302.976563 L 327.839844 299.964844 L 327.808594 293.984375 L 325.890625 285.460938 L 322.300781 275.035156 L 317.410156 263.476563 L 311.707031 251.625 L 305.742188 240.261719 L 300.046875 230.027344 L 295.078125 221.371094 L 291.140625 214.5 L 288.355469 209.371094 L 286.636719 205.710938 L 285.703125 203.074219 L 285.109375 200.914063 L 284.3125 198.664063 L 282.730469 195.808594 L 279.851563 191.96875 L 275.289063 186.941406 L 268.859375 180.726563 L 260.613281 173.535156 L 250.859375 165.738281 L 240.128906 157.835938 L 229.34375 150.519531 L 219.066406 144.140625 L 210.070313 139.125 L 203.054688 135.78125 L 198.554688 134.257813 L 196.894531 134.527344 L 198.125 136.40625 L 202.035156 139.566406 L 208.164063 143.601563 L 215.851563 148.050781 L 224.316406 152.476563 L 232.75 156.496094 L 240.414063 159.824219 L 246.710938 162.300781 L 251.269531 163.890625 L 253.976563 164.671875 L 254.988281 164.8125 L 254.71875 164.546875 L 253.761719 164.105469 L 252.828125 163.714844 L 252.652344 163.53125 L 253.886719 163.652344 L 257.007813 164.082031 L 262.265625 164.75 L 269.628906 165.527344 L 278.777344 166.25 L 289.132813 166.753906 L 299.917969 166.898438 L 310.246094 166.601563 L 319.214844 165.835938 L 326.007813 164.660156 L 329.996094 163.183594 L 330.804688 161.574219 L 328.359375 160.011719 L 322.882813 158.667969 L 314.898438 157.691406 L 305.132813 157.160156 L 294.457031 157.09375 L 283.785156 157.433594 L 273.953125 158.070313 L 265.652344 158.839844 L 259.332031 159.582031 L 255.167969 160.140625 L 253.050781 160.417969 L 252.605469 160.378906 L 253.25 160.074219 L 254.289063 159.636719 L 254.984375 159.253906 L 254.667969 159.164063 L 252.832031 159.605469 L 249.195313 160.777344 L 243.726563 162.8125 L 236.675781 165.730469 L 228.535156 169.4375 L 219.984375 173.703125 L 211.8125 178.195313 L 204.824219 182.492188 L 199.746094 186.140625 L 197.148438 188.699219 L 197.371094 189.792969 L 200.492188 189.167969 L 206.320313 186.71875 L 214.417969 182.5 L 224.15625 176.746094 L 235.707031 169.207031 L 247.316406 160.914063 L 258.074219 152.53125 L 267.269531 144.683594 L 274.464844 137.871094 L 279.539063 132.375 L 282.6875 128.226563 L 284.359375 125.199219 L 285.171875 122.828125 L 285.824219 120.496094 L 286.953125 117.511719 L 289.066406 113.238281 L 292.433594 107.191406 L 297.078125 99.128906 L 309.035156 77.535156 L 315.285156 65.054688 L 320.851563 52.558594 L 325.117188 41.035156 L 327.582031 31.453125 L 327.945313 24.621094 L 326.136719 21.09375 L 322.320313 21.082031 L 316.859375 24.421875 L 310.265625 30.585938 L 303.121094 38.773438 L 295.988281 47.992188 L 289.367188 57.21875 L 283.597656 65.511719 L 278.871094 72.160156 L 275.183594 76.777344 L 272.398438 79.34375 L 270.265625 80.199219 L 268.484375 80.007813 L 266.765625 79.621094 L 264.875 79.972656 L 262.683594 81.921875 L 260.167969 86.113281 L 257.417969 92.871094 L 254.601563 102.132813 L 251.925781 113.441406 L 249.605469 126 L 247.796875 138.757813 L 246.578125 150.558594 L 245.941406 160.285156 L 245.769531 167.011719 L 245.875 170.121094 L 246.027344 169.402344 L 246 165.074219 L 245.605469 157.742188 L 244.734375 148.332031 L 243.367188 137.957031 L 241.585938 127.761719 L 239.550781 118.785156 L 237.464844 111.808594 L 235.53125 107.269531 L 233.921875 105.214844 L 232.707031 105.300781 L 231.863281 106.875 L 231.246094 109.066406 L 230.617188 110.9375 L 229.679688 111.625 L 228.121094 110.476563 L 225.695313 107.148438 L 222.511719 102.09375 L 218.4375 95.476563 L 213.601563 87.851563 L 208.261719 79.957031 L 202.789063 72.625 L 197.628906 66.683594 L 193.253906 62.84375 L 190.105469 61.644531 L 188.53125 63.355469 L 188.753906 67.972656 L 190.832031 75.214844 L 194.632813 84.558594 L 199.863281 95.300781 L 206.089844 106.648438 L 212.789063 117.796875 L 219.421875 128.046875 L 225.488281 136.847656 L 230.597656 143.878906 L 237.238281 152.515625 L 238.894531 154.625 L 239.851563 155.875 L 240.585938 156.824219 L 241.652344 158.023438 L 243.59375 159.929688 L 246.878906 162.859375 L 251.804688 166.941406 L 258.464844 172.101563 L 266.71875 178.078125 L 276.175781 184.457031 L 286.253906 190.734375 L 296.203125 196.375 L 305.230469 200.878906 L 312.546875 203.851563 L 317.484375 205.042969 L 319.574219 204.382813 L 318.601563 201.972656 L 314.628906 198.074219 L 307.996094 193.074219 L 299.296875 187.441406 L 289.277344 181.648438 L 278.78125 176.132813 L 268.636719 171.253906 L 259.546875 167.246094 L 252.027344 164.21875 L 246.332031 162.140625 L 242.429688 160.886719 L 240.019531 160.238281 L 238.558594 159.957031 L 237.363281 159.800781 L 235.671875 159.574219 L 232.773438 159.15625 L 228.097656 158.507813 L 221.296875 157.667969 L 212.308594 156.753906 L 201.363281 155.929688 L 188.984375 155.363281 L 175.921875 155.210938 L 163.085938 155.578125 L 151.421875 156.511719 L 141.820313 157.972656 L 135 159.855469 L 131.4375 162 L 131.296875 164.214844 L 134.816406 166.476563 L 141.5625 168.398438 L 150.589844 169.851563 L 160.765625 170.808594 L 170.894531 171.351563 L 179.90625 171.632813 L 186.984375 171.863281 L 191.6875 172.246094 L 193.964844 172.945313 L 194.179688 174.039063 L 193.023438 175.480469 L 191.398438 177.121094 L 190.273438 178.695313 L 190.527344 179.890625 L 192.808594 180.390625 L 197.441406 179.929688 L 204.347656 178.367188 L 213.078125 175.726563 L 222.851563 172.203125 L 232.679688 168.175781 L 241.488281 164.15625 L 248.277344 160.730469 L 252.257813 158.484375 L 252.960938 157.902344 L 250.292969 159.3125 L 244.554688 162.816406 L 236.382813 168.277344 L 226.660156 175.308594 L 216.402344 183.351563 L 206.597656 191.734375 L 198.097656 199.773438 L 191.507813 206.871094 L 187.105469 212.613281 L 184.84375 216.835938 L 184.363281 219.640625 L 185.089844 221.402344 L 186.316406 222.695313 L 187.328125 224.21875 L 187.527344 226.671875 L 186.511719 230.640625 L 184.132813 236.492188 L 180.523438 244.300781 L 176.070313 253.796875 L 171.339844 264.40625 L 166.996094 275.292969 L 163.703125 285.464844 L 162.023438 293.90625 L 162.332031 299.710938 L 164.777344 302.226563 L 169.265625 301.117188 L 175.46875 296.449219 L 182.890625 288.664063 L 190.941406 278.535156 L 199.015625 267.054688 L 206.582031 255.300781 L 213.234375 244.285156 L 218.738281 234.820313 L 223.054688 227.398438 L 228.703125 218.746094 L 230.585938 216.628906 L 232.253906 214.925781 L 233.957031 212.6875 L 235.855469 209.007813 L 237.953125 203.324219 L 240.210938 195.222656 L 242.480469 184.710938 L 244.5625 172.183594 L 246.257813 158.382813 L 247.402344 144.304688 L 247.910156 131.082031 L 247.78125 119.832031 L 247.117188 111.515625 L 246.097656 106.800781 L 244.949219 105.984375 L 243.90625 108.953125 L 243.171875 115.183594 L 242.882813 123.839844 L 243.082031 133.859375 L 243.726563 144.113281 L 244.683594 153.546875 L 245.761719 161.316406 L 246.773438 166.902344 L 247.539063 170.148438 L 247.972656 171.289063 L 248.074219 170.882813 L 247.960938 169.730469 L 247.84375 168.742188 L 248.011719 168.789063 L 248.769531 170.585938 L 250.402344 174.566406 L 253.097656 180.820313 L 256.90625 189.070313 L 261.722656 198.710938 L 267.261719 208.871094 L 273.101563 218.558594 L 278.714844 226.769531 L 283.53125 232.625 L 287.03125 235.507813 L 288.808594 235.109375 L 288.636719 231.5 L 286.503906 225.085938 L 282.628906 216.566406 L 277.4375 206.835938 L 271.5 196.855469 L 265.46875 187.53125 L 255.53125 173.554688 L 252.472656 169.570313 L 250.890625 167.519531 L 250.621094 167.011719 L 251.261719 167.457031 L 252.230469 168.179688 L 252.855469 168.515625 L 252.480469 167.914063 L 250.566406 166.027344 L 246.789063 162.742188 L 241.109375 158.214844 L 233.792969 152.824219 L 225.40625 147.117188 L 216.738281 141.722656 L 208.730469 137.269531 L 202.339844 134.292969 L 198.410156 133.148438 L 197.578125 133.988281 L 200.164063 136.726563 L 206.125 141.074219 L 215.066406 146.582031 L 225.472656 152.269531 L 237.113281 158.019531 L 249.15625 163.398438 L 260.796875 168.066406 L 271.328125 171.792969 L 280.238281 174.472656 L 287.269531 176.136719 L 292.4375 176.910156 L 296.023438 177.003906 L 298.535156 176.660156 L 300.644531 176.121094 L 303.078125 175.582031 L 306.542969 175.183594 L 311.605469 174.964844 L 318.621094 174.90625 L 327.679688 174.902344 L 338.582031 174.804688 L 350.84375 174.453125 L 363.75 173.695313 L 376.429688 172.429688 L 387.957031 170.609375 L 397.445313 168.269531 L 404.160156 165.507813 L 407.605469 162.476563 L 407.5625 159.375 L 404.140625 156.390625 L 397.746094 153.695313 L 389.035156 151.410156 L 378.855469 149.59375 L 368.117188 148.222656 L 357.722656 147.214844 L 348.429688 146.433594 L 340.796875 145.722656 L 335.113281 144.925781 L 331.378906 143.933594 L 329.304688 142.691406 L 328.378906 141.226563 L 327.925781 139.660156 L 327.207031 138.167969 L 325.523438 136.992188 L 322.296875 136.382813 L 317.167969 136.570313 L 310.023438 137.71875 L 301.042969 139.898438 L 290.652344 143.050781 L 279.507813 146.996094 L 268.382813 151.429688 L 258.121094 155.953125 L 249.496094 160.113281 L 243.152344 163.457031 L 239.523438 165.578125 L 238.773438 166.183594 L 240.800781 165.117188 L 245.234375 162.394531 L 258.867188 152.878906 L 266.566406 146.886719 L 273.84375 140.742188 L 280.0625 134.96875 L 284.777344 130.011719 L 287.753906 126.195313 L 289 123.675781 L 288.730469 122.417969 L 287.355469 122.183594 L 285.21875 122.628906 L 283.097656 123.167969 L 281.648438 123.09375 L 281.363281 121.75 L 282.511719 118.664063 L 285.09375 113.605469 L 293.28125 98.253906 L 297.792969 89.066406 L 301.714844 80.003906 L 304.425781 72.058594 L 305.449219 66.179688 L 304.519531 63.144531 L 301.597656 63.453125 L 296.882813 67.246094 L 290.761719 74.28125 L 283.773438 83.972656 L 276.503906 95.449219 L 269.519531 107.671875 L 263.285156 119.601563 L 258.125 130.300781 L 254.179688 139.09375 L 249.671875 149.980469 L 248.652344 152.519531 L 248.046875 153.964844 L 247.5625 155.199219 L 246.964844 157.164063 L 246.140625 160.679688 L 245.070313 166.335938 L 243.859375 174.375 L 242.679688 184.636719 L 241.726563 196.570313 L 241.199219 209.304688 L 241.226563 221.726563 L 241.851563 232.667969 L 243.023438 241.023438 L 244.597656 245.933594 L 246.347656 246.875 L 248.035156 243.746094 L 249.414063 236.882813 L 250.304688 227 L 250.605469 215.113281 L 250.320313 202.375 L 249.542969 189.949219 L 248.441406 178.828125 L 247.21875 169.730469 L 246.066406 162.988281 L 245.125 158.542969 L 244.429688 155.957031 L 243.917969 154.5 L 243.398438 153.269531 L 242.609375 151.332031 L 241.234375 147.890625 L 235.582031 134.601563 L 230.972656 124.710938 L 225.199219 113.242188 L 218.507813 101.027344 L 211.304688 89.074219 L 204.113281 78.445313 L 197.523438 70.097656 L 192.105469 64.765625 L 188.320313 62.851563 L 186.527344 64.191406 L 186.484375 68.273438 L 188.074219 74.585938 L 191.011719 82.429688 L 194.863281 91.007813 L 199.113281 99.519531 L 206.679688 113.660156 L 209.121094 118.429688 L 210.316406 121.472656 L 210.25 122.953125 L 209.105469 123.234375 L 207.246094 122.828125 L 205.175781 122.304688 L 203.46875 122.214844 L 202.6875 123.035156 L 203.308594 125.066406 L 205.644531 128.4375 L 209.785156 133.0625 L 215.582031 138.660156 L 222.644531 144.808594 L 230.375 150.984375 L 244.792969 161.28125 L 249.894531 164.5 L 252.675781 166.0625 L 252.695313 165.894531 L 249.765625 164.117188 L 243.984375 161 L 235.738281 156.941406 L 225.648438 152.402344 L 214.5 147.859375 L 203.15625 143.742188 L 192.445313 140.386719 L 183.074219 138.003906 L 175.53125 136.679688 L 170.039063 136.355469 L 166.535156 136.878906 L 164.667969 138.011719 L 163.867188 139.5 L 163.414063 141.089844 L 162.542969 142.582031 L 160.546875 143.859375 L 156.875 144.878906 L 151.21875 145.691406 L 143.558594 146.414063 L 134.183594 147.199219 L 123.664063 148.21875 L 112.796875 149.605469 L 102.507813 151.453125 L 93.746094 153.777344 L 87.378906 156.519531 L 84.082031 159.550781 L 84.265625 162.695313 L 88.015625 165.746094 L 95.089844 168.511719 L 104.9375 170.832031 L 116.785156 172.609375 L 129.699219 173.820313 L 142.722656 174.523438 L 154.96875 174.832031 L 165.730469 174.90625 L 174.546875 174.910156 L 181.261719 174.992188 L 185.949219 175.242188 L 189.152344 175.671875 L 191.460938 176.21875 L 193.570313 176.734375 L 196.191406 177.023438 L 199.957031 176.84375 L 205.339844 175.960938 L 212.578125 174.179688 L 221.648438 171.382813 L 232.261719 167.566406 L 243.898438 162.839844 L 255.847656 157.441406 L 267.316406 151.722656 L 277.496094 146.105469 L 285.667969 141.042969 L 291.277344 136.976563 L 294.007813 134.265625 L 293.789063 133.160156 L 290.835938 133.757813 L 285.582031 135.988281 L 278.664063 139.613281 L 270.816406 144.261719 L 262.804688 149.464844 L 255.332031 154.707031 L 248.96875 159.507813 L 244.09375 163.464844 L 240.867188 166.3125 L 239.21875 167.960938 L 238.878906 168.511719 L 239.414063 168.246094 L 240.308594 167.589844 L 241.019531 167.0625 L 241.070313 167.207031 L 240.085938 168.519531 L 234.394531 175.992188 L 229.835938 182.335938 L 224.519531 190.171875 L 218.898438 199.035156 L 213.484375 208.304688 L 208.785156 217.238281 L 205.246094 225.070313 L 203.203125 231.101563 L 202.832031 234.765625 L 204.148438 235.707031 L 207.003906 233.820313 L 211.105469 229.273438 L 216.0625 222.476563 L 221.433594 214.058594 L 226.777344 204.773438 L 235.90625 186.8125 L 239.210938 179.535156 L 241.558594 174.039063 L 243.007813 170.5 L 243.714844 168.824219 L 243.902344 168.675781 L 243.8125 169.5 L 243.683594 170.613281 L 243.699219 171.289063 L 243.980469 170.855469 L 244.554688 168.777344 L 245.390625 164.753906 L 246.371094 158.738281 L 247.433594 150.246094 L 248.296875 140.355469 L 248.792969 130.011719 L 248.808594 120.335938 L 248.335938 112.453125 L 247.460938 107.375 L 246.34375 105.839844 L 245.210938 108.210938 L 244.304688 114.449219 L 243.839844 124.089844 L 243.960938 136.324219 L 244.738281 150.101563 L 246.136719 164.257813 L 248.023438 177.691406 L 250.222656 189.484375 L 252.519531 199.027344 L 254.730469 206.089844 L 256.738281 210.828125 L 258.515625 213.75 L 260.15625 215.625 L 261.847656 217.355469 L 263.867188 219.832031 L 266.511719 223.800781 L 270.0625 229.738281 L 274.714844 237.78125 L 280.527344 247.6875 L 287.402344 258.878906 L 295.0625 270.5 L 303.078125 281.546875 L 310.910156 290.996094 L 317.972656 297.9375 L 323.714844 301.710938 L 327.695313 301.972656 L 329.652344 298.75 L 329.539063 292.4375 L 327.546875 283.71875 L 324.074219 273.492188 L 319.683594 262.734375 L 315.015625 252.386719 L 310.707031 243.214844 L 307.277344 235.738281 L 305.070313 230.171875 L 304.1875 226.414063 L 304.464844 224.089844 L 305.496094 222.625 L 306.699219 221.339844 L 307.382813 219.578125 L 306.882813 216.785156 L 304.636719 212.613281 L 300.308594 206.960938 L 293.851563 199.984375 L 285.53125 192.082031 L 275.90625 183.8125 L 265.789063 175.839844 L 247.886719 163.269531 L 241.945313 159.601563 L 238.933594 157.964844 L 239.183594 158.292969 L 242.660156 160.296875 L 248.957031 163.527344 L 257.363281 167.429688 L 266.945313 171.441406 L 276.679688 175.050781 L 285.03125 177.710938 L 292.003906 179.484375 L 297.152344 180.3125 L 300.289063 180.261719 L 301.527344 179.488281 L 301.226563 178.230469 L 299.976563 176.734375 L 298.488281 175.246094 L 297.523438 173.949219 L 297.769531 172.953125 L 299.757813 172.292969 L 303.789063 171.910156 L 309.871094 171.6875 L 317.71875 171.464844 L 326.765625 171.074219 L 336.246094 170.378906 L 345.257813 169.285156 L 352.867188 167.773438 L 358.230469 165.890625 L 360.695313 163.761719 L 359.855469 161.550781 L 355.617188 159.449219 L 348.21875 157.644531 L 338.171875 156.285156 L 326.242188 155.464844 L 313.328125 155.199219 L 300.367188 155.441406 L 288.238281 156.066406 L 277.648438 156.917969 L 269.070313 157.828125 L 262.675781 158.636719 L 258.355469 159.246094 L 255.71875 159.625 L 254.164063 159.828125 L 252.980469 159.988281 L 251.417969 160.3125 L 248.804688 161.039063 L 244.648438 162.40625 L 238.683594 164.617188 L 230.925781 167.785156 L 221.667969 171.917969 L 211.453125 176.894531 L 201.003906 182.457031 L 191.148438 188.238281 L 182.714844 193.800781 L 176.429688 198.660156 L 172.84375 202.375 L 172.265625 204.566406 L 174.722656 205 L 179.964844 203.585938 L 187.5 200.421875 L 196.648438 195.777344 L 206.628906 190.054688 L 216.640625 183.757813 L 234.042969 171.523438 L 240.511719 166.480469 L 245.253906 162.523438 L 248.382813 159.707031 L 250.21875 157.886719 L 251.226563 156.738281 L 251.957031 155.789063 L 254.679688 152.292969 L 257.765625 148.339844 L 262.277344 142.347656 L 268.125 134.1875 L 274.957031 124.054688 L 282.226563 112.460938 L 289.269531 100.203125 L 295.40625 88.234375 L 300.039063 77.578125 L 302.730469 69.167969 L 303.277344 63.722656 L 301.710938 61.652344 L 298.289063 62.980469 L 293.464844 67.359375 L 287.796875 74.097656 L 281.878906 82.257813 L 276.253906 90.785156 L 271.34375 98.660156 L 267.40625 105.03125 L 264.53125 109.339844 L 262.617188 111.398438 L 261.453125 111.402344 L 260.730469 109.898438 L 260.136719 107.703125 L 259.394531 105.769531 L 258.320313 105.027344 L 256.835938 106.25 L 254.988281 109.914063 L 252.917969 116.125 L 250.824219 124.5625 L 248.921875 134.542969 L 247.394531 145.074219 L 246.351563 155 L 245.816406 163.144531 L 245.695313 168.492188 L 245.820313 170.304688 L 245.964844 168.242188 L 245.886719 162.402344 L 245.378906 153.304688 L 244.304688 141.832031 L 242.625 129.089844 L 240.390625 116.273438 L 237.757813 104.496094 L 234.929688 94.652344 L 232.125 87.289063 L 229.527344 82.554688 L 227.253906 80.195313 L 225.296875 79.601563 L 223.546875 79.929688 L 221.78125 80.21875 L 219.703125 79.574219 L 217.011719 77.273438 L 213.433594 72.910156 L 208.804688 66.457031 L 203.109375 58.261719 L 196.511719 49.023438 L 189.351563 39.671875 L 182.121094 31.269531 L 175.394531 24.835938 L 169.777344 21.222656 L 165.796875 20.984375 L 163.84375 24.328125 L 164.09375 31.050781 L 166.492188 40.613281 L 170.734375 52.179688 L 175.921875 63.925781 L 181.769531 75.734375 L 193.25 96.671875 L 197.949219 104.824219 L 201.554688 111.171875 L 204.007813 115.835938 L 205.453125 119.140625 L 206.230469 121.574219 L 206.828125 123.707031 L 207.808594 126.097656 L 209.742188 129.230469 L 213.117188 133.433594 L 218.257813 138.847656 L 225.289063 145.410156 L 234.066406 152.855469 L 244.21875 160.757813 L 255.136719 168.589844 L 266.070313 175.796875 L 276.191406 181.863281 L 284.6875 186.363281 L 290.878906 189.039063 L 294.269531 189.808594 L 294.636719 188.765625 L 292.054688 186.1875 L 286.878906 182.464844 L 279.710938 178.066406 L 271.332031 173.480469 L 262.597656 169.148438 L 254.351563 165.421875 L 247.296875 162.53125 L 241.9375 160.566406 L 238.5 159.488281 L 236.917969 159.144531 L 236.839844 159.316406 L 237.683594 159.738281 L 238.714844 160.171875 L 239.152344 160.417969 L 238.269531 160.371094 L 235.503906 159.992188 L 230.535156 159.347656 L 223.34375 158.558594 L 214.21875 157.804688 L 203.75 157.253906 L 192.734375 157.066406 L 182.113281 157.335938 L 172.859375 158.09375 L 165.839844 159.285156 L 161.738281 160.789063 L 160.957031 162.4375 L 163.574219 164.027344 L 169.332031 165.382813 L 177.664063 166.347656 L 187.777344 166.839844 L 198.734375 166.851563 L 209.5625 166.453125 L 219.390625 165.769531 L 227.515625 164.976563 L 233.515625 164.246094 L 237.265625 163.734375 L 238.953125 163.53125 L 239.035156 163.65625 L 238.179688 164.023438 L 237.152344 164.480469 L 236.722656 164.792969 L 237.5 164.730469 L 239.921875 164.0625 L 244.199219 162.605469 L 250.253906 160.265625 L 257.753906 157.054688 L 266.132813 153.117188 L 274.660156 148.722656 L 282.527344 144.242188 L 288.9375 140.109375 L 293.210938 136.789063 L 294.847656 134.703125 L 293.59375 134.191406 L 289.472656 135.460938 L 282.761719 138.566406 L 273.980469 143.375 L 263.8125 149.609375 L 253.027344 156.84375 L 242.40625 164.578125 L 232.636719 172.285156 L 224.253906 179.480469 L 217.585938 185.789063 L 212.730469 190.976563 L 209.558594 195.003906 L 207.738281 198.015625 L 206.804688 200.335938 L 206.222656 202.425781 L 205.460938 204.816406 L 204.054688 208.039063 L 201.6875 212.554688 L 193.679688 226.546875 L 188.316406 236.039063 L 182.507813 246.816406 L 176.730469 258.34375 L 171.507813 269.921875 L 167.339844 280.773438 L 164.636719 290.128906 L 163.675781 297.304688 L 164.570313 301.792969 L 167.265625 303.320313 L 171.535156 301.875 L 177.042969 297.722656 L 183.347656 291.367188 L 189.992188 283.5 L 196.535156 274.917969 L 207.929688 258.765625 L 212.375 252.484375 L 215.921875 247.917969 L 218.667969 245.128906 L 220.792969 243.910156 L 222.527344 243.804688 L 224.109375 244.191406 L 225.746094 244.34375 L 227.589844 243.539063 L 229.710938 241.152344 L 232.09375 236.746094 L 234.65625 230.132813 L 237.257813 221.410156 L 239.726563 210.957031 L 241.902344 199.410156 L 243.652344 187.582031 L 244.898438 176.378906 L 245.683594 165.988281 L 245.964844 158.390625 L 245.910156 154.292969 L 245.746094 154.019531 L 245.707031 157.464844 L 245.992188 164.117188 L 246.738281 173.113281 L 247.988281 183.375 L 249.679688 193.734375 L 251.675781 203.117188 L 253.773438 210.65625 L 255.761719 215.820313 L 257.464844 218.472656 L 258.78125 218.855469 L 259.707031 217.5625 L 260.359375 215.433594 L 260.960938 213.398438 L 261.800781 212.363281 L 263.1875 213.039063 L 265.398438 215.851563 L 268.609375 220.867188 L 272.855469 227.765625 L 277.996094 235.898438 L 283.730469 244.363281 L 289.589844 252.136719 L 295.027344 258.207031 L 299.460938 261.71875 L 302.363281 262.078125 L 303.34375 259.054688 L 302.207031 252.78125 L 298.984375 243.75 L 293.945313 232.734375 L 287.5625 220.679688 L 280.449219 208.582031 L 266.675781 187.71875 L 261.148438 180.097656 L 256.980469 174.617188 L 252.59375 169.015625 L 251.675781 167.8125 L 250.835938 166.761719 L 249.375 165.222656 L 246.65625 162.679688 L 242.191406 158.859375 L 235.738281 153.734375 L 217.46875 140.757813 L 206.714844 133.96875 L 195.992188 127.839844 L 186.296875 122.992188 L 178.589844 119.917969 L 173.683594 118.90625 L 172.121094 120.027344 L 174.097656 123.097656 L 179.433594 127.753906 L 187.589844 133.472656 L 197.742188 139.664063 L 208.898438 145.761719 L 220.007813 151.273438 L 230.140625 155.847656 L 238.582031 159.316406 L 244.957031 161.671875 L 249.25 163.066406 L 251.691406 163.722656 L 253.164063 164.011719 L 254.359375 164.167969 L 256.042969 164.390625 L 258.925781 164.804688 L 263.589844 165.457031 L 270.386719 166.296875 L 279.378906 167.210938 L 290.335938 168.039063 L 302.730469 168.605469 L 315.8125 168.761719 L 328.671875 168.390625 L 340.355469 167.453125 L 349.964844 165.988281 L 356.777344 164.101563 L 360.320313 161.949219 L 360.429688 159.730469 L 357.269531 157.632813 L 351.304688 155.820313 L 343.253906 154.394531 L 334.007813 153.394531 L 324.507813 152.777344 L 315.648438 152.441406 L 308.164063 152.234375 L 302.558594 151.980469 L 299.050781 151.535156 L 297.550781 150.785156 L 297.691406 149.699219 L 298.878906 148.328125 L 300.382813 146.808594 L 301.4375 145.347656 L 301.347656 144.195313 L 299.578125 143.609375 L 295.824219 143.804688 L 290.074219 144.921875 L 282.585938 146.988281 L 273.890625 149.902344 L 264.707031 153.425781 L 255.859375 157.210938 L 248.195313 160.816406 L 242.460938 163.78125 L 239.226563 165.648438 L 238.828125 166.050781 L 241.304688 164.738281 L 246.425781 161.636719 L 253.699219 156.839844 L 271.890625 143.398438 L 281.214844 135.6875 L 289.703125 128.035156 L 296.777344 120.957031 L 302.078125 114.859375 L 305.488281 110 L 307.132813 106.441406 L 307.335938 104.046875 L 306.589844 102.488281 L 305.449219 101.296875 L 304.480469 99.921875 L 304.167969 97.804688 L 304.855469 94.464844 L 306.703125 89.570313 L 309.660156 82.988281 L 317.816406 65.46875 L 322.464844 54.597656 L 326.414063 43.890625 L 329.035156 34.375 L 329.839844 27.027344 L 328.550781 22.664063 L 325.128906 21.800781 L 319.789063 24.59375 L 312.9375 30.796875 L 305.132813 39.800781 L 296.984375 50.710938 L 289.074219 62.472656 L 281.890625 74.015625 L 275.75 84.398438 L 270.808594 92.949219 L 267.019531 99.347656 L 264.207031 103.664063 L 262.089844 106.351563 L 260.34375 108.15625 L 258.683594 110 L 256.894531 112.839844 L 254.875 117.492188 L 252.636719 124.515625 L 250.304688 134.105469 L 248.066406 146.023438 L 246.140625 159.652344 L 244.726563 174.03125 L 243.949219 188.003906 L 243.847656 200.355469 L 244.347656 209.992188 L 245.292969 216.074219 L 246.449219 218.152344 L 247.566406 216.210938 L 248.417969 210.683594 L 248.835938 202.382813 L 248.746094 192.378906 L 248.175781 181.875 L 247.246094 172.019531 L 246.152344 163.753906 L 245.101563 157.703125 L 244.277344 154.089844 L 243.796875 152.710938 L 243.664063 153.015625 L 243.773438 154.167969 L 243.898438 155.207031 L 243.738281 155.195313 L 242.96875 153.375 L 241.289063 149.285156 L 238.503906 142.832031 L 234.558594 134.320313 L 229.578125 124.417969 L 223.878906 114.050781 L 217.917969 104.292969 L 212.269531 96.191406 L 207.53125 90.652344 L 204.242188 88.285156 L 202.804688 89.347656 L 203.421875 93.695313 L 206.042969 100.816406 L 210.390625 109.914063 L 215.960938 120.007813 L 222.113281 130.082031 L 228.15625 139.214844 L 237.507813 152.117188 L 240.023438 155.367188 L 241.085938 156.789063 L 240.960938 156.867188 L 240.121094 156.238281 L 239.199219 155.585938 L 238.878906 155.546875 L 239.785156 156.609375 L 242.386719 159.035156 L 246.910156 162.828125 L 253.277344 167.75 L 261.097656 173.34375 L 269.714844 179.019531 L 278.253906 184.125 L 285.753906 188.0625 L 291.28125 190.359375 L 294.054688 190.730469 L 293.554688 189.113281 L 289.597656 185.683594 L 282.371094 180.804688 L 272.40625 174.980469 L 260.507813 168.785156 L 247.664063 162.773438 L 234.90625 157.429688 L 223.160156 153.097656 L 213.144531 149.949219 L 205.253906 147.992188 L 199.53125 147.082031 L 195.65625 146.972656 L 193 147.355469 L 190.730469 147.945313 L 187.941406 148.5 L 183.789063 148.875 L 177.640625 149.042969 L 169.160156 149.0625 L 158.390625 149.097656 L 145.765625 149.339844 L 132.054688 149.988281 L 118.277344 151.1875 L 105.574219 153.019531 L 95.0625 155.46875 L 87.671875 158.414063 L 84.046875 161.667969 L 84.441406 164.996094 L 88.6875 168.160156 L 96.222656 170.957031 L 106.167969 173.253906 L 117.449219 175.011719 L 128.917969 176.289063 L 139.53125 177.222656 L 148.472656 177.996094 L 155.25 178.808594 L 159.75 179.816406 L 162.246094 181.105469 L 163.332031 182.65625 L 163.824219 184.339844 L 164.636719 185.925781 L 166.632813 187.125 L 170.492188 187.621094 L 176.597656 187.148438 L 184.996094 185.53125 L 195.351563 182.730469 L 207.003906 178.890625 L 219.066406 174.308594 L 230.511719 169.433594 L 239.746094 165.101563 L 246.878906 161.449219 L 251.394531 158.902344 L 253.042969 157.796875 L 251.84375 158.34375 L 248.089844 160.570313 L 242.304688 164.351563 L 235.175781 169.386719 L 227.480469 175.238281 L 219.992188 181.40625 L 213.386719 187.351563 L 208.183594 192.601563 L 204.675781 196.785156 L 202.9375 199.691406 L 202.800781 201.308594 L 203.90625 201.804688 L 205.757813 201.539063 L 207.804688 200.992188 L 209.5 200.71875 L 210.382813 201.265625 L 210.144531 203.089844 L 208.652344 206.507813 L 205.980469 211.613281 L 202.375 218.28125 L 198.242188 226.144531 L 194.070313 234.640625 L 190.390625 243.054688 L 187.695313 250.601563 L 186.375 256.527344 L 186.6875 260.167969 L 188.714844 261.066406 L 192.367188 258.996094 L 197.398438 254.011719 L 203.441406 246.445313 L 210.042969 236.855469 L 216.742188 225.984375 L 223.109375 214.664063 L 228.785156 203.714844 L 237.238281 185.617188 L 239.925781 179.289063 L 241.71875 174.875 L 242.820313 172.113281 L 243.484375 170.507813 L 243.949219 169.394531 L 244.425781 168.035156 L 245.054688 165.71875 L 245.894531 161.859375 L 246.929688 156.078125 L 248.058594 148.257813 L 249.136719 138.585938 L 250.007813 127.519531 L 250.519531 115.765625 L 250.5625 104.1875 L 250.09375 93.714844 L 249.136719 85.238281 L 247.796875 79.503906 L 246.21875 77.023438 L 244.601563 78.03125 L 243.136719 82.425781 L 242 89.816406 L 241.316406 99.546875 L 241.144531 110.765625 L 241.464844 122.558594 L 242.277344 134.9375 L 243.398438 145.9375 L 244.621094 154.875 L 245.761719 161.433594 L 246.6875 165.707031 L 247.359375 168.167969 L 247.867188 169.574219 L 248.398438 170.832031 L 249.226563 172.875 L 250.675781 176.496094 L 253.042969 182.21875 L 256.550781 190.226563 L 261.285156 200.316406 L 267.167969 211.917969 L 273.941406 224.171875 L 281.183594 236.058594 L 288.351563 246.511719 L 294.855469 254.585938 L 300.128906 259.578125 L 303.71875 261.113281 L 305.355469 259.203125 L 304.988281 254.226563 L 302.8125 246.882813 L 299.238281 238.078125 L 294.847656 228.808594 L 290.300781 220.027344 L 286.25 212.515625 L 283.230469 206.785156 L 281.582031 203.042969 L 281.402344 201.15625 L 282.511719 200.722656 L 284.480469 201.136719 L 286.695313 201.691406 L 288.449219 201.703125 L 289.050781 200.613281 L 287.949219 198.078125 L 284.820313 194.007813 L 279.644531 188.59375 L 272.726563 182.246094 L 264.671875 175.566406 L 256.332031 169.214844 L 248.6875 163.847656 L 242.71875 159.996094 L 239.28125 158.015625 L 238.96875 158.019531 L 242.046875 159.890625 L 248.394531 163.296875 L 257.527344 167.742188 L 268.644531 172.648438 L 280.746094 177.4375 L 292.777344 181.609375 L 303.746094 184.792969 L 312.886719 186.792969 L 319.75 187.597656 L 324.261719 187.34375 L 326.730469 186.289063 L 327.78125 184.753906 L 328.273438 183.050781 L 329.152344 181.4375 L 331.300781 180.070313 L 335.394531 178.992188 L 341.785156 178.144531 L 350.445313 177.367188 L 360.9375 176.46875 L 371.683594 175.339844 L 382.484375 173.800781 L 392.386719 171.789063 L 400.449219 169.308594 L 405.851563 166.445313 L 408 163.351563 L 406.589844 160.210938 L 401.648438 157.230469 L 393.527344 154.601563 L 382.867188 152.457031 L 370.519531 150.875 L 357.433594 149.847656 L 344.566406 149.300781 L 332.757813 149.09375 L 322.632813 149.0625 L 314.550781 149.046875 L 308.558594 148.90625 L 304.398438 148.582031 L 301.570313 148.082031 L 299.386719 147.515625 L 297.085938 147.0625 L 293.933594 146.960938 L 289.324219 147.464844 L 282.871094 148.816406 L 274.460938 151.179688 L 264.265625 154.621094 L 252.742188 159.078125 L 240.566406 164.351563 L 228.5625 170.117188 L 217.597656 175.949219 L 208.480469 181.363281 L 201.875 185.886719 L 198.207031 189.09375 L 197.621094 190.683594 L 199.976563 190.507813 L 204.855469 188.59375 L 211.632813 185.15625 L 219.535156 180.566406 L 227.746094 175.308594 L 235.5 169.925781 L 242.160156 164.941406 L 247.296875 160.804688 L 250.71875 157.804688 L 252.480469 156.054688 L 252.867188 155.457031 L 252.328125 155.722656 L 251.414063 156.394531 L 250.703125 156.921875 L 250.703125 156.71875 L 251.800781 155.261719 L 257.902344 147.226563 L 262.695313 140.503906 L 268.214844 132.285156 L 273.957031 123.09375 L 279.378906 113.632813 L 283.941406 104.699219 L 287.195313 97.097656 L 288.820313 91.554688 L 288.679688 88.613281 L 286.804688 88.578125 L 283.414063 91.464844 L 278.855469 97.011719 L 273.574219 104.679688 L 268.15625 113.550781 L 262.925781 122.96875 L 254.386719 140.289063 L 251.464844 146.894531 L 249.492188 151.613281 L 248.367188 154.367188 L 247.902344 155.363281 L 247.859375 155.035156 L 247.992188 154 L 248.078125 152.980469 L 247.960938 152.691406 L 247.558594 153.765625 L 246.859375 156.644531 L 245.945313 161.527344 L 244.941406 168.347656 L 244.003906 176.734375 L 243.289063 186.082031 L 242.914063 195.597656 L 242.957031 204.390625 L 243.410156 211.570313 L 244.210938 216.351563 L 245.230469 218.148438 L 246.289063 216.628906 L 247.203125 211.769531 L 247.792969 203.855469 L 247.914063 193.433594 L 247.496094 181.277344 L 246.519531 168.269531 L 245.054688 155.320313 L 243.210938 143.261719 L 241.144531 132.757813 L 239.023438 124.226563 L 236.988281 117.820313 L 235.128906 113.394531 L 233.46875 110.554688 L 231.941406 108.710938 L 230.414063 107.167969 L 228.6875 105.199219 L 226.515625 102.175781 L 223.675781 97.621094 L 219.972656 91.289063 L 215.296875 83.203125 L 209.636719 73.652344 L 203.113281 63.164063 L 195.96875 52.445313 L 188.5625 42.292969 L 181.316406 33.515625 L 174.699219 26.828125 L 169.140625 22.789063 L 165.015625 21.703125 L 162.574219 23.632813 L 161.902344 28.363281 L 162.9375 35.429688 L 165.433594 44.203125 L 169.011719 53.929688 L 173.203125 63.84375 L 177.492188 73.226563 L 181.394531 81.515625 L 184.507813 88.328125 L 186.574219 93.507813 L 187.507813 97.128906 L 187.417969 99.472656 L 186.59375 100.96875 L 185.371094 102.234375 L 184.464844 103.796875 L 184.558594 106.253906 L 186.265625 110.015625 L 189.984375 115.261719 L 195.863281 121.902344 L 203.71875 129.609375 L 213.066406 137.851563 L 223.152344 145.988281 L 233.058594 153.351563 L 241.792969 159.359375 L 248.449219 163.570313 L 252.308594 165.761719 L 252.949219 165.945313 L 250.308594 164.347656 L 244.699219 161.390625 L 236.753906 157.601563 L 227.367188 153.558594 L 217.554688 149.796875 L 208.332031 146.738281 L 200.5625 144.664063 L 194.839844 143.679688 L 191.421875 143.714844 L 190.1875 144.578125 L 190.671875 145.972656 L 192.125 147.59375 L 193.640625 149.152344 L 194.300781 150.441406 L 193.304688 151.355469 L 190.109375 151.90625 L 184.515625 152.203125 L 176.71875 152.425781 L 167.300781 152.773438 L 157.148438 153.441406 L 147.355469 154.554688 L 139.066406 156.148438 L 133.332031 158.171875 L 130.96875 160.472656 L 132.441406 162.839844 L 137.800781 165.035156 L 146.675781 166.84375 L 158.320313 168.089844 L 171.722656 168.703125 L 185.730469 168.691406 L 199.210938 168.167969 L 211.1875 167.3125 L 220.980469 166.339844 L 228.273438 165.441406 L 233.140625 164.757813 L 236.03125 164.34375 L 237.667969 164.132813 L 238.953125 163.949219 L 240.796875 163.539063 L 243.992188 162.605469 L 249.085938 160.851563 L 256.289063 158.070313 L 265.445313 154.164063 L 276.035156 149.203125 L 287.253906 143.425781 L 298.113281 137.246094 L 307.582031 131.179688 L 314.71875 125.816406 L 318.808594 121.722656 L 319.445313 119.359375 L 316.886719 118.988281 L 311.542969 120.46875 L 303.921875 123.699219 L 294.710938 128.402344 L 284.699219 134.167969 L 274.683594 140.488281 L 257.359375 152.699219 L 250.960938 157.707031 L 246.296875 161.613281 L 243.238281 164.378906 L 241.457031 166.15625 L 240.472656 167.285156 L 239.742188 168.242188 L 236.925781 171.851563 L 234.050781 175.535156 L 229.957031 180.953125 L 224.703125 188.230469 L 218.542969 197.246094 L 211.875 207.640625 L 205.214844 218.851563 L 199.097656 230.148438 L 194.039063 240.738281 L 190.457031 249.835938 L 188.621094 256.753906 L 188.636719 261.003906 L 190.425781 262.332031 L 193.75 260.777344 L 198.242188 256.644531 L 203.460938 250.492188 L 208.933594 243.054688 L 214.222656 235.160156 L 218.972656 227.625 L 222.941406 221.179688 L 226.011719 216.34375 L 228.207031 213.402344 L 229.648438 212.351563 L 230.546875 212.910156 L 231.152344 214.558594 L 231.707031 216.617188 L 232.421875 218.320313 L 233.429688 218.941406 L 234.789063 217.878906 L 236.46875 214.746094 L 238.359375 209.425781 L 240.308594 202.109375 L 242.148438 193.265625 L 243.71875 183.613281 L 244.910156 174.023438 L 245.664063 165.4375 L 246.003906 158.746094 L 246.03125 154.679688 L 245.890625 153.742188 L 245.773438 156.128906 L 245.863281 161.722656 L 246.320313 170.085938 L 247.261719 180.535156 L 248.722656 192.195313 L 250.671875 204.128906 L 253.003906 215.425781 L 255.574219 225.316406 L 258.203125 233.246094 L 260.726563 238.949219 L 263.269531 242.730469 L 265.457031 244.230469 L 267.347656 244.257813 L 269.128906 243.820313 L 271.089844 243.953125 L 273.570313 245.554688 L 276.886719 249.214844 L 281.273438 255.136719 L 286.804688 263.082031 L 293.371094 272.390625 L 300.652344 282.105469 L 308.144531 291.085938 L 315.226563 298.183594 L 321.242188 302.425781 L 325.589844 303.136719 L 327.820313 300.046875 L 327.714844 293.324219 L 325.3125 283.550781 L 320.941406 271.625 L 315.148438 258.625 L 308.628906 245.664063 L 302.136719 233.726563 L 291.707031 215.507813 L 288.484375 209.625 L 286.574219 205.5625 L 285.601563 202.722656 L 284.945313 200.355469 L 283.847656 197.703125 L 281.550781 194.121094 L 277.414063 189.1875 L 271.058594 182.777344 L 262.433594 175.066406 L 251.863281 166.511719 L 240.027344 157.765625 L 227.871094 149.570313 L 216.503906 142.648438 L 207.019531 137.589844 L 200.351563 134.753906 L 197.136719 134.242188 L 197.617188 135.875 L 201.59375 139.246094 L 208.449219 143.777344 L 217.25 148.8125 L 226.871094 153.734375 L 236.160156 158.011719 L 244.113281 161.3125 L 250.035156 163.480469 L 253.609375 164.578125 L 254.972656 164.820313 L 254.664063 164.515625 L 253.546875 164.015625 L 252.652344 163.625 L 253.007813 163.546875 L 255.46875 163.871094 L 260.550781 164.542969 L 268.359375 165.40625 L 278.515625 166.234375 L 290.230469 166.785156 L 302.378906 166.871094 L 313.679688 166.378906 L 322.851563 165.308594 L 328.835938 163.773438 L 330.910156 161.984375 " transform="matrix(1,0,0,1,-66,-5)"/>
</g>
</svg>
