<?xml version="1.0" encoding="UTF-8"?>
<svg xmlns="http://www.w3.org/2000/svg" xmlns:xlink="http://www.w3.org/1999/xlink" width="360pt" height="360pt" viewBox="0 0 360 360" version="1.1">
<g id="surface24">
<path style="fill:none;stroke-width:3.6;stroke-linecap:square;stroke-linejoin:miter;stroke:rgb(99.998474%,50%,0%);stroke-opacity:1;stroke-miterlimit:3.25;" d="M 299.265625 51.832031 L 300.136719 51.328125 L 301 50.839844 L 302.710938 49.917969 L 303.558594 49.480469 L 304.398438 49.0625 L 306.050781 48.277344 L 306.867188 47.910156 L 307.675781 47.558594 L 309.261719 46.910156 L 310.039063 46.613281 L 310.804688 46.328125 L 312.308594 45.816406 L 313.042969 45.582031 L 313.769531 45.367188 L 314.480469 45.167969 L 315.175781 44.984375 L 315.863281 44.816406 L 316.535156 44.664063 L 317.195313 44.53125 L 317.839844 44.410156 L 318.46875 44.304688 L 319.085938 44.214844 L 319.6875 44.140625 L 320.269531 44.078125 L 320.839844 44.035156 L 321.394531 44.003906 L 321.933594 43.984375 L 322.457031 43.980469 L 322.960938 43.992188 L 323.449219 44.011719 L 323.917969 44.050781 L 324.371094 44.097656 L 324.804688 44.160156 L 325.222656 44.234375 L 325.621094 44.316406 L 326.003906 44.414063 L 326.363281 44.523438 L 326.707031 44.640625 L 327.03125 44.769531 L 327.335938 44.910156 L 327.621094 45.058594 L 327.886719 45.21875 L 328.132813 45.390625 L 328.355469 45.566406 L 328.5625 45.753906 L 328.746094 45.949219 L 328.914063 46.148438 L 329.058594 46.359375 L 329.183594 46.578125 L 329.285156 46.800781 L 329.367188 47.03125 L 329.429688 47.269531 L 329.472656 47.511719 L 329.492188 47.757813 L 329.492188 48.011719 L 329.472656 48.269531 L 329.429688 48.53125 L 329.367188 48.796875 L 329.285156 49.066406 L 329.179688 49.335938 L 329.042969 49.636719 L 328.882813 49.933594 L 328.695313 50.238281 L 328.488281 50.542969 L 328.253906 50.847656 L 327.996094 51.15625 L 327.714844 51.460938 L 327.410156 51.769531 L 327.082031 52.074219 L 326.730469 52.378906 L 326.355469 52.683594 L 325.957031 52.984375 L 325.535156 53.285156 L 325.089844 53.578125 L 324.136719 54.160156 L 323.628906 54.445313 L 323.097656 54.722656 L 321.972656 55.265625 L 321.378906 55.53125 L 320.765625 55.785156 L 319.480469 56.28125 L 318.808594 56.515625 L 318.117188 56.742188 L 317.410156 56.960938 L 316.683594 57.171875 L 315.9375 57.371094 L 315.175781 57.566406 L 313.605469 57.921875 L 312.796875 58.082031 L 311.972656 58.234375 L 311.132813 58.375 L 310.277344 58.503906 L 309.410156 58.625 L 308.53125 58.730469 L 307.636719 58.828125 L 306.734375 58.910156 L 305.816406 58.980469 L 304.886719 59.039063 L 303.949219 59.085938 L 303 59.121094 L 302.042969 59.140625 L 301.074219 59.148438 L 300.101563 59.140625 L 299.117188 59.121094 L 298.128906 59.089844 L 297.128906 59.042969 L 296.128906 58.984375 L 295.117188 58.910156 L 294.105469 58.824219 L 293.085938 58.722656 L 292.066406 58.609375 L 291.042969 58.480469 L 290.015625 58.335938 L 288.984375 58.183594 L 287.953125 58.011719 L 286.921875 57.828125 L 285.890625 57.632813 L 284.859375 57.421875 L 282.800781 56.960938 L 281.84375 56.726563 L 280.886719 56.484375 L 278.984375 55.960938 L 278.039063 55.679688 L 277.097656 55.390625 L 275.226563 54.78125 L 274.300781 54.460938 L 273.378906 54.128906 L 271.558594 53.4375 L 268.003906 51.9375 L 267.136719 51.542969 L 266.28125 51.136719 L 264.597656 50.300781 L 261.355469 48.542969 L 260.574219 48.089844 L 259.808594 47.625 L 258.308594 46.683594 L 255.472656 44.742188 L 254.800781 44.25 L 254.140625 43.75 L 252.871094 42.746094 L 252.257813 42.238281 L 251.660156 41.730469 L 250.515625 40.710938 L 249.96875 40.203125 L 249.4375 39.691406 L 248.425781 38.671875 L 246.609375 36.644531 L 246.199219 36.144531 L 245.804688 35.648438 L 245.074219 34.664063 L 244.734375 34.179688 L 244.414063 33.699219 L 243.828125 32.757813 L 243.5625 32.292969 L 243.316406 31.835938 L 243.085938 31.386719 L 242.875 30.945313 L 242.683594 30.511719 L 242.511719 30.082031 L 242.355469 29.664063 L 242.214844 29.257813 L 242.097656 28.867188 L 242 28.484375 L 241.914063 28.109375 L 241.847656 27.75 L 241.800781 27.398438 L 241.769531 27.058594 L 241.753906 26.726563 L 241.757813 26.410156 L 241.773438 26.105469 L 241.808594 25.8125 L 241.863281 25.53125 L 241.929688 25.261719 L 242.011719 25.007813 L 242.113281 24.769531 L 242.226563 24.542969 L 242.359375 24.328125 L 242.503906 24.132813 L 242.664063 23.949219 L 242.839844 23.78125 L 243.03125 23.628906 L 243.234375 23.492188 L 243.453125 23.371094 L 243.6875 23.269531 L 243.933594 23.179688 L 244.191406 23.109375 L 244.464844 23.054688 L 244.75 23.019531 L 245.046875 23 L 245.359375 23 L 245.679688 23.015625 L 246.015625 23.050781 L 246.359375 23.105469 L 246.714844 23.175781 L 247.082031 23.265625 L 247.457031 23.375 L 247.847656 23.503906 L 248.242188 23.652344 L 248.648438 23.820313 L 249.0625 24.003906 L 249.488281 24.210938 L 249.917969 24.4375 L 250.359375 24.679688 L 251.261719 25.230469 L 251.722656 25.535156 L 252.191406 25.859375 L 253.144531 26.570313 L 253.628906 26.953125 L 254.117188 27.359375 L 255.113281 28.226563 L 255.613281 28.691406 L 256.121094 29.179688 L 257.144531 30.207031 L 257.65625 30.753906 L 258.175781 31.316406 L 259.210938 32.507813 L 261.292969 35.117188 L 261.855469 35.878906 L 262.417969 36.660156 L 263.539063 38.292969 L 264.09375 39.140625 L 264.648438 40.007813 L 265.742188 41.8125 L 266.28125 42.742188 L 266.820313 43.695313 L 267.875 45.65625 L 269.914063 49.808594 L 270.402344 50.894531 L 270.886719 51.992188 L 271.828125 54.246094 L 272.285156 55.394531 L 272.730469 56.558594 L 273.597656 58.9375 L 274.015625 60.144531 L 274.421875 61.367188 L 275.203125 63.855469 L 275.578125 65.117188 L 275.9375 66.386719 L 276.628906 68.96875 L 276.953125 70.273438 L 277.265625 71.589844 L 277.855469 74.246094 L 278.128906 75.585938 L 278.390625 76.933594 L 278.871094 79.652344 L 279.09375 81.019531 L 279.300781 82.390625 L 279.496094 83.765625 L 279.675781 85.148438 L 279.839844 86.53125 L 279.992188 87.917969 L 280.132813 89.308594 L 280.253906 90.699219 L 280.367188 92.09375 L 280.460938 93.488281 L 280.542969 94.878906 L 280.613281 96.273438 L 280.667969 97.664063 L 280.710938 99.054688 L 280.738281 100.441406 L 280.75 101.824219 L 280.75 103.207031 L 280.738281 104.582031 L 280.710938 105.957031 L 280.671875 107.324219 L 280.621094 108.683594 L 280.554688 110.039063 L 280.476563 111.386719 L 280.386719 112.726563 L 280.292969 113.972656 L 280.1875 115.210938 L 280.070313 116.4375 L 279.945313 117.660156 L 279.808594 118.871094 L 279.664063 120.074219 L 279.347656 122.453125 L 279.175781 123.628906 L 278.992188 124.792969 L 278.605469 127.085938 L 278.398438 128.214844 L 278.1875 129.332031 L 277.738281 131.527344 L 277.503906 132.605469 L 277.261719 133.671875 L 276.761719 135.761719 L 276.503906 136.785156 L 276.242188 137.792969 L 275.699219 139.765625 L 275.421875 140.726563 L 275.144531 141.675781 L 274.570313 143.519531 L 273.402344 147.011719 L 273.105469 147.839844 L 272.804688 148.652344 L 272.210938 150.226563 L 271.027344 153.152344 L 268.78125 158.113281 L 268.519531 158.648438 L 268.265625 159.164063 L 267.769531 160.136719 L 266.867188 161.863281 L 265.484375 164.414063 L 265.347656 164.671875 L 265.226563 164.90625 L 265.117188 165.125 L 265.023438 165.316406 L 264.945313 165.492188 L 264.882813 165.648438 L 264.835938 165.785156 L 264.804688 165.898438 L 264.789063 165.996094 L 264.792969 166.078125 L 264.808594 166.136719 L 264.847656 166.179688 L 264.902344 166.203125 L 264.976563 166.210938 L 265.066406 166.199219 L 265.175781 166.175781 L 265.308594 166.132813 L 265.457031 166.074219 L 265.625 166 L 265.8125 165.910156 L 266.023438 165.804688 L 266.253906 165.6875 L 266.773438 165.410156 L 269.714844 163.824219 L 270.183594 163.578125 L 270.671875 163.324219 L 271.714844 162.796875 L 274.070313 161.652344 L 274.714844 161.351563 L 275.378906 161.046875 L 276.777344 160.429688 L 279.835938 159.15625 L 280.65625 158.832031 L 281.496094 158.511719 L 283.238281 157.863281 L 284.140625 157.542969 L 285.0625 157.222656 L 286.96875 156.589844 L 287.949219 156.277344 L 288.949219 155.96875 L 291.007813 155.363281 L 295.34375 154.210938 L 296.449219 153.941406 L 297.570313 153.679688 L 299.863281 153.179688 L 301.027344 152.9375 L 302.210938 152.707031 L 304.613281 152.269531 L 305.835938 152.066406 L 307.070313 151.871094 L 308.316406 151.683594 L 309.574219 151.507813 L 310.84375 151.34375 L 312.125 151.1875 L 313.414063 151.042969 L 314.714844 150.910156 L 316.023438 150.789063 L 317.34375 150.679688 L 318.667969 150.582031 L 320.003906 150.496094 L 321.34375 150.421875 L 322.691406 150.363281 L 324.042969 150.3125 L 325.402344 150.277344 L 326.765625 150.257813 L 328.136719 150.246094 L 329.507813 150.25 L 330.882813 150.265625 L 332.261719 150.296875 L 333.640625 150.339844 L 335.023438 150.398438 L 336.40625 150.46875 L 337.789063 150.554688 L 339.171875 150.652344 L 340.554688 150.765625 L 341.9375 150.890625 L 343.316406 151.03125 L 344.691406 151.183594 L 346.066406 151.351563 L 347.4375 151.53125 L 348.804688 151.726563 L 350.167969 151.933594 L 352.875 152.390625 L 354.21875 152.636719 L 355.558594 152.898438 L 358.210938 153.460938 L 359.523438 153.757813 L 360.828125 154.070313 L 363.410156 154.730469 L 364.683594 155.078125 L 365.949219 155.441406 L 368.441406 156.195313 L 369.667969 156.589844 L 370.882813 156.992188 L 373.269531 157.832031 L 377.867188 159.628906 L 378.902344 160.066406 L 379.921875 160.515625 L 381.921875 161.425781 L 385.730469 163.328125 L 386.640625 163.816406 L 387.535156 164.308594 L 389.273438 165.308594 L 392.539063 167.347656 L 393.308594 167.867188 L 394.0625 168.382813 L 395.507813 169.425781 L 396.203125 169.949219 L 396.878906 170.472656 L 398.171875 171.519531 L 398.789063 172.039063 L 399.386719 172.5625 L 400.519531 173.597656 L 402.550781 175.644531 L 403.007813 176.148438 L 403.441406 176.648438 L 404.253906 177.632813 L 404.628906 178.117188 L 404.984375 178.59375 L 405.636719 179.535156 L 405.929688 179.996094 L 406.203125 180.445313 L 406.460938 180.890625 L 406.695313 181.328125 L 406.910156 181.757813 L 407.105469 182.179688 L 407.28125 182.589844 L 407.4375 182.992188 L 407.574219 183.386719 L 407.691406 183.769531 L 407.789063 184.140625 L 407.867188 184.503906 L 407.929688 184.855469 L 407.96875 185.191406 L 407.996094 185.519531 L 408 185.835938 L 407.988281 186.140625 L 407.957031 186.433594 L 407.910156 186.710938 L 407.84375 186.976563 L 407.761719 187.226563 L 407.664063 187.46875 L 407.546875 187.691406 L 407.417969 187.902344 L 407.253906 188.113281 L 407.078125 188.308594 L 406.878906 188.484375 L 406.664063 188.644531 L 406.429688 188.785156 L 406.183594 188.90625 L 405.914063 189.011719 L 405.632813 189.097656 L 405.335938 189.164063 L 405.023438 189.210938 L 404.695313 189.238281 L 404.351563 189.246094 L 403.996094 189.234375 L 403.628906 189.199219 L 403.246094 189.148438 L 402.847656 189.074219 L 402.441406 188.980469 L 402.023438 188.867188 L 401.59375 188.734375 L 401.152344 188.578125 L 400.703125 188.402344 L 400.242188 188.207031 L 399.296875 187.75 L 398.808594 187.492188 L 398.316406 187.210938 L 397.308594 186.589844 L 396.796875 186.246094 L 396.277344 185.886719 L 395.226563 185.097656 L 394.695313 184.671875 L 394.160156 184.226563 L 393.078125 183.277344 L 392.535156 182.773438 L 391.992188 182.25 L 390.902344 181.140625 L 390.355469 180.558594 L 389.8125 179.957031 L 388.726563 178.699219 L 386.582031 175.972656 L 386.054688 175.246094 L 385.53125 174.507813 L 384.5 172.976563 L 383.992188 172.1875 L 383.492188 171.382813 L 382.507813 169.734375 L 382.027344 168.886719 L 381.550781 168.027344 L 380.628906 166.273438 L 378.890625 162.617188 L 378.507813 161.742188 L 378.136719 160.855469 L 377.414063 159.0625 L 377.066406 158.15625 L 376.730469 157.242188 L 376.089844 155.394531 L 375.785156 154.460938 L 375.488281 153.527344 L 374.933594 151.640625 L 374.671875 150.691406 L 374.417969 149.738281 L 373.949219 147.828125 L 373.734375 146.871094 L 373.527344 145.910156 L 373.335938 144.949219 L 373.152344 143.992188 L 372.984375 143.03125 L 372.824219 142.070313 L 372.679688 141.113281 L 372.546875 140.15625 L 372.421875 139.203125 L 372.3125 138.25 L 372.214844 137.300781 L 372.125 136.355469 L 372.050781 135.414063 L 371.988281 134.476563 L 371.9375 133.546875 L 371.898438 132.617188 L 371.871094 131.699219 L 371.855469 130.785156 L 371.851563 129.875 L 371.859375 128.976563 L 371.875 128.082031 L 371.90625 127.199219 L 371.945313 126.324219 L 372 125.457031 L 372.0625 124.601563 L 372.132813 123.753906 L 372.21875 122.914063 L 372.3125 122.089844 L 372.414063 121.273438 L 372.53125 120.472656 L 372.652344 119.679688 L 372.785156 118.902344 L 372.929688 118.136719 L 373.082031 117.382813 L 373.242188 116.644531 L 373.410156 115.917969 L 373.589844 115.207031 L 373.773438 114.511719 L 374.167969 113.164063 L 374.375 112.511719 L 374.589844 111.878906 L 375.042969 110.660156 L 375.277344 110.074219 L 375.515625 109.507813 L 376.011719 108.425781 L 376.261719 107.921875 L 376.519531 107.4375 L 377.039063 106.515625 L 377.304688 106.085938 L 377.574219 105.671875 L 378.121094 104.902344 L 378.394531 104.542969 L 378.671875 104.207031 L 378.949219 103.886719 L 379.230469 103.589844 L 379.511719 103.308594 L 379.789063 103.050781 L 380.070313 102.808594 L 380.347656 102.589844 L 380.628906 102.390625 L 380.90625 102.210938 L 381.179688 102.050781 L 381.453125 101.910156 L 381.726563 101.792969 L 381.992188 101.695313 L 382.257813 101.617188 L 382.519531 101.558594 L 382.777344 101.519531 L 383.03125 101.503906 L 383.28125 101.507813 L 383.527344 101.53125 L 383.765625 101.574219 L 384 101.640625 L 384.226563 101.726563 L 384.449219 101.832031 L 384.660156 101.957031 L 384.867188 102.101563 L 385.066406 102.265625 L 385.261719 102.449219 L 385.445313 102.65625 L 385.621094 102.878906 L 385.785156 103.125 L 385.941406 103.386719 L 386.089844 103.671875 L 386.230469 103.972656 L 386.359375 104.292969 L 386.476563 104.632813 L 386.582031 104.988281 L 386.679688 105.367188 L 386.761719 105.757813 L 386.835938 106.171875 L 386.898438 106.601563 L 386.945313 107.046875 L 386.984375 107.511719 L 387.007813 107.992188 L 387.015625 108.492188 L 387.015625 109.003906 L 387 109.535156 L 386.96875 110.082031 L 386.925781 110.644531 L 386.867188 111.222656 L 386.796875 111.8125 L 386.710938 112.421875 L 386.609375 113.042969 L 386.492188 113.675781 L 386.363281 114.328125 L 386.214844 114.988281 L 386.039063 115.722656 L 385.84375 116.46875 L 385.628906 117.234375 L 385.398438 118.011719 L 385.144531 118.800781 L 384.875 119.605469 L 384.277344 121.25 L 383.949219 122.089844 L 383.601563 122.941406 L 382.84375 124.675781 L 381.097656 128.253906 L 380.609375 129.167969 L 380.105469 130.089844 L 379.03125 131.957031 L 376.652344 135.746094 L 376.011719 136.707031 L 375.347656 137.667969 L 373.964844 139.59375 L 370.976563 143.464844 L 370.183594 144.433594 L 369.371094 145.398438 L 367.699219 147.328125 L 364.152344 151.148438 L 363.226563 152.09375 L 362.28125 153.03125 L 360.351563 154.898438 L 356.324219 158.546875 L 355.285156 159.441406 L 354.230469 160.328125 L 352.089844 162.074219 L 347.683594 165.449219 L 338.453125 171.675781 L 337.351563 172.347656 L 336.246094 173.011719 L 334.019531 174.304688 L 329.546875 176.746094 L 328.421875 177.328125 L 327.300781 177.894531 L 325.054688 178.992188 L 320.582031 181.039063 L 319.46875 181.519531 L 318.359375 181.984375 L 316.152344 182.878906 L 311.796875 184.515625 L 310.722656 184.894531 L 309.65625 185.257813 L 307.546875 185.953125 L 303.425781 187.191406 L 302.417969 187.472656 L 301.421875 187.742188 L 299.460938 188.242188 L 298.5 188.476563 L 297.546875 188.703125 L 295.683594 189.117188 L 294.773438 189.308594 L 293.875 189.488281 L 292.117188 189.824219 L 291.261719 189.976563 L 290.417969 190.117188 L 288.78125 190.378906 L 287.988281 190.496094 L 287.207031 190.605469 L 286.445313 190.707031 L 285.699219 190.796875 L 284.972656 190.882813 L 284.261719 190.964844 L 282.890625 191.101563 L 282.234375 191.160156 L 281.59375 191.214844 L 280.972656 191.261719 L 280.371094 191.304688 L 279.789063 191.34375 L 279.226563 191.378906 L 278.679688 191.410156 L 278.15625 191.433594 L 277.609375 191.460938 L 277.085938 191.480469 L 276.589844 191.496094 L 276.113281 191.511719 L 275.660156 191.527344 L 275.234375 191.539063 L 274.453125 191.558594 L 274.097656 191.566406 L 273.765625 191.574219 L 273.460938 191.585938 L 273.179688 191.597656 L 272.925781 191.609375 L 272.695313 191.625 L 272.488281 191.640625 L 272.304688 191.660156 L 272.148438 191.683594 L 272.015625 191.714844 L 271.90625 191.746094 L 271.824219 191.78125 L 271.765625 191.824219 L 271.730469 191.875 L 271.722656 191.929688 L 271.734375 191.992188 L 271.773438 192.058594 L 271.835938 192.136719 L 271.921875 192.222656 L 272.027344 192.316406 L 272.160156 192.417969 L 272.316406 192.53125 L 272.695313 192.785156 L 272.917969 192.925781 L 273.164063 193.078125 L 273.71875 193.421875 L 275.082031 194.257813 L 278.738281 196.597656 L 279.273438 196.960938 L 279.828125 197.339844 L 280.980469 198.144531 L 283.457031 199.960938 L 289.003906 204.4375 L 289.726563 205.066406 L 290.460938 205.710938 L 291.945313 207.058594 L 294.992188 209.960938 L 295.765625 210.730469 L 296.542969 211.519531 L 298.105469 213.144531 L 301.253906 216.597656 L 302.042969 217.503906 L 302.832031 218.421875 L 304.40625 220.3125 L 307.527344 224.273438 L 313.558594 232.878906 L 314.285156 234.007813 L 315.003906 235.152344 L 316.414063 237.472656 L 319.121094 242.234375 L 319.769531 243.449219 L 320.410156 244.671875 L 321.660156 247.136719 L 324.007813 252.144531 L 324.566406 253.410156 L 325.109375 254.679688 L 326.152344 257.230469 L 326.652344 258.507813 L 327.140625 259.792969 L 328.070313 262.359375 L 328.515625 263.644531 L 328.945313 264.929688 L 329.757813 267.5 L 331.199219 272.617188 L 331.5 273.804688 L 331.785156 274.984375 L 332.320313 277.339844 L 332.566406 278.507813 L 332.796875 279.671875 L 333.222656 281.980469 L 333.414063 283.125 L 333.589844 284.261719 L 333.753906 285.390625 L 333.90625 286.511719 L 334.042969 287.625 L 334.164063 288.730469 L 334.277344 289.828125 L 334.371094 290.910156 L 334.457031 291.988281 L 334.527344 293.050781 L 334.585938 294.105469 L 334.632813 295.148438 L 334.664063 296.179688 L 334.6875 297.199219 L 334.695313 298.207031 L 334.691406 299.199219 L 334.675781 300.179688 L 334.648438 301.144531 L 334.609375 302.097656 L 334.558594 303.039063 L 334.496094 303.960938 L 334.421875 304.871094 L 334.339844 305.761719 L 334.246094 306.640625 L 334.140625 307.5 L 334.027344 308.347656 L 333.902344 309.175781 L 333.769531 309.988281 L 333.628906 310.78125 L 333.476563 311.558594 L 333.148438 313.058594 L 332.96875 313.78125 L 332.785156 314.484375 L 332.59375 315.171875 L 332.394531 315.835938 L 332.1875 316.484375 L 331.976563 317.113281 L 331.53125 318.308594 L 331.300781 318.875 L 331.0625 319.421875 L 330.578125 320.457031 L 330.328125 320.945313 L 330.074219 321.410156 L 329.558594 322.277344 L 329.292969 322.679688 L 329.027344 323.058594 L 328.761719 323.421875 L 328.492188 323.757813 L 328.222656 324.074219 L 327.949219 324.371094 L 327.675781 324.644531 L 327.402344 324.894531 L 327.109375 325.144531 L 326.8125 325.371094 L 326.519531 325.566406 L 326.226563 325.742188 L 325.933594 325.886719 L 325.648438 326.011719 L 325.359375 326.109375 L 325.078125 326.179688 L 324.800781 326.226563 L 324.527344 326.25 L 324.257813 326.246094 L 323.992188 326.21875 L 323.734375 326.164063 L 323.480469 326.089844 L 323.234375 325.988281 L 322.996094 325.863281 L 322.761719 325.714844 L 322.539063 325.542969 L 322.320313 325.347656 L 322.113281 325.128906 L 321.914063 324.890625 L 321.726563 324.625 L 321.546875 324.339844 L 321.375 324.03125 L 321.214844 323.703125 L 321.066406 323.351563 L 320.929688 322.980469 L 320.804688 322.585938 L 320.691406 322.175781 L 320.589844 321.742188 L 320.5 321.289063 L 320.421875 320.820313 L 320.359375 320.328125 L 320.308594 319.820313 L 320.273438 319.292969 L 320.25 318.75 L 320.242188 318.191406 L 320.246094 317.613281 L 320.265625 317.019531 L 320.300781 316.410156 L 320.351563 315.785156 L 320.417969 315.148438 L 320.5 314.496094 L 320.59375 313.828125 L 320.707031 313.148438 L 320.835938 312.453125 L 320.980469 311.75 L 321.140625 311.03125 L 321.316406 310.304688 L 321.507813 309.566406 L 321.941406 308.058594 L 322.183594 307.292969 L 322.441406 306.515625 L 323.007813 304.941406 L 323.316406 304.144531 L 323.640625 303.339844 L 324.335938 301.714844 L 325.925781 298.410156 L 326.335938 297.632813 L 326.757813 296.855469 L 327.640625 295.292969 L 329.570313 292.167969 L 330.085938 291.390625 L 330.613281 290.613281 L 331.703125 289.066406 L 334.027344 286.015625 L 334.636719 285.261719 L 335.253906 284.515625 L 336.523438 283.035156 L 339.179688 280.15625 L 339.867188 279.457031 L 340.5625 278.761719 L 341.972656 277.402344 L 344.882813 274.789063 L 345.625 274.160156 L 346.375 273.542969 L 347.886719 272.339844 L 350.957031 270.070313 L 351.730469 269.53125 L 352.507813 269.007813 L 354.066406 267.996094 L 357.191406 266.125 L 357.972656 265.691406 L 358.75 265.273438 L 360.304688 264.472656 L 361.074219 264.097656 L 361.84375 263.730469 L 363.371094 263.046875 L 364.128906 262.726563 L 364.882813 262.417969 L 366.371094 261.847656 L 367.105469 261.582031 L 367.832031 261.332031 L 369.269531 260.878906 L 370.03125 260.652344 L 370.785156 260.449219 L 371.53125 260.257813 L 372.261719 260.085938 L 372.984375 259.929688 L 373.691406 259.789063 L 374.390625 259.664063 L 375.074219 259.554688 L 375.742188 259.464844 L 376.398438 259.390625 L 377.039063 259.328125 L 377.664063 259.285156 L 378.273438 259.253906 L 378.867188 259.242188 L 379.441406 259.242188 L 380 259.257813 L 380.542969 259.285156 L 381.066406 259.328125 L 381.570313 259.386719 L 382.058594 259.457031 L 382.523438 259.542969 L 382.972656 259.640625 L 383.398438 259.75 L 383.804688 259.871094 L 384.191406 260.003906 L 384.554688 260.148438 L 384.898438 260.304688 L 385.21875 260.472656 L 385.515625 260.652344 L 385.792969 260.839844 L 386.042969 261.035156 L 386.273438 261.242188 L 386.480469 261.460938 L 386.660156 261.683594 L 386.820313 261.917969 L 386.953125 262.15625 L 387.0625 262.402344 L 387.148438 262.65625 L 387.207031 262.917969 L 387.242188 263.183594 L 387.25 263.453125 L 387.234375 263.730469 L 387.195313 264.011719 L 387.128906 264.296875 L 387.035156 264.582031 L 386.917969 264.875 L 386.773438 265.167969 L 386.601563 265.464844 L 386.40625 265.761719 L 386.183594 266.058594 L 385.9375 266.359375 L 385.660156 266.660156 L 385.363281 266.957031 L 385.035156 267.253906 L 384.308594 267.847656 L 383.902344 268.140625 L 383.476563 268.429688 L 383.019531 268.71875 L 382.539063 269 L 382.035156 269.28125 L 381.503906 269.554688 L 380.371094 270.085938 L 379.777344 270.339844 L 379.160156 270.585938 L 378.523438 270.828125 L 377.859375 271.0625 L 377.171875 271.289063 L 376.464844 271.503906 L 374.984375 271.917969 L 374.210938 272.109375 L 373.414063 272.292969 L 372.601563 272.464844 L 371.765625 272.628906 L 370.90625 272.78125 L 370.03125 272.925781 L 369.132813 273.054688 L 368.21875 273.175781 L 367.285156 273.285156 L 366.332031 273.378906 L 365.359375 273.464844 L 364.371094 273.535156 L 363.367188 273.59375 L 362.34375 273.636719 L 361.304688 273.667969 L 360.25 273.6875 L 359.183594 273.691406 L 358.097656 273.683594 L 357 273.660156 L 355.886719 273.621094 L 354.757813 273.566406 L 353.617188 273.5 L 352.464844 273.417969 L 351.300781 273.316406 L 350.128906 273.203125 L 348.941406 273.078125 L 347.742188 272.933594 L 346.535156 272.773438 L 345.320313 272.597656 L 344.097656 272.40625 L 341.621094 271.976563 L 340.375 271.738281 L 339.117188 271.484375 L 336.59375 270.925781 L 335.320313 270.625 L 334.042969 270.308594 L 331.480469 269.625 L 330.195313 269.257813 L 328.910156 268.878906 L 326.328125 268.074219 L 325.035156 267.644531 L 323.746094 267.207031 L 321.164063 266.277344 L 319.878906 265.792969 L 318.589844 265.292969 L 316.027344 264.25 L 310.949219 262.007813 L 309.777344 261.453125 L 308.609375 260.890625 L 306.292969 259.730469 L 301.742188 257.296875 L 300.625 256.664063 L 299.515625 256.023438 L 297.324219 254.71875 L 293.050781 252.019531 L 292.007813 251.328125 L 290.980469 250.632813 L 288.949219 249.222656 L 285.039063 246.347656 L 277.84375 240.46875 L 277.003906 239.726563 L 276.183594 238.988281 L 274.582031 237.515625 L 271.558594 234.589844 L 270.839844 233.867188 L 270.136719 233.144531 L 268.777344 231.71875 L 266.246094 228.929688 L 265.652344 228.25 L 265.070313 227.574219 L 263.960938 226.25 L 261.917969 223.707031 L 258.550781 219.128906 L 258.164063 218.570313 L 257.796875 218.027344 L 257.105469 216.988281 L 255.90625 215.121094 L 255.640625 214.699219 L 255.394531 214.300781 L 254.9375 213.554688 L 254.175781 212.3125 L 254.015625 212.058594 L 253.867188 211.820313 L 253.601563 211.417969 L 253.484375 211.25 L 253.375 211.105469 L 253.277344 210.980469 L 253.1875 210.882813 L 253.105469 210.804688 L 253.035156 210.753906 L 252.96875 210.726563 L 252.910156 210.722656 L 252.855469 210.742188 L 252.808594 210.785156 L 252.769531 210.851563 L 252.734375 210.945313 L 252.703125 211.0625 L 252.675781 211.203125 L 252.65625 211.367188 L 252.636719 211.558594 L 252.621094 211.773438 L 252.605469 212.011719 L 252.59375 212.277344 L 252.582031 212.566406 L 252.574219 212.878906 L 252.5625 213.21875 L 252.546875 213.964844 L 252.535156 214.375 L 252.523438 214.8125 L 252.507813 215.269531 L 252.492188 215.75 L 252.476563 216.257813 L 252.453125 216.785156 L 252.425781 217.339844 L 252.398438 217.914063 L 252.363281 218.511719 L 252.324219 219.132813 L 252.277344 219.777344 L 252.226563 220.441406 L 252.171875 221.128906 L 252.105469 221.835938 L 252.035156 222.566406 L 251.957031 223.316406 L 251.871094 224.089844 L 251.777344 224.878906 L 251.5625 226.523438 L 251.449219 227.316406 L 251.328125 228.125 L 251.058594 229.789063 L 250.910156 230.648438 L 250.75 231.519531 L 250.40625 233.304688 L 250.214844 234.21875 L 250.019531 235.144531 L 249.585938 237.039063 L 248.59375 240.972656 L 248.316406 241.984375 L 248.027344 243.007813 L 247.410156 245.078125 L 246.03125 249.328125 L 245.65625 250.410156 L 245.265625 251.5 L 244.449219 253.691406 L 242.65625 258.140625 L 242.175781 259.265625 L 241.683594 260.390625 L 240.660156 262.648438 L 238.453125 267.175781 L 237.871094 268.308594 L 237.273438 269.441406 L 236.046875 271.703125 L 233.445313 276.191406 L 232.765625 277.304688 L 232.074219 278.414063 L 230.660156 280.617188 L 227.703125 284.949219 L 221.328125 293.234375 L 220.507813 294.207031 L 219.683594 295.167969 L 218.015625 297.058594 L 214.605469 300.699219 L 213.742188 301.578125 L 212.871094 302.445313 L 211.121094 304.136719 L 207.582031 307.355469 L 206.691406 308.125 L 205.800781 308.878906 L 204.011719 310.339844 L 200.4375 313.078125 L 199.546875 313.722656 L 198.660156 314.351563 L 196.886719 315.558594 L 193.382813 317.777344 L 192.515625 318.292969 L 191.652344 318.789063 L 189.949219 319.730469 L 189.105469 320.175781 L 188.265625 320.601563 L 186.613281 321.410156 L 185.800781 321.789063 L 184.992188 322.148438 L 183.40625 322.820313 L 182.625 323.128906 L 181.855469 323.425781 L 180.34375 323.964844 L 179.605469 324.207031 L 178.878906 324.4375 L 178.164063 324.648438 L 177.460938 324.84375 L 176.769531 325.027344 L 176.089844 325.191406 L 175.425781 325.339844 L 174.773438 325.472656 L 174.132813 325.59375 L 173.511719 325.695313 L 172.898438 325.785156 L 172.304688 325.859375 L 171.722656 325.917969 L 171.160156 325.964844 L 170.609375 325.996094 L 170.074219 326.011719 L 169.515625 326.015625 L 168.972656 326.003906 L 168.453125 325.976563 L 167.953125 325.933594 L 167.46875 325.878906 L 167.011719 325.808594 L 166.570313 325.722656 L 166.152344 325.625 L 165.757813 325.511719 L 165.382813 325.386719 L 165.027344 325.25 L 164.699219 325.101563 L 164.390625 324.941406 L 164.105469 324.769531 L 163.84375 324.589844 L 163.601563 324.394531 L 163.386719 324.195313 L 163.195313 323.980469 L 163.023438 323.761719 L 162.878906 323.53125 L 162.757813 323.292969 L 162.660156 323.046875 L 162.585938 322.796875 L 162.535156 322.535156 L 162.507813 322.269531 L 162.507813 322 L 162.527344 321.722656 L 162.574219 321.441406 L 162.644531 321.15625 L 162.738281 320.867188 L 162.859375 320.574219 L 163 320.277344 L 163.167969 319.976563 L 163.355469 319.675781 L 163.570313 319.375 L 163.808594 319.070313 L 164.070313 318.765625 L 164.355469 318.460938 L 164.996094 317.855469 L 165.347656 317.550781 L 165.726563 317.25 L 166.125 316.953125 L 166.546875 316.65625 L 166.992188 316.363281 L 167.457031 316.074219 L 168.453125 315.507813 L 168.984375 315.230469 L 169.535156 314.960938 L 170.699219 314.433594 L 171.308594 314.179688 L 171.9375 313.933594 L 173.257813 313.460938 L 173.941406 313.234375 L 174.648438 313.019531 L 175.371094 312.8125 L 176.109375 312.613281 L 176.863281 312.421875 L 177.636719 312.242188 L 179.230469 311.910156 L 179.992188 311.769531 L 180.769531 311.636719 L 181.554688 311.515625 L 182.355469 311.402344 L 183.167969 311.300781 L 183.988281 311.207031 L 184.820313 311.125 L 185.664063 311.054688 L 186.519531 310.992188 L 187.378906 310.941406 L 188.25 310.902344 L 189.132813 310.875 L 190.019531 310.855469 L 190.914063 310.851563 L 191.816406 310.855469 L 192.726563 310.871094 L 193.640625 310.898438 L 194.5625 310.9375 L 195.488281 310.988281 L 196.421875 311.050781 L 197.355469 311.125 L 198.296875 311.210938 L 199.242188 311.308594 L 200.1875 311.417969 L 201.136719 311.539063 L 202.085938 311.675781 L 203.039063 311.820313 L 203.992188 311.976563 L 204.949219 312.144531 L 205.902344 312.324219 L 207.8125 312.71875 L 208.765625 312.933594 L 209.714844 313.160156 L 211.609375 313.648438 L 212.554688 313.90625 L 213.496094 314.175781 L 215.363281 314.75 L 216.289063 315.054688 L 217.210938 315.367188 L 219.035156 316.023438 L 222.605469 317.449219 L 223.480469 317.828125 L 224.34375 318.21875 L 226.046875 319.019531 L 229.332031 320.714844 L 230.125 321.15625 L 230.90625 321.605469 L 232.433594 322.519531 L 235.335938 324.410156 L 236.085938 324.9375 L 236.820313 325.464844 L 238.234375 326.539063 L 238.914063 327.078125 L 239.578125 327.621094 L 240.851563 328.714844 L 241.457031 329.261719 L 242.046875 329.808594 L 243.167969 330.90625 L 245.167969 333.085938 L 245.621094 333.625 L 246.050781 334.160156 L 246.847656 335.21875 L 247.214844 335.742188 L 247.558594 336.257813 L 248.191406 337.273438 L 248.472656 337.769531 L 248.734375 338.261719 L 248.976563 338.742188 L 249.195313 339.214844 L 249.394531 339.675781 L 249.574219 340.132813 L 249.730469 340.574219 L 249.867188 341.007813 L 249.980469 341.429688 L 250.074219 341.839844 L 250.148438 342.238281 L 250.203125 342.621094 L 250.234375 342.992188 L 250.246094 343.351563 L 250.238281 343.695313 L 250.210938 344.027344 L 250.164063 344.339844 L 250.097656 344.640625 L 250.011719 344.921875 L 249.90625 345.191406 L 249.78125 345.441406 L 249.636719 345.671875 L 249.476563 345.890625 L 249.296875 346.085938 L 249.101563 346.265625 L 248.886719 346.425781 L 248.65625 346.566406 L 248.40625 346.691406 L 248.144531 346.792969 L 247.863281 346.875 L 247.566406 346.9375 L 247.253906 346.976563 L 246.925781 346.996094 L 246.585938 346.996094 L 246.230469 346.972656 L 245.859375 346.929688 L 245.476563 346.859375 L 245.082031 346.773438 L 244.671875 346.660156 L 244.25 346.527344 L 243.824219 346.371094 L 243.390625 346.195313 L 242.945313 345.996094 L 242.488281 345.773438 L 242.023438 345.53125 L 241.546875 345.261719 L 240.574219 344.660156 L 240.074219 344.324219 L 239.566406 343.964844 L 238.535156 343.175781 L 238.007813 342.746094 L 237.476563 342.292969 L 236.402344 341.320313 L 235.855469 340.796875 L 235.308594 340.25 L 234.203125 339.09375 L 233.644531 338.476563 L 233.085938 337.839844 L 231.96875 336.5 L 231.410156 335.792969 L 230.847656 335.066406 L 229.730469 333.546875 L 227.515625 330.25 L 226.972656 329.371094 L 226.429688 328.476563 L 225.359375 326.621094 L 224.828125 325.664063 L 224.304688 324.6875 L 223.277344 322.675781 L 222.773438 321.644531 L 222.277344 320.59375 L 221.304688 318.441406 L 219.457031 313.9375 L 219.019531 312.773438 L 218.589844 311.59375 L 217.761719 309.191406 L 217.367188 307.972656 L 216.976563 306.738281 L 216.238281 304.238281 L 215.882813 302.96875 L 215.542969 301.6875 L 214.894531 299.097656 L 214.589844 297.789063 L 214.300781 296.472656 L 213.753906 293.816406 L 213.515625 292.566406 L 213.292969 291.308594 L 213.078125 290.046875 L 212.875 288.78125 L 212.683594 287.511719 L 212.507813 286.238281 L 212.183594 283.679688 L 212.039063 282.398438 L 211.910156 281.113281 L 211.789063 279.824219 L 211.683594 278.535156 L 211.585938 277.246094 L 211.503906 275.957031 L 211.429688 274.671875 L 211.371094 273.382813 L 211.324219 272.09375 L 211.289063 270.808594 L 211.261719 269.527344 L 211.25 268.246094 L 211.25 266.96875 L 211.257813 265.691406 L 211.28125 264.421875 L 211.3125 263.15625 L 211.355469 261.894531 L 211.410156 260.636719 L 211.476563 259.386719 L 211.550781 258.140625 L 211.640625 256.902344 L 211.734375 255.671875 L 211.84375 254.449219 L 211.960938 253.230469 L 212.089844 252.023438 L 212.226563 250.824219 L 212.371094 249.632813 L 212.527344 248.449219 L 212.691406 247.28125 L 212.863281 246.117188 L 213.234375 243.828125 L 213.433594 242.699219 L 213.636719 241.582031 L 214.070313 239.382813 L 215.015625 235.136719 L 215.269531 234.113281 L 215.523438 233.097656 L 216.050781 231.117188 L 217.160156 227.335938 L 217.441406 226.429688 L 217.730469 225.539063 L 218.3125 223.8125 L 219.488281 220.554688 L 219.808594 219.722656 L 220.128906 218.90625 L 220.765625 217.34375 L 222.007813 214.46875 L 224.277344 209.769531 L 224.527344 209.28125 L 224.773438 208.8125 L 225.234375 207.945313 L 226.035156 206.464844 L 226.210938 206.148438 L 226.371094 205.851563 L 226.652344 205.324219 L 226.773438 205.089844 L 226.878906 204.875 L 226.972656 204.679688 L 227.050781 204.507813 L 227.113281 204.351563 L 227.164063 204.21875 L 227.195313 204.101563 L 227.210938 204.003906 L 227.210938 203.925781 L 227.191406 203.863281 L 227.15625 203.820313 L 227.101563 203.796875 L 227.03125 203.785156 L 226.945313 203.792969 L 226.835938 203.820313 L 226.710938 203.859375 L 226.5625 203.914063 L 226.398438 203.988281 L 226.011719 204.175781 L 225.785156 204.289063 L 225.539063 204.417969 L 224.988281 204.714844 L 223.632813 205.453125 L 219.886719 207.398438 L 219.359375 207.660156 L 218.8125 207.925781 L 217.660156 208.472656 L 215.128906 209.609375 L 214.449219 209.902344 L 213.75 210.195313 L 212.296875 210.789063 L 209.171875 211.984375 L 208.347656 212.28125 L 207.503906 212.578125 L 205.765625 213.167969 L 204.867188 213.460938 L 203.957031 213.75 L 202.085938 214.316406 L 201.125 214.597656 L 200.148438 214.871094 L 198.152344 215.410156 L 193.976563 216.417969 L 192.898438 216.65625 L 191.808594 216.886719 L 189.585938 217.328125 L 188.457031 217.539063 L 187.316406 217.738281 L 185 218.117188 L 183.824219 218.292969 L 182.640625 218.460938 L 181.445313 218.617188 L 180.238281 218.765625 L 179.023438 218.90625 L 177.800781 219.035156 L 176.570313 219.152344 L 175.332031 219.261719 L 174.085938 219.359375 L 172.832031 219.449219 L 171.570313 219.523438 L 170.304688 219.589844 L 169.03125 219.644531 L 167.753906 219.6875 L 166.472656 219.722656 L 165.183594 219.742188 L 163.894531 219.75 L 162.601563 219.746094 L 161.304688 219.734375 L 160.003906 219.707031 L 158.703125 219.667969 L 157.398438 219.617188 L 156.09375 219.554688 L 154.789063 219.480469 L 153.511719 219.394531 L 152.234375 219.296875 L 150.953125 219.1875 L 149.675781 219.070313 L 148.402344 218.9375 L 147.128906 218.792969 L 144.589844 218.46875 L 143.328125 218.289063 L 142.066406 218.101563 L 139.5625 217.683594 L 138.316406 217.460938 L 137.074219 217.222656 L 134.613281 216.71875 L 133.394531 216.449219 L 132.183594 216.167969 L 129.78125 215.578125 L 128.59375 215.265625 L 127.414063 214.945313 L 125.082031 214.269531 L 123.933594 213.917969 L 122.796875 213.558594 L 120.550781 212.808594 L 116.207031 211.207031 L 115.152344 210.789063 L 114.113281 210.359375 L 112.074219 209.480469 L 108.171875 207.644531 L 107.234375 207.171875 L 106.316406 206.695313 L 104.523438 205.722656 L 101.140625 203.726563 L 100.335938 203.21875 L 99.554688 202.710938 L 98.039063 201.683594 L 95.234375 199.613281 L 94.582031 199.097656 L 93.945313 198.578125 L 92.734375 197.542969 L 90.546875 195.492188 L 90.007813 194.941406 L 89.492188 194.398438 L 88.53125 193.320313 L 88.085938 192.789063 L 87.664063 192.261719 L 86.890625 191.230469 L 86.539063 190.722656 L 86.210938 190.222656 L 85.90625 189.734375 L 85.621094 189.253906 L 85.363281 188.777344 L 85.128906 188.316406 L 84.914063 187.863281 L 84.726563 187.417969 L 84.558594 186.984375 L 84.410156 186.5625 L 84.289063 186.152344 L 84.1875 185.757813 L 84.109375 185.371094 L 84.050781 184.996094 L 84.015625 184.636719 L 84 184.292969 L 84.007813 183.960938 L 84.03125 183.644531 L 84.078125 183.339844 L 84.144531 183.050781 L 84.234375 182.78125 L 84.339844 182.523438 L 84.464844 182.28125 L 84.609375 182.058594 L 84.769531 181.851563 L 84.953125 181.660156 L 85.148438 181.488281 L 85.367188 181.332031 L 85.597656 181.195313 L 85.847656 181.074219 L 86.113281 180.976563 L 86.394531 180.890625 L 86.691406 180.828125 L 87.003906 180.785156 L 87.332031 180.757813 L 87.671875 180.753906 L 88.023438 180.765625 L 88.394531 180.800781 L 88.773438 180.851563 L 89.164063 180.925781 L 89.570313 181.019531 L 89.984375 181.132813 L 90.410156 181.265625 L 90.847656 181.417969 L 91.296875 181.59375 L 91.753906 181.789063 L 92.691406 182.238281 L 93.171875 182.496094 L 93.660156 182.773438 L 94.660156 183.386719 L 95.167969 183.726563 L 95.683594 184.085938 L 96.726563 184.863281 L 97.21875 185.253906 L 97.710938 185.660156 L 98.710938 186.527344 L 99.210938 186.988281 L 99.714844 187.464844 L 100.722656 188.46875 L 101.226563 188.992188 L 101.734375 189.535156 L 102.738281 190.667969 L 104.734375 193.121094 L 105.230469 193.769531 L 105.71875 194.433594 L 106.6875 195.804688 L 108.570313 198.710938 L 109.027344 199.46875 L 109.480469 200.238281 L 110.363281 201.816406 L 112.050781 205.097656 L 112.453125 205.941406 L 112.847656 206.796875 L 113.609375 208.53125 L 113.976563 209.414063 L 114.335938 210.300781 L 115.027344 212.097656 L 115.359375 213.003906 L 115.679688 213.917969 L 116.289063 215.765625 L 116.578125 216.695313 L 116.859375 217.628906 L 117.382813 219.507813 L 117.628906 220.449219 L 117.867188 221.398438 L 118.300781 223.296875 L 118.503906 224.246094 L 118.695313 225.199219 L 119.039063 227.101563 L 119.195313 228.054688 L 119.339844 229.003906 L 119.46875 229.953125 L 119.589844 230.898438 L 119.699219 231.84375 L 119.792969 232.78125 L 119.878906 233.71875 L 119.953125 234.652344 L 120.019531 235.660156 L 120.070313 236.660156 L 120.109375 237.652344 L 120.136719 238.640625 L 120.148438 239.621094 L 120.144531 240.589844 L 120.132813 241.554688 L 120.105469 242.507813 L 120.0625 243.453125 L 120.011719 244.386719 L 119.945313 245.308594 L 119.867188 246.21875 L 119.777344 247.117188 L 119.675781 248.003906 L 119.5625 248.878906 L 119.4375 249.738281 L 119.300781 250.585938 L 119.15625 251.417969 L 118.996094 252.234375 L 118.828125 253.035156 L 118.652344 253.820313 L 118.464844 254.589844 L 118.058594 256.078125 L 117.84375 256.796875 L 117.621094 257.496094 L 117.386719 258.175781 L 117.148438 258.835938 L 116.902344 259.480469 L 116.648438 260.101563 L 116.121094 261.289063 L 115.847656 261.851563 L 115.570313 262.390625 L 115.289063 262.910156 L 115.003906 263.410156 L 114.710938 263.882813 L 114.417969 264.339844 L 113.820313 265.179688 L 113.515625 265.5625 L 113.210938 265.925781 L 112.90625 266.265625 L 112.597656 266.582031 L 112.292969 266.875 L 111.984375 267.140625 L 111.679688 267.386719 L 111.375 267.605469 L 111.070313 267.800781 L 110.769531 267.972656 L 110.46875 268.121094 L 110.171875 268.246094 L 109.878906 268.34375 L 109.589844 268.417969 L 109.304688 268.464844 L 109.027344 268.492188 L 108.75 268.492188 L 108.484375 268.46875 L 108.222656 268.417969 L 107.964844 268.34375 L 107.71875 268.246094 L 107.476563 268.125 L 107.246094 267.980469 L 107.023438 267.808594 L 106.824219 267.628906 L 106.632813 267.429688 L 106.449219 267.207031 L 106.273438 266.964844 L 106.109375 266.703125 L 105.957031 266.417969 L 105.8125 266.117188 L 105.675781 265.792969 L 105.554688 265.453125 L 105.441406 265.089844 L 105.339844 264.710938 L 105.25 264.308594 L 105.175781 263.890625 L 105.109375 263.453125 L 105.058594 263 L 105.019531 262.523438 L 104.996094 262.035156 L 104.984375 261.523438 L 104.984375 261 L 105 260.457031 L 105.03125 259.894531 L 105.078125 259.320313 L 105.136719 258.730469 L 105.210938 258.121094 L 105.300781 257.496094 L 105.40625 256.859375 L 105.527344 256.207031 L 105.664063 255.539063 L 105.820313 254.859375 L 105.988281 254.164063 L 106.378906 252.738281 L 106.597656 252.003906 L 106.832031 251.257813 L 107.355469 249.734375 L 107.644531 248.953125 L 107.949219 248.164063 L 108.613281 246.554688 L 108.96875 245.738281 L 109.34375 244.910156 L 110.144531 243.230469 L 111.960938 239.785156 L 112.460938 238.90625 L 112.976563 238.023438 L 114.0625 236.246094 L 116.4375 232.640625 L 117.074219 231.730469 L 117.730469 230.820313 L 119.085938 228.996094 L 122 225.34375 L 122.753906 224.453125 L 123.519531 223.558594 L 125.097656 221.78125 L 128.425781 218.257813 L 129.292969 217.386719 L 130.171875 216.519531 L 131.96875 214.796875 L 135.703125 211.425781 L 136.664063 210.597656 L 137.636719 209.777344 L 139.613281 208.160156 L 143.675781 205.019531 L 152.164063 199.1875 L 153.253906 198.503906 L 154.34375 197.832031 L 156.539063 196.523438 L 160.964844 194.039063 L 162.078125 193.449219 L 163.191406 192.867188 L 165.414063 191.746094 L 169.859375 189.648438 L 170.964844 189.15625 L 172.070313 188.675781 L 174.269531 187.753906 L 178.617188 186.058594 L 179.691406 185.664063 L 180.757813 185.285156 L 182.875 184.558594 L 187.011719 183.257813 L 188.109375 182.9375 L 189.195313 182.632813 L 191.332031 182.058594 L 192.382813 181.792969 L 193.421875 181.539063 L 195.453125 181.070313 L 196.445313 180.851563 L 197.425781 180.648438 L 199.335938 180.273438 L 200.265625 180.105469 L 201.175781 179.945313 L 202.953125 179.660156 L 203.8125 179.53125 L 204.652344 179.410156 L 205.476563 179.300781 L 206.277344 179.203125 L 207.0625 179.109375 L 207.824219 179.023438 L 209.289063 178.878906 L 209.988281 178.816406 L 210.667969 178.761719 L 211.328125 178.710938 L 211.964844 178.667969 L 212.578125 178.628906 L 213.167969 178.597656 L 213.738281 178.566406 L 214.285156 178.542969 L 214.808594 178.519531 L 215.308594 178.503906 L 215.785156 178.488281 L 216.238281 178.472656 L 216.667969 178.460938 L 217.074219 178.453125 L 217.8125 178.433594 L 218.148438 178.425781 L 218.457031 178.414063 L 218.742188 178.402344 L 219.003906 178.390625 L 219.238281 178.378906 L 219.453125 178.363281 L 219.640625 178.34375 L 219.804688 178.320313 L 219.941406 178.292969 L 220.058594 178.261719 L 220.148438 178.226563 L 220.214844 178.1875 L 220.257813 178.140625 L 220.277344 178.089844 L 220.273438 178.03125 L 220.246094 177.964844 L 220.191406 177.890625 L 220.117188 177.808594 L 220.019531 177.722656 L 219.898438 177.625 L 219.753906 177.515625 L 219.585938 177.398438 L 219.183594 177.136719 L 218.96875 177 L 218.730469 176.851563 L 218.203125 176.527344 L 216.933594 175.75 L 213.59375 173.621094 L 213.109375 173.292969 L 212.609375 172.957031 L 211.566406 172.238281 L 209.328125 170.625 L 204.320313 166.683594 L 203.652344 166.121094 L 202.976563 165.542969 L 201.601563 164.339844 L 198.777344 161.746094 L 198.058594 161.058594 L 197.335938 160.355469 L 195.878906 158.90625 L 192.925781 155.816406 L 192.183594 155.007813 L 191.441406 154.183594 L 189.953125 152.492188 L 186.984375 148.933594 L 181.167969 141.179688 L 180.402344 140.070313 L 179.640625 138.945313 L 178.140625 136.65625 L 175.242188 131.9375 L 174.539063 130.730469 L 173.847656 129.515625 L 172.496094 127.050781 L 169.929688 122.023438 L 169.320313 120.75 L 168.722656 119.46875 L 167.566406 116.890625 L 167.007813 115.59375 L 166.464844 114.292969 L 165.421875 111.679688 L 164.921875 110.371094 L 164.4375 109.058594 L 163.511719 106.433594 L 161.847656 101.179688 L 161.472656 99.871094 L 161.113281 98.566406 L 160.441406 95.964844 L 160.132813 94.667969 L 159.839844 93.378906 L 159.296875 90.816406 L 159.054688 89.546875 L 158.824219 88.285156 L 158.613281 87.027344 L 158.417969 85.78125 L 158.238281 84.542969 L 158.074219 83.3125 L 157.925781 82.097656 L 157.796875 80.886719 L 157.679688 79.691406 L 157.582031 78.507813 L 157.496094 77.335938 L 157.429688 76.175781 L 157.375 75.03125 L 157.335938 73.898438 L 157.3125 72.785156 L 157.304688 71.679688 L 157.3125 70.59375 L 157.332031 69.523438 L 157.367188 68.46875 L 157.414063 67.433594 L 157.476563 66.414063 L 157.554688 65.410156 L 157.640625 64.429688 L 157.742188 63.464844 L 157.851563 62.535156 L 157.976563 61.625 L 158.109375 60.734375 L 158.253906 59.867188 L 158.410156 59.015625 L 158.578125 58.183594 L 158.9375 56.585938 L 159.132813 55.820313 L 159.335938 55.074219 L 159.546875 54.351563 L 159.769531 53.648438 L 159.996094 52.96875 L 160.230469 52.3125 L 160.722656 51.070313 L 160.976563 50.484375 L 161.234375 49.921875 L 161.5 49.382813 L 161.769531 48.867188 L 162.046875 48.375 L 162.324219 47.910156 L 162.890625 47.050781 L 163.175781 46.65625 L 163.46875 46.289063 L 163.757813 45.945313 L 164.050781 45.625 L 164.34375 45.332031 L 164.636719 45.0625 L 164.929688 44.820313 L 165.222656 44.601563 L 165.515625 44.40625 L 165.804688 44.238281 L 166.09375 44.09375 L 166.378906 43.976563 L 166.664063 43.882813 L 166.941406 43.8125 L 167.21875 43.769531 L 167.488281 43.75 L 167.757813 43.753906 L 168.019531 43.78125 L 168.277344 43.832031 L 168.527344 43.910156 L 168.769531 44.011719 L 169.007813 44.132813 L 169.238281 44.28125 L 169.460938 44.453125 L 169.675781 44.644531 L 169.882813 44.863281 L 170.078125 45.101563 L 170.269531 45.363281 L 170.445313 45.644531 L 170.617188 45.949219 L 170.773438 46.273438 L 170.921875 46.621094 L 171.058594 46.988281 L 171.183594 47.375 L 171.300781 47.78125 L 171.402344 48.210938 L 171.492188 48.65625 L 171.570313 49.121094 L 171.632813 49.605469 L 171.683594 50.109375 L 171.722656 50.589844 L 171.746094 51.089844 L 171.757813 51.605469 L 171.757813 52.132813 L 171.746094 52.675781 L 171.71875 53.230469 L 171.683594 53.800781 L 171.632813 54.382813 L 171.566406 54.976563 L 171.492188 55.582031 L 171.398438 56.199219 L 171.296875 56.828125 L 171.179688 57.46875 L 171.046875 58.121094 L 170.746094 59.453125 L 170.570313 60.132813 L 170.386719 60.820313 L 169.96875 62.222656 L 169.742188 62.9375 L 169.5 63.65625 L 168.96875 65.113281 L 168.683594 65.851563 L 168.386719 66.597656 L 167.746094 68.101563 L 166.296875 71.152344 L 165.898438 71.921875 L 165.488281 72.691406 L 164.625 74.238281 L 162.746094 77.335938 L 162.242188 78.109375 L 161.730469 78.878906 L 160.664063 80.417969 L 158.390625 83.453125 L 157.796875 84.203125 L 157.1875 84.949219 L 155.945313 86.421875 L 153.339844 89.296875 L 152.667969 89.996094 L 151.984375 90.691406 L 150.597656 92.054688 L 147.734375 94.675781 L 146.941406 95.359375 L 146.140625 96.03125 L 144.519531 97.339844 L 141.226563 99.796875 L 140.394531 100.378906 L 139.558594 100.945313 L 137.882813 102.035156 L 134.523438 104.03125 L 133.6875 104.488281 L 132.851563 104.933594 L 131.183594 105.773438 L 130.355469 106.171875 L 129.53125 106.550781 L 127.898438 107.261719 L 127.089844 107.589844 L 126.289063 107.902344 L 124.703125 108.480469 L 123.921875 108.746094 L 123.152344 108.992188 L 121.632813 109.4375 L 120.890625 109.632813 L 120.15625 109.816406 L 119.433594 109.980469 L 118.722656 110.128906 L 118.027344 110.261719 L 117.339844 110.378906 L 116.667969 110.476563 L 116.007813 110.5625 L 115.363281 110.632813 L 114.734375 110.6875 L 114.121094 110.726563 L 113.519531 110.75 L 112.9375 110.757813 L 112.371094 110.753906 L 111.824219 110.734375 L 111.289063 110.699219 L 110.777344 110.652344 L 110.28125 110.589844 L 109.804688 110.515625 L 109.347656 110.429688 L 108.910156 110.328125 L 108.492188 110.21875 L 108.09375 110.09375 L 107.714844 109.957031 L 107.359375 109.8125 L 107.027344 109.652344 L 106.710938 109.484375 L 106.421875 109.304688 L 106.152344 109.117188 L 105.90625 108.917969 L 105.683594 108.710938 L 105.484375 108.496094 L 105.320313 108.289063 L 105.175781 108.070313 L 105.050781 107.851563 L 104.949219 107.621094 L 104.867188 107.386719 L 104.804688 107.148438 L 104.765625 106.902344 L 104.75 106.652344 L 104.753906 106.398438 L 104.78125 106.140625 L 104.828125 105.878906 L 104.898438 105.617188 L 104.988281 105.347656 L 105.105469 105.078125 L 105.238281 104.804688 L 105.398438 104.53125 L 105.578125 104.257813 L 105.78125 103.980469 L 106.007813 103.703125 L 106.253906 103.425781 L 106.523438 103.148438 L 106.816406 102.871094 L 107.46875 102.324219 L 107.828125 102.050781 L 108.207031 101.78125 L 108.609375 101.511719 L 109.035156 101.246094 L 109.480469 100.984375 L 109.949219 100.726563 L 110.949219 100.222656 L 111.480469 99.976563 L 112.035156 99.734375 L 112.609375 99.5 L 113.203125 99.269531 L 113.816406 99.046875 L 114.453125 98.832031 L 115.785156 98.417969 L 116.480469 98.222656 L 117.195313 98.035156 L 117.929688 97.855469 L 118.679688 97.683594 L 119.453125 97.519531 L 120.242188 97.367188 L 121.050781 97.222656 L 121.875 97.085938 L 122.71875 96.960938 L 123.578125 96.847656 L 124.457031 96.742188 L 125.347656 96.648438 L 126.257813 96.566406 L 127.183594 96.492188 L 128.125 96.433594 L 129.082031 96.382813 L 130.050781 96.34375 L 131.039063 96.320313 L 132.035156 96.304688 L 133.050781 96.304688 L 134.074219 96.316406 L 135.113281 96.339844 L 136.164063 96.378906 L 137.226563 96.429688 L 138.28125 96.492188 L 139.34375 96.566406 L 140.417969 96.652344 L 141.503906 96.753906 L 142.597656 96.867188 L 143.699219 96.996094 L 144.8125 97.136719 L 145.929688 97.289063 L 147.058594 97.457031 L 148.195313 97.636719 L 150.484375 98.039063 L 151.636719 98.261719 L 152.796875 98.496094 L 155.132813 99.007813 L 156.308594 99.28125 L 157.488281 99.570313 L 159.855469 100.191406 L 161.042969 100.519531 L 162.230469 100.863281 L 164.617188 101.585938 L 165.808594 101.96875 L 167.003906 102.363281 L 169.390625 103.191406 L 174.152344 105 L 175.339844 105.484375 L 176.523438 105.976563 L 178.875 107 L 183.53125 109.175781 L 184.679688 109.746094 L 185.824219 110.328125 L 188.09375 111.519531 L 192.542969 114.007813 L 193.632813 114.652344 L 194.714844 115.300781 L 196.851563 116.625 L 201.003906 119.351563 L 208.757813 125.042969 L 209.75 125.832031 L 210.726563 126.625 L 212.628906 128.210938 L 216.234375 131.390625 L 217.097656 132.183594 L 217.9375 132.972656 L 219.574219 134.546875 L 222.628906 137.652344 L 223.351563 138.417969 L 224.054688 139.175781 L 225.402344 140.671875 L 227.890625 143.566406 L 232.019531 148.859375 L 232.457031 149.464844 L 232.878906 150.058594 L 233.675781 151.195313 L 235.074219 153.285156 L 237.167969 156.609375 L 237.367188 156.9375 L 237.558594 157.246094 L 237.898438 157.800781 L 238.050781 158.046875 L 238.195313 158.269531 L 238.449219 158.652344 L 238.5625 158.8125 L 238.664063 158.945313 L 238.757813 159.058594 L 238.84375 159.148438 L 238.921875 159.214844 L 238.992188 159.257813 L 239.054688 159.277344 L 239.109375 159.273438 L 239.15625 159.246094 L 239.199219 159.199219 L 239.234375 159.132813 L 239.265625 159.046875 L 239.296875 158.9375 L 239.320313 158.808594 L 239.339844 158.65625 L 239.359375 158.484375 L 239.375 158.292969 L 239.390625 158.078125 L 239.402344 157.84375 L 239.410156 157.589844 L 239.421875 157.3125 L 239.429688 157.011719 L 239.4375 156.695313 L 239.445313 156.355469 L 239.457031 155.992188 L 239.464844 155.613281 L 239.476563 155.210938 L 239.488281 154.789063 L 239.503906 154.347656 L 239.519531 153.882813 L 239.539063 153.398438 L 239.5625 152.898438 L 239.585938 152.375 L 239.617188 151.832031 L 239.648438 151.269531 L 239.6875 150.6875 L 239.730469 150.089844 L 239.777344 149.46875 L 239.890625 148.175781 L 239.957031 147.5 L 240.027344 146.808594 L 240.191406 145.371094 L 240.285156 144.628906 L 240.382813 143.867188 L 240.609375 142.296875 L 240.734375 141.484375 L 240.867188 140.660156 L 241.160156 138.964844 L 241.320313 138.09375 L 241.492188 137.207031 L 241.863281 135.398438 L 242.066406 134.472656 L 242.277344 133.535156 L 242.734375 131.621094 L 242.980469 130.648438 L 243.234375 129.664063 L 243.78125 127.660156 L 244.074219 126.644531 L 244.375 125.621094 L 245.019531 123.542969 L 246.449219 119.289063 L 246.886719 118.082031 L 247.339844 116.867188 L 248.289063 114.421875 L 250.378906 109.460938 L 250.941406 108.214844 L 251.523438 106.964844 L 252.726563 104.457031 L 255.320313 99.445313 L 256.007813 98.195313 L 256.710938 96.949219 L 258.15625 94.464844 L 261.222656 89.558594 L 262.023438 88.347656 L 262.835938 87.144531 L 264.5 84.765625 L 267.964844 80.121094 L 268.859375 78.984375 L 269.765625 77.863281 L 271.605469 75.65625 L 275.382813 71.410156 L 276.347656 70.386719 L 277.316406 69.378906 L 279.277344 67.40625 L 283.25 63.675781 L 284.253906 62.785156 L 285.257813 61.917969 L 287.273438 60.234375 L 291.308594 57.105469 L 292.3125 56.375 L 293.316406 55.660156 L 295.316406 54.300781 L 296.3125 53.652344 L 297.300781 53.023438 L 298.285156 52.417969 L 299.265625 51.832031 " transform="matrix(1,0,0,1,-66,-5)"/>
</g>
</svg>
