<?xml version="1.0" encoding="UTF-8"?>
<svg xmlns="http://www.w3.org/2000/svg" xmlns:xlink="http://www.w3.org/1999/xlink" width="360pt" height="360pt" viewBox="0 0 360 360" version="1.1">
<g id="surface32">
<path style="fill:none;stroke-width:3.6;stroke-linecap:square;stroke-linejoin:miter;stroke:rgb(99.998474%,50%,0%);stroke-opacity:1;stroke-miterlimit:3.25;" d="M 408 184.980469 L 407.625 181.863281 L 406.511719 178.789063 L 404.695313 175.792969 L 402.238281 172.910156 L 399.222656 170.167969 L 395.746094 167.585938 L 391.925781 165.171875 L 387.882813 162.929688 L 383.746094 160.84375 L 379.648438 158.898438 L 375.710938 157.0625 L 372.058594 155.292969 L 368.789063 153.554688 L 365.996094 151.792969 L 363.746094 149.960938 L 362.085938 148.003906 L 361.035156 145.882813 L 360.597656 143.550781 L 360.746094 140.976563 L 361.433594 138.144531 L 362.59375 135.035156 L 364.136719 131.65625 L 365.96875 128.019531 L 367.976563 124.160156 L 370.046875 120.117188 L 372.054688 115.941406 L 373.886719 111.699219 L 375.4375 107.457031 L 376.609375 103.296875 L 377.3125 99.292969 L 377.488281 95.519531 L 377.082031 92.050781 L 376.070313 88.945313 L 374.453125 86.261719 L 372.238281 84.039063 L 369.460938 82.292969 L 366.179688 81.039063 L 362.460938 80.265625 L 358.390625 79.941406 L 354.050781 80.019531 L 349.546875 80.445313 L 344.972656 81.132813 L 340.425781 82.003906 L 335.992188 82.957031 L 331.761719 83.890625 L 327.796875 84.707031 L 324.160156 85.308594 L 320.882813 85.597656 L 317.996094 85.496094 L 315.5 84.941406 L 313.390625 83.875 L 311.636719 82.273438 L 310.199219 80.125 L 309.027344 77.4375 L 308.0625 74.246094 L 307.234375 70.609375 L 306.476563 66.601563 L 305.71875 62.308594 L 304.890625 57.835938 L 303.9375 53.300781 L 302.800781 48.820313 L 301.441406 44.523438 L 299.828125 40.523438 L 297.941406 36.933594 L 295.574219 33.621094 L 292.890625 31.015625 L 289.910156 29.199219 L 286.671875 28.21875 L 283.222656 28.09375 L 279.625 28.804688 L 275.933594 30.308594 L 272.214844 32.519531 L 268.523438 35.332031 L 264.914063 38.609375 L 261.421875 42.203125 L 258.085938 45.949219 L 254.917969 49.6875 L 251.921875 53.242188 L 249.089844 56.46875 L 246.394531 59.226563 L 243.804688 61.394531 L 241.277344 62.890625 L 238.765625 63.652344 L 236.21875 63.65625 L 233.589844 62.914063 L 230.832031 61.472656 L 227.90625 59.40625 L 224.792969 56.820313 L 221.476563 53.84375 L 217.957031 50.621094 L 214.25 47.316406 L 210.394531 44.089844 L 206.421875 41.101563 L 202.398438 38.507813 L 198.386719 36.441406 L 194.453125 35.023438 L 190.671875 34.335938 L 187.109375 34.4375 L 183.839844 35.363281 L 180.90625 37.101563 L 178.351563 39.613281 L 176.207031 42.839844 L 174.46875 46.679688 L 173.125 51.023438 L 172.148438 55.730469 L 171.480469 60.664063 L 171.050781 65.675781 L 170.78125 70.621094 L 170.574219 75.359375 L 170.324219 79.777344 L 169.933594 83.761719 L 169.300781 87.238281 L 168.332031 90.15625 L 166.953125 92.480469 L 165.101563 94.222656 L 162.738281 95.410156 L 159.84375 96.09375 L 156.429688 96.355469 L 152.53125 96.285156 L 148.210938 95.988281 L 143.546875 95.585938 L 138.648438 95.191406 L 133.632813 94.917969 L 128.628906 94.871094 L 123.78125 95.140625 L 119.214844 95.800781 L 115.066406 96.914063 L 111.449219 98.507813 L 108.640625 100.441406 L 106.445313 102.800781 L 104.90625 105.558594 L 104.039063 108.675781 L 103.84375 112.109375 L 104.292969 115.796875 L 105.335938 119.671875 L 106.902344 123.667969 L 108.898438 127.714844 L 111.222656 131.746094 L 113.75 135.707031 L 116.359375 139.539063 L 118.921875 143.199219 L 121.308594 146.664063 L 123.398438 149.90625 L 125.085938 152.929688 L 126.277344 155.730469 L 126.898438 158.332031 L 126.898438 160.761719 L 126.253906 163.054688 L 124.960938 165.25 L 123.042969 167.390625 L 120.558594 169.523438 L 117.574219 171.695313 L 114.1875 173.9375 L 110.507813 176.285156 L 106.660156 178.765625 L 102.78125 181.390625 L 99.003906 184.164063 L 95.464844 187.082031 L 92.292969 190.125 L 89.601563 193.269531 L 87.496094 196.488281 L 86.050781 199.734375 L 85.328125 202.964844 L 85.363281 206.140625 L 86.160156 209.21875 L 87.703125 212.152344 L 89.945313 214.910156 L 92.816406 217.46875 L 96.234375 219.8125 L 100.09375 221.925781 L 104.269531 223.828125 L 108.636719 225.527344 L 113.0625 227.054688 L 117.417969 228.453125 L 121.578125 229.769531 L 125.425781 231.058594 L 128.863281 232.382813 L 131.8125 233.804688 L 134.210938 235.378906 L 136.023438 237.167969 L 137.234375 239.214844 L 137.855469 241.566406 L 137.921875 244.242188 L 137.492188 247.261719 L 136.640625 250.621094 L 135.460938 254.296875 L 134.046875 258.261719 L 132.523438 262.464844 L 130.992188 266.84375 L 129.578125 271.324219 L 128.378906 275.820313 L 127.503906 280.246094 L 127.035156 284.425781 L 127.019531 288.367188 L 127.507813 291.984375 L 128.53125 295.210938 L 130.101563 297.984375 L 132.207031 300.257813 L 134.828125 301.996094 L 137.914063 303.191406 L 141.417969 303.847656 L 145.265625 303.988281 L 149.378906 303.65625 L 153.675781 302.914063 L 158.070313 301.835938 L 162.480469 300.515625 L 166.816406 299.042969 L 171.015625 297.53125 L 175.007813 296.089844 L 178.738281 294.820313 L 182.179688 293.824219 L 185.296875 293.195313 L 188.089844 293.011719 L 190.554688 293.332031 L 192.71875 294.207031 L 194.609375 295.65625 L 196.265625 297.679688 L 197.742188 300.257813 L 199.089844 303.34375 L 200.367188 306.871094 L 201.632813 310.761719 L 202.945313 314.914063 L 204.351563 319.21875 L 205.894531 323.558594 L 207.609375 327.800781 L 209.523438 331.828125 L 211.648438 335.523438 L 213.992188 338.769531 L 216.539063 341.476563 L 219.273438 343.5625 L 222.175781 344.964844 L 225.207031 345.648438 L 228.328125 345.597656 L 231.5 344.824219 L 234.683594 343.359375 L 237.832031 341.261719 L 240.914063 338.605469 L 243.898438 335.488281 L 246.757813 332.019531 L 249.480469 328.320313 L 252.058594 324.519531 L 254.5 320.742188 L 256.8125 317.117188 L 259.019531 313.761719 L 261.152344 310.78125 L 263.25 308.265625 L 265.34375 306.292969 L 267.484375 304.914063 L 269.707031 304.148438 L 272.054688 304.011719 L 274.5625 304.476563 L 277.257813 305.503906 L 280.15625 307.03125 L 283.273438 308.972656 L 286.601563 311.234375 L 290.128906 313.699219 L 294.148438 316.472656 L 298.328125 319.195313 L 302.609375 321.71875 L 306.914063 323.890625 L 311.167969 325.589844 L 315.289063 326.695313 L 319.195313 327.132813 L 322.804688 326.835938 L 326.054688 325.777344 L 328.882813 323.960938 L 331.246094 321.414063 L 333.132813 318.195313 L 334.527344 314.390625 L 335.460938 310.101563 L 335.96875 305.449219 L 336.113281 300.5625 L 335.972656 295.574219 L 335.648438 290.617188 L 335.238281 285.820313 L 334.863281 281.292969 L 334.628906 277.128906 L 334.652344 273.40625 L 335.035156 270.175781 L 335.859375 267.460938 L 337.195313 265.269531 L 339.09375 263.570313 L 341.570313 262.324219 L 344.621094 261.464844 L 348.21875 260.910156 L 352.296875 260.570313 L 356.773438 260.339844 L 361.542969 260.128906 L 366.484375 259.828125 L 371.453125 259.355469 L 376.316406 258.628906 L 380.921875 257.582031 L 385.136719 256.167969 L 388.835938 254.359375 L 391.902344 252.144531 L 394.257813 249.535156 L 395.832031 246.554688 L 396.605469 243.25 L 396.570313 239.675781 L 395.761719 235.890625 L 394.246094 231.964844 L 392.105469 227.972656 L 389.464844 223.984375 L 386.460938 220.050781 L 383.234375 216.238281 L 379.953125 212.582031 L 376.777344 209.109375 L 373.855469 205.835938 L 371.332031 202.765625 L 369.335938 199.878906 L 367.960938 197.152344 L 367.285156 194.546875 L 367.34375 192.023438 L 368.152344 189.527344 L 369.675781 187.019531 L 371.863281 184.441406 L 374.625 181.761719 L 377.84375 178.941406 L 385.09375 172.8125 L 388.570313 169.722656 L 391.921875 166.5 L 395.015625 163.167969 L 397.738281 159.761719 L 399.96875 156.316406 L 401.625 152.878906 L 402.625 149.496094 L 402.925781 146.21875 L 402.492188 143.097656 L 401.328125 140.167969 L 399.453125 137.472656 L 396.917969 135.035156 L 393.78125 132.875 L 390.140625 131 L 386.09375 129.398438 L 381.753906 128.054688 L 377.246094 126.933594 L 372.6875 125.988281 L 368.210938 125.167969 L 363.921875 124.410156 L 359.929688 123.644531 L 356.324219 122.800781 L 353.175781 121.808594 L 350.542969 120.601563 L 348.453125 119.121094 L 346.914063 117.3125 L 345.917969 115.140625 L 345.425781 112.578125 L 345.390625 109.617188 L 345.734375 106.269531 L 346.375 102.558594 L 347.222656 98.527344 L 348.171875 94.238281 L 349.121094 89.761719 L 349.972656 85.179688 L 350.621094 80.589844 L 350.988281 76.085938 L 350.996094 71.773438 L 350.585938 67.742188 L 349.714844 64.089844 L 348.355469 60.890625 L 346.5 58.214844 L 344.164063 56.113281 L 341.371094 54.621094 L 338.167969 53.742188 L 334.605469 53.46875 L 330.753906 53.773438 L 326.6875 54.597656 L 322.480469 55.875 L 318.214844 57.511719 L 313.960938 59.410156 L 309.796875 61.453125 L 305.773438 63.523438 L 301.953125 65.507813 L 298.367188 67.28125 L 295.046875 68.734375 L 292 69.777344 L 289.230469 70.320313 L 286.71875 70.304688 L 284.441406 69.6875 L 282.359375 68.449219 L 280.4375 66.597656 L 278.625 64.160156 L 276.867188 61.199219 L 274.96875 57.480469 L 273.015625 53.347656 L 270.953125 48.953125 L 268.746094 44.449219 L 266.351563 40.003906 L 263.761719 35.785156 L 260.96875 31.957031 L 257.988281 28.664063 L 254.839844 26.035156 L 251.5625 24.171875 L 248.199219 23.15625 L 244.804688 23.019531 L 241.425781 23.773438 L 238.117188 25.382813 L 234.925781 27.789063 L 231.890625 30.894531 L 229.039063 34.574219 L 226.386719 38.695313 L 223.9375 43.085938 L 221.671875 47.589844 L 219.574219 52.035156 L 217.59375 56.261719 L 215.683594 60.121094 L 213.785156 63.480469 L 211.835938 66.242188 L 209.769531 68.324219 L 207.523438 69.691406 L 205.042969 70.328125 L 202.285156 70.265625 L 199.21875 69.554688 L 195.828125 68.28125 L 192.117188 66.558594 L 188.105469 64.519531 L 183.839844 62.300781 L 179.375 60.0625 L 174.789063 57.949219 L 170.160156 56.109375 L 165.589844 54.675781 L 161.179688 53.765625 L 157.019531 53.46875 L 153.210938 53.851563 L 149.832031 54.953125 L 146.949219 56.773438 L 144.617188 59.296875 L 142.863281 62.46875 L 141.683594 66.21875 L 141.0625 70.449219 L 140.949219 75.050781 L 141.277344 79.898438 L 141.953125 84.867188 L 142.867188 89.832031 L 143.898438 94.671875 L 144.917969 99.285156 L 145.792969 103.582031 L 146.402344 107.484375 L 146.621094 110.949219 L 146.355469 113.953125 L 145.519531 116.492188 L 144.066406 118.589844 L 141.964844 120.285156 L 139.222656 121.648438 L 135.867188 122.742188 L 131.972656 123.660156 L 127.621094 124.488281 L 123.027344 125.300781 L 118.234375 126.195313 L 113.386719 127.246094 L 108.636719 128.511719 L 104.125 130.046875 L 100 131.878906 L 96.394531 134.03125 L 93.421875 136.503906 L 91.171875 139.277344 L 89.710938 142.324219 L 89.078125 145.605469 L 89.269531 149.066406 L 90.265625 152.65625 L 92.003906 156.3125 L 94.398438 159.976563 L 97.332031 163.597656 L 100.679688 167.125 L 104.285156 170.523438 L 111.644531 176.847656 L 115.085938 179.757813 L 118.164063 182.515625 L 120.761719 185.144531 L 122.765625 187.679688 L 124.101563 190.164063 L 124.714844 192.644531 L 124.59375 195.167969 L 123.753906 197.777344 L 122.238281 200.519531 L 120.128906 203.425781 L 117.527344 206.519531 L 114.5625 209.808594 L 111.371094 213.292969 L 108.113281 216.960938 L 104.9375 220.773438 L 102.007813 224.691406 L 99.464844 228.660156 L 97.4375 232.617188 L 96.035156 236.496094 L 95.347656 240.226563 L 95.429688 243.742188 L 96.308594 246.980469 L 97.980469 249.890625 L 100.410156 252.433594 L 103.535156 254.585938 L 107.265625 256.339844 L 111.5 257.703125 L 116.105469 258.710938 L 120.949219 259.40625 L 125.886719 259.859375 L 130.785156 260.144531 L 135.503906 260.355469 L 139.925781 260.585938 L 143.953125 260.933594 L 147.5 261.496094 L 150.507813 262.363281 L 152.949219 263.613281 L 154.816406 265.3125 L 156.132813 267.5 L 156.945313 270.203125 L 157.320313 273.414063 L 157.34375 277.109375 L 157.117188 281.238281 L 156.742188 285.730469 L 156.363281 290.164063 L 156.046875 294.742188 L 155.875 299.363281 L 155.925781 303.929688 L 156.269531 308.328125 L 156.960938 312.460938 L 158.035156 316.222656 L 159.519531 319.527344 L 161.425781 322.292969 L 163.738281 324.46875 L 166.441406 326.011719 L 169.5 326.898438 L 172.863281 327.132813 L 176.476563 326.738281 L 180.277344 325.761719 L 184.203125 324.273438 L 188.1875 322.351563 L 192.167969 320.101563 L 196.082031 317.632813 L 199.878906 315.070313 L 203.519531 312.527344 L 206.972656 310.132813 L 210.214844 308 L 213.242188 306.238281 L 216.054688 304.9375 L 218.664063 304.175781 L 221.101563 304.003906 L 223.394531 304.453125 L 225.582031 305.535156 L 227.703125 307.230469 L 229.800781 309.5 L 231.921875 312.277344 L 234.101563 315.480469 L 236.371094 319.007813 L 238.761719 322.75 L 241.289063 326.574219 L 243.957031 330.351563 L 246.769531 333.957031 L 249.714844 337.261719 L 252.769531 340.148438 L 255.90625 342.515625 L 259.09375 344.269531 L 262.292969 345.351563 L 265.457031 345.714844 L 268.542969 345.339844 L 271.515625 344.226563 L 274.339844 342.410156 L 276.976563 339.933594 L 279.414063 336.878906 L 281.636719 333.335938 L 283.640625 329.40625 L 285.441406 325.210938 L 287.054688 320.875 L 288.515625 316.523438 L 291.144531 308.261719 L 292.417969 304.574219 L 293.742188 301.304688 L 295.171875 298.527344 L 296.765625 296.296875 L 298.578125 294.640625 L 300.65625 293.566406 L 303.027344 293.058594 L 305.722656 293.082031 L 309.019531 293.636719 L 312.699219 294.648438 L 316.734375 296.003906 L 321.078125 297.574219 L 325.664063 299.222656 L 330.410156 300.804688 L 335.214844 302.1875 L 339.976563 303.246094 L 344.582031 303.871094 L 348.925781 303.96875 L 352.894531 303.480469 L 356.402344 302.355469 L 359.367188 300.582031 L 361.730469 298.175781 L 363.460938 295.171875 L 364.539063 291.632813 L 364.992188 287.632813 L 364.851563 283.269531 L 364.195313 278.648438 L 363.113281 273.882813 L 361.710938 269.074219 L 360.121094 264.339844 L 356.914063 255.441406 L 355.578125 251.429688 L 354.589844 247.777344 L 354.070313 244.503906 L 354.113281 241.625 L 354.78125 239.117188 L 356.125 236.953125 L 358.15625 235.078125 L 360.847656 233.4375 L 364.152344 231.957031 L 367.988281 230.5625 L 372.253906 229.179688 L 376.8125 227.738281 L 381.523438 226.171875 L 386.226563 224.429688 L 390.765625 222.46875 L 394.976563 220.265625 L 398.714844 217.804688 L 401.851563 215.097656 L 404.269531 212.15625 L 405.890625 209.015625 L 406.660156 205.71875 L 406.558594 202.3125 L 405.601563 198.851563 L 403.835938 195.390625 L 401.34375 191.980469 L 398.226563 188.664063 L 394.625 185.480469 L 390.679688 182.449219 L 386.558594 179.589844 L 382.429688 176.898438 L 378.449219 174.363281 L 374.777344 171.949219 L 371.550781 169.628906 L 368.886719 167.347656 L 366.875 165.058594 L 365.578125 162.703125 L 365.019531 160.230469 L 365.195313 157.589844 L 366.066406 154.746094 L 367.558594 151.660156 L 369.421875 148.554688 L 371.648438 145.226563 L 374.117188 141.683594 L 376.707031 137.957031 L 379.289063 134.078125 L 381.742188 130.09375 L 383.9375 126.058594 L 385.765625 122.035156 L 387.125 118.089844 L 387.9375 114.292969 L 388.132813 110.710938 L 387.675781 107.40625 L 386.546875 104.433594 L 384.753906 101.835938 L 382.320313 99.644531 L 379.300781 97.882813 L 375.761719 96.542969 L 371.789063 95.621094 L 367.480469 95.074219 L 362.941406 94.863281 L 358.277344 94.917969 L 353.605469 95.171875 L 349.03125 95.535156 L 344.648438 95.914063 L 340.542969 96.222656 L 336.789063 96.363281 L 333.441406 96.246094 L 330.53125 95.789063 L 328.082031 94.929688 L 326.085938 93.609375 L 324.527344 91.792969 L 323.359375 89.46875 L 322.535156 86.636719 L 321.984375 83.324219 L 321.636719 79.574219 L 321.40625 75.460938 L 321.214844 71.058594 L 320.972656 66.472656 L 320.613281 61.804688 L 320.054688 57.179688 L 319.246094 52.710938 L 318.136719 48.515625 L 316.695313 44.703125 L 314.902344 41.382813 L 312.753906 38.628906 L 310.257813 36.515625 L 307.445313 35.089844 L 304.34375 34.371094 L 301 34.363281 L 297.472656 35.035156 L 293.8125 36.347656 L 290.078125 38.21875 L 286.328125 40.566406 L 282.613281 43.273438 L 278.988281 46.230469 L 275.480469 49.300781 L 272.125 52.351563 L 268.941406 55.257813 L 265.933594 57.890625 L 263.101563 60.136719 L 260.425781 61.902344 L 257.886719 63.109375 L 255.453125 63.695313 L 253.085938 63.632813 L 250.792969 62.933594 L 248.492188 61.621094 L 246.140625 59.742188 L 243.710938 57.355469 L 241.171875 54.542969 L 238.503906 51.410156 L 232.738281 44.632813 L 229.648438 41.234375 L 226.4375 38.003906 L 223.128906 35.0625 L 219.753906 32.515625 L 216.359375 30.472656 L 212.984375 29.011719 L 209.675781 28.199219 L 206.480469 28.078125 L 203.445313 28.667969 L 200.605469 29.964844 L 198 31.941406 L 195.648438 34.554688 L 193.570313 37.730469 L 191.761719 41.386719 L 190.222656 45.417969 L 188.925781 49.71875 L 187.84375 54.171875 L 186.925781 58.65625 L 186.125 63.058594 L 185.378906 67.265625 L 184.625 71.183594 L 183.789063 74.722656 L 182.808594 77.8125 L 181.621094 80.40625 L 180.167969 82.472656 L 178.394531 84.003906 L 176.269531 85.007813 L 173.769531 85.519531 L 170.886719 85.589844 L 167.621094 85.28125 L 164.003906 84.675781 L 160.070313 83.859375 L 155.875 82.933594 L 151.488281 81.988281 L 146.988281 81.132813 L 142.460938 80.449219 L 138 80.027344 L 133.703125 79.9375 L 129.664063 80.246094 L 125.96875 80.992188 L 122.695313 82.207031 L 119.914063 83.898438 L 117.679688 86.066406 L 116.023438 88.683594 L 114.96875 91.71875 L 114.503906 95.117188 L 114.613281 98.816406 L 115.246094 102.753906 L 116.34375 106.855469 L 117.828125 111.042969 L 119.605469 115.246094 L 121.570313 119.394531 L 123.617188 123.421875 L 125.621094 127.28125 L 127.480469 130.925781 L 129.078125 134.324219 L 130.402344 137.714844 L 131.199219 140.789063 L 131.378906 143.558594 L 130.878906 146.054688 L 129.679688 148.308594 L 127.773438 150.382813 L 125.199219 152.324219 L 122.019531 154.203125 L 118.328125 156.078125 L 114.246094 158.003906 L 109.90625 160.039063 L 105.464844 162.21875 L 101.082031 164.574219 L 96.914063 167.125 L 93.121094 169.871094 L 89.84375 172.800781 L 87.207031 175.898438 L 85.308594 179.121094 L 84.226563 182.429688 L 84 185.777344 L 84.636719 189.113281 L 86.117188 192.386719 L 88.375 195.554688 L 91.332031 198.574219 L 94.875 201.421875 L 98.867188 204.074219 L 103.15625 206.53125 L 107.585938 208.800781 L 112 210.90625 L 116.234375 212.882813 L 120.144531 214.777344 L 123.605469 216.648438 L 126.503906 218.546875 L 128.769531 220.542969 L 130.339844 222.699219 L 131.203125 225.0625 L 131.375 227.683594 L 130.890625 230.59375 L 129.832031 233.820313 L 128.289063 237.359375 L 126.382813 241.199219 L 124.253906 245.308594 L 122.035156 249.632813 L 119.875 254.117188 L 117.921875 258.671875 L 116.308594 263.214844 L 115.148438 267.65625 L 114.546875 271.890625 L 114.578125 275.835938 L 115.285156 279.398438 L 116.699219 282.511719 L 118.8125 285.113281 L 121.585938 287.167969 L 124.964844 288.660156 L 128.867188 289.59375 L 133.195313 290.003906 L 137.835938 289.941406 L 142.675781 289.480469 L 147.585938 288.722656 L 152.457031 287.765625 L 157.167969 286.738281 L 161.628906 285.761719 L 165.753906 284.964844 L 169.488281 284.460938 L 172.578125 284.355469 L 175.273438 284.675781 L 177.578125 285.484375 L 179.511719 286.820313 L 181.101563 288.699219 L 182.398438 291.128906 L 183.460938 294.082031 L 184.351563 297.515625 L 185.132813 301.359375 L 185.886719 305.535156 L 186.671875 309.941406 L 187.558594 314.46875 L 188.601563 318.996094 L 189.851563 323.40625 L 191.34375 327.570313 L 193.101563 331.375 L 195.140625 334.714844 L 197.460938 337.492188 L 200.046875 339.640625 L 202.875 341.09375 L 205.917969 341.828125 L 209.125 341.828125 L 212.460938 341.117188 L 215.871094 339.734375 L 219.308594 337.742188 L 222.726563 335.226563 L 226.085938 332.285156 L 229.347656 329.039063 L 232.488281 325.609375 L 235.492188 322.132813 L 241.050781 315.550781 L 243.628906 312.691406 L 246.09375 310.261719 L 248.472656 308.347656 L 250.804688 307.019531 L 253.125 306.320313 L 255.472656 306.265625 L 257.890625 306.851563 L 260.410156 308.042969 L 263.0625 309.792969 L 265.871094 312.015625 L 268.851563 314.621094 L 272.007813 317.496094 L 275.328125 320.523438 L 278.804688 323.570313 L 282.398438 326.515625 L 286.078125 329.222656 L 289.800781 331.578125 L 293.507813 333.480469 L 297.152344 334.828125 L 300.667969 335.558594 L 304.003906 335.621094 L 307.109375 334.984375 L 309.941406 333.648438 L 312.457031 331.632813 L 314.636719 328.980469 L 316.464844 325.753906 L 317.945313 322.039063 L 319.09375 317.925781 L 319.941406 313.527344 L 320.53125 308.953125 L 320.921875 304.320313 L 321.175781 299.742188 L 321.386719 294.972656 L 321.628906 290.519531 L 322.003906 286.492188 L 322.617188 282.964844 L 323.554688 280.003906 L 324.90625 277.628906 L 326.722656 275.839844 L 329.054688 274.613281 L 331.917969 273.894531 L 335.300781 273.609375 L 339.175781 273.660156 L 343.480469 273.945313 L 348.128906 274.34375 L 353.027344 274.746094 L 358.046875 275.03125 L 363.0625 275.09375 L 367.933594 274.84375 L 372.523438 274.203125 L 376.707031 273.113281 L 380.355469 271.542969 L 383.382813 269.476563 L 385.699219 266.921875 L 387.257813 263.914063 L 388.042969 260.492188 L 388.058594 256.730469 L 387.351563 252.699219 L 385.988281 248.476563 L 384.066406 244.15625 L 381.714844 239.816406 L 379.066406 235.53125 L 373.507813 227.40625 L 370.914063 223.660156 L 368.644531 220.160156 L 366.835938 216.921875 L 365.601563 213.933594 L 365.03125 211.167969 L 365.179688 208.597656 L 366.074219 206.175781 L 367.710938 203.847656 L 370.039063 201.558594 L 372.992188 199.253906 L 376.457031 196.886719 L 380.308594 194.40625 L 384.398438 191.789063 L 388.566406 189.003906 L 392.636719 186.050781 L 396.449219 182.929688 L 399.84375 179.660156 L 402.675781 176.277344 L 404.824219 172.820313 L 406.195313 169.335938 L 406.71875 165.882813 L 406.371094 162.511719 L 405.148438 159.277344 L 403.089844 156.222656 L 400.269531 153.390625 L 396.78125 150.800781 L 392.75 148.472656 L 388.324219 146.390625 L 383.65625 144.546875 L 378.910156 142.902344 L 369.8125 140 L 365.828125 138.636719 L 362.316406 137.226563 L 359.367188 135.691406 L 357.042969 133.964844 L 355.378906 131.980469 L 354.378906 129.6875 L 354.019531 127.046875 L 354.242188 124.03125 L 354.96875 120.636719 L 356.105469 116.878906 L 357.53125 112.789063 L 359.121094 108.417969 L 360.738281 103.835938 L 362.25 99.128906 L 363.535156 94.390625 L 364.46875 89.726563 L 364.957031 85.246094 L 364.917969 81.046875 L 364.289063 77.230469 L 363.039063 73.882813 L 361.164063 71.078125 L 358.671875 68.863281 L 355.609375 67.277344 L 352.039063 66.3125 L 348.035156 65.960938 L 343.691406 66.171875 L 339.113281 66.875 L 334.402344 67.984375 L 329.667969 69.386719 L 325.007813 70.964844 L 320.511719 72.585938 L 316.261719 74.117188 L 312.320313 75.425781 L 308.726563 76.386719 L 305.503906 76.894531 L 302.664063 76.859375 L 300.183594 76.207031 L 298.039063 74.90625 L 296.179688 72.9375 L 294.550781 70.320313 L 293.082031 67.105469 L 291.703125 63.363281 L 290.339844 59.195313 L 288.929688 54.726563 L 287.40625 50.09375 L 285.714844 45.445313 L 283.820313 40.933594 L 281.6875 36.714844 L 279.308594 32.929688 L 276.6875 29.710938 L 273.835938 27.164063 L 270.78125 25.382813 L 267.5625 24.417969 L 264.226563 24.296875 L 260.824219 25.015625 L 257.40625 26.535156 L 254.023438 28.789063 L 250.71875 31.683594 L 247.535156 35.09375 L 244.492188 38.886719 L 241.613281 42.90625 L 238.902344 46.996094 L 233.921875 54.753906 L 231.753906 57.917969 L 229.644531 60.652344 L 227.546875 62.871094 L 225.429688 64.519531 L 223.242188 65.554688 L 220.949219 65.960938 L 218.511719 65.75 L 215.894531 64.957031 L 213.078125 63.632813 L 210.050781 61.851563 L 206.804688 59.710938 L 203.355469 57.3125 L 199.714844 54.777344 L 195.921875 52.21875 L 192.015625 49.765625 L 188.046875 47.53125 L 184.074219 45.628906 L 180.164063 44.160156 L 176.375 43.203125 L 172.777344 42.824219 L 169.433594 43.074219 L 166.390625 43.96875 L 163.703125 45.515625 L 161.398438 47.691406 L 159.503906 50.460938 L 158.027344 53.757813 L 156.957031 57.511719 L 156.269531 61.628906 L 155.925781 66.015625 L 155.875 70.570313 L 156.042969 75.179688 L 156.359375 79.742188 L 156.738281 84.167969 L 157.089844 88.359375 L 157.324219 92.242188 L 157.355469 95.761719 L 157.097656 98.867188 L 156.484375 101.535156 L 155.453125 103.761719 L 153.957031 105.546875 L 151.976563 106.929688 L 149.496094 107.945313 L 146.53125 108.652344 L 143.113281 109.117188 L 139.296875 109.414063 L 135.144531 109.617188 L 130.746094 109.8125 L 126.191406 110.078125 L 121.597656 110.480469 L 117.066406 111.085938 L 112.71875 111.949219 L 108.664063 113.109375 L 105.003906 114.601563 L 101.832031 116.4375 L 99.226563 118.617188 L 97.253906 121.128906 L 95.953125 123.945313 L 95.339844 127.035156 L 95.414063 130.351563 L 96.144531 133.84375 L 97.488281 137.457031 L 99.371094 141.136719 L 101.703125 144.832031 L 104.386719 148.484375 L 107.554688 152.351563 L 110.839844 156.078125 L 114.078125 159.625 L 117.113281 162.972656 L 119.800781 166.121094 L 122 169.078125 L 123.605469 171.859375 L 124.535156 174.507813 L 124.738281 177.058594 L 124.1875 179.5625 L 122.90625 182.066406 L 120.933594 184.617188 L 118.355469 187.261719 L 115.273438 190.035156 L 108.140625 196.0625 L 104.398438 199.328125 L 100.757813 202.753906 L 97.378906 206.3125 L 94.410156 209.960938 L 91.996094 213.660156 L 90.25 217.347656 L 89.257813 220.964844 L 89.082031 224.453125 L 89.753906 227.757813 L 91.261719 230.820313 L 93.570313 233.601563 L 96.613281 236.074219 L 100.289063 238.222656 L 104.484375 240.050781 L 109.0625 241.570313 L 113.871094 242.828125 L 118.761719 243.867188 L 123.578125 244.753906 L 128.183594 245.570313 L 132.441406 246.394531 L 136.246094 247.320313 L 139.507813 248.425781 L 142.171875 249.800781 L 144.199219 251.515625 L 145.59375 253.621094 L 146.382813 256.164063 L 146.621094 259.160156 L 146.382813 262.613281 L 145.773438 266.492188 L 144.898438 270.75 L 143.890625 275.324219 L 142.867188 280.121094 L 141.960938 285.039063 L 141.289063 289.960938 L 140.953125 294.765625 L 141.046875 299.332031 L 141.640625 303.539063 L 142.777344 307.28125 L 144.480469 310.464844 L 146.75 313.011719 L 149.558594 314.875 L 152.859375 316.03125 L 156.59375 316.480469 L 160.679688 316.257813 L 165.023438 315.425781 L 169.535156 314.070313 L 174.113281 312.296875 L 178.671875 310.238281 L 182.824219 308.175781 L 186.824219 306.105469 L 190.617188 304.148438 L 194.167969 302.414063 L 197.449219 301.019531 L 200.457031 300.054688 L 203.1875 299.597656 L 205.664063 299.714844 L 207.90625 300.441406 L 209.957031 301.789063 L 211.863281 303.75 L 213.664063 306.285156 L 215.421875 309.339844 L 217.179688 312.835938 L 220.890625 320.730469 L 222.917969 324.890625 L 225.097656 329.019531 L 227.445313 332.988281 L 229.964844 336.664063 L 232.65625 339.921875 L 235.496094 342.660156 L 238.464844 344.785156 L 241.527344 346.21875 L 244.648438 346.921875 L 247.789063 346.867188 L 250.90625 346.050781 L 253.960938 344.511719 L 256.910156 342.289063 L 259.730469 339.46875 L 262.394531 336.140625 L 264.890625 332.414063 L 267.210938 328.414063 L 269.367188 324.269531 L 273.257813 316.082031 L 275.058594 312.292969 L 276.8125 308.859375 L 278.574219 305.875 L 280.386719 303.417969 L 282.3125 301.550781 L 284.386719 300.292969 L 286.664063 299.660156 L 289.175781 299.632813 L 291.949219 300.164063 L 294.992188 301.199219 L 298.316406 302.652344 L 301.90625 304.425781 L 305.730469 306.410156 L 309.757813 308.484375 L 313.929688 310.535156 L 318.191406 312.4375 L 322.464844 314.078125 L 326.679688 315.355469 L 330.753906 316.183594 L 334.609375 316.488281 L 338.179688 316.214844 L 341.386719 315.332031 L 344.179688 313.832031 L 346.519531 311.722656 L 348.371094 309.035156 L 349.726563 305.828125 L 350.59375 302.160156 L 351 298.117188 L 350.964844 293.421875 L 350.519531 288.515625 L 349.753906 283.523438 L 348.789063 278.578125 L 347.746094 273.789063 L 346.757813 269.261719 L 345.953125 265.078125 L 345.457031 261.304688 L 345.382813 257.984375 L 345.828125 255.128906 L 346.859375 252.734375 L 348.527344 250.769531 L 350.847656 249.1875 L 353.804688 247.921875 L 357.351563 246.890625 L 361.417969 246.011719 L 365.902344 245.195313 L 370.679688 244.34375 L 375.605469 243.382813 L 380.527344 242.230469 L 385.292969 240.828125 L 389.738281 239.132813 L 393.722656 237.117188 L 397.109375 234.765625 L 399.785156 232.089844 L 401.671875 229.109375 L 402.714844 225.867188 L 402.890625 222.410156 L 402.214844 218.796875 L 400.738281 215.085938 L 398.539063 211.34375 L 395.730469 207.628906 L 392.445313 203.992188 L 388.835938 200.480469 L 385.066406 197.121094 L 381.308594 193.929688 L 377.726563 190.917969 L 374.484375 188.066406 L 371.714844 185.359375 L 369.542969 182.753906 L 368.050781 180.214844 L 367.304688 177.6875 L 367.324219 175.121094 L 368.097656 172.472656 L 369.578125 169.691406 L 371.683594 166.738281 L 374.3125 163.597656 L 377.324219 160.246094 L 380.578125 156.691406 L 383.902344 152.953125 L 387.136719 149.0625 L 390.109375 145.0625 L 392.675781 141.011719 L 394.695313 136.976563 L 396.054688 133.03125 L 396.660156 129.25 L 396.460938 125.699219 L 395.433594 122.445313 L 393.582031 119.542969 L 390.953125 117.027344 L 387.617188 114.925781 L 383.671875 113.234375 L 379.242188 111.945313 L 374.457031 111.011719 L 369.5625 110.394531 L 364.613281 110 L 359.75 109.746094 L 355.097656 109.539063 L 350.777344 109.285156 L 346.886719 108.878906 L 343.492188 108.230469 L 340.652344 107.253906 L 338.386719 105.867188 L 336.691406 104.015625 L 335.535156 101.664063 L 334.867188 98.796875 L 334.613281 95.421875 L 334.679688 91.574219 L 334.96875 87.3125 L 335.363281 82.71875 L 335.757813 77.886719 L 336.039063 72.9375 L 336.105469 67.992188 L 335.867188 63.183594 L 335.25 58.644531 L 334.199219 54.496094 L 332.683594 50.855469 L 330.683594 47.824219 L 328.210938 45.46875 L 325.289063 43.847656 L 321.964844 42.980469 L 318.296875 42.863281 L 314.355469 43.460938 L 310.21875 44.703125 L 305.96875 46.507813 L 301.6875 48.757813 L 297.445313 51.320313 L 293.316406 54.050781 L 289.351563 56.800781 L 285.601563 59.414063 L 282.085938 61.75 L 278.820313 63.671875 L 275.804688 65.0625 L 273.015625 65.835938 L 270.425781 65.917969 L 267.992188 65.277344 L 265.667969 63.914063 L 263.40625 61.855469 L 261.144531 59.164063 L 258.839844 55.929688 L 256.445313 52.269531 L 253.921875 48.3125 L 251.25 44.21875 L 248.410156 40.140625 L 245.40625 36.246094 L 242.25 32.683594 L 238.964844 29.605469 L 235.585938 27.136719 L 232.160156 25.382813 L 228.730469 24.417969 L 225.355469 24.296875 L 222.085938 25.027344 L 218.96875 26.59375 L 216.042969 28.945313 L 213.34375 32.003906 L 210.890625 35.667969 L 208.6875 39.804688 L 206.722656 44.273438 L 205.085938 48.609375 L 203.609375 52.972656 L 202.25 57.242188 L 200.960938 61.296875 L 199.6875 65.03125 L 198.371094 68.351563 L 196.949219 71.183594 L 195.371094 73.472656 L 193.574219 75.1875 L 191.523438 76.316406 L 189.175781 76.875 L 186.503906 76.898438 L 183.5 76.441406 L 180.167969 75.582031 L 176.527344 74.402344 L 172.605469 73.003906 L 168.457031 71.496094 L 164.132813 69.988281 L 159.714844 68.589844 L 155.277344 67.402344 L 150.90625 66.523438 L 146.691406 66.035156 L 142.714844 66.003906 L 139.0625 66.484375 L 135.804688 67.5 L 133.007813 69.074219 L 130.71875 71.1875 L 128.964844 73.824219 L 127.765625 76.9375 L 127.113281 80.464844 L 126.980469 84.34375 L 127.324219 88.492188 L 128.082031 92.820313 L 129.179688 97.246094 L 130.519531 101.679688 L 132.003906 106.042969 L 133.523438 110.257813 L 134.96875 114.257813 L 136.234375 117.996094 L 137.210938 121.433594 L 137.808594 124.546875 L 137.949219 127.324219 L 137.570313 129.777344 L 136.628906 131.921875 L 135.109375 133.796875 L 133.003906 135.441406 L 130.347656 136.910156 L 127.179688 138.253906 L 123.570313 139.535156 L 119.609375 140.8125 L 115.402344 142.144531 L 111.054688 143.578125 L 106.695313 145.15625 L 102.453125 146.917969 L 98.449219 148.878906 L 94.804688 151.058594 L 91.632813 153.453125 L 89.027344 156.058594 L 87.0625 158.847656 L 85.796875 161.796875 L 85.265625 164.871094 L 85.480469 168.027344 L 86.421875 171.226563 L 88.050781 174.425781 L 90.523438 177.84375 L 93.621094 181.171875 L 97.214844 184.367188 L 101.15625 187.40625 L 105.28125 190.277344 L 109.421875 192.976563 L 113.414063 195.523438 L 117.101563 197.941406 L 120.347656 200.269531 L 123.03125 202.554688 L 125.0625 204.847656 L 126.378906 207.203125 L 126.949219 209.679688 L 126.789063 212.316406 L 125.929688 215.164063 L 124.445313 218.25 L 122.433594 221.589844 L 120.015625 225.183594 L 117.339844 229.015625 L 114.550781 233.058594 L 111.808594 237.261719 L 109.269531 241.566406 L 107.078125 245.898438 L 105.371094 250.175781 L 104.261719 254.320313 L 103.832031 258.246094 L 104.144531 261.875 L 105.230469 265.132813 L 107.082031 267.960938 L 109.671875 270.324219 L 112.9375 272.199219 L 116.789063 273.578125 L 121.128906 274.492188 L 125.828125 274.976563 L 130.753906 275.101563 L 135.773438 274.945313 L 140.75 274.605469 L 145.558594 274.195313 L 150.082031 273.824219 L 154.230469 273.609375 L 157.925781 273.667969 L 161.121094 274.09375 L 163.789063 274.980469 L 165.9375 276.390625 L 167.582031 278.375 L 168.78125 280.945313 L 169.597656 284.09375 L 170.117188 287.785156 L 170.4375 291.957031 L 170.65625 296.515625 L 170.878906 301.347656 L 171.203125 306.332031 L 171.71875 311.324219 L 172.503906 316.179688 L 173.625 320.753906 L 175.125 324.902344 L 177.023438 328.5 L 179.335938 331.445313 L 182.042969 333.652344 L 185.113281 335.066406 L 188.503906 335.660156 L 192.15625 335.441406 L 196.003906 334.453125 L 199.972656 332.765625 L 203.730469 330.644531 L 207.472656 328.101563 L 211.15625 325.253906 L 214.734375 322.21875 L 218.175781 319.136719 L 221.453125 316.136719 L 224.554688 313.347656 L 227.480469 310.886719 L 230.234375 308.867188 L 232.84375 307.371094 L 235.328125 306.472656 L 237.730469 306.214844 L 240.082031 306.613281 L 242.421875 307.660156 L 244.800781 309.328125 L 247.246094 311.558594 L 249.792969 314.265625 L 252.464844 317.355469 L 255.285156 320.707031 L 258.253906 324.199219 L 261.367188 327.695313 L 264.617188 331.058594 L 267.972656 334.160156 L 271.40625 336.871094 L 274.875 339.085938 L 278.332031 340.710938 L 281.730469 341.667969 L 285.015625 341.90625 L 288.144531 341.40625 L 291.070313 340.167969 L 293.761719 338.210938 L 296.183594 335.589844 L 298.324219 332.375 L 300.175781 328.652344 L 301.753906 324.535156 L 303.074219 320.140625 L 304.175781 315.585938 L 305.105469 311.007813 L 305.917969 306.519531 L 306.675781 302.242188 L 307.457031 298.285156 L 308.324219 294.730469 L 309.355469 291.652344 L 310.617188 289.097656 L 312.167969 287.101563 L 314.058594 285.664063 L 316.324219 284.769531 L 318.988281 284.375 L 322.050781 284.425781 L 325.507813 284.847656 L 329.316406 285.550781 L 333.441406 286.4375 L 337.8125 287.402344 L 342.351563 288.339844 L 346.972656 289.152344 L 351.582031 289.742188 L 356.070313 290.019531 L 360.34375 289.917969 L 364.304688 289.378906 L 367.859375 288.359375 L 370.925781 286.847656 L 373.449219 284.832031 L 375.378906 282.335938 L 376.691406 279.390625 L 377.371094 276.113281 L 377.464844 272.507813 L 377.015625 268.640625 L 376.074219 264.582031 L 374.714844 260.410156 L 373.027344 256.195313 L 371.109375 252.015625 L 369.078125 247.929688 L 367.039063 243.996094 L 365.117188 240.269531 L 363.414063 236.777344 L 362.039063 233.542969 L 361.078125 230.578125 L 360.613281 227.878906 L 360.703125 225.429688 L 361.378906 223.207031 L 362.660156 221.171875 L 364.535156 219.289063 L 366.976563 217.503906 L 369.929688 215.769531 L 373.316406 214.042969 L 377.050781 212.269531 L 385.109375 208.445313 L 389.195313 206.328125 L 393.148438 204.050781 L 396.84375 201.605469 L 400.164063 198.996094 L 403 196.238281 L 405.265625 193.34375 L 406.878906 190.351563 L 407.792969 187.289063 L 407.976563 184.195313 L 407.421875 181.113281 L 406.148438 178.082031 L 404.195313 175.132813 L 401.632813 172.304688 L 398.535156 169.617188 L 395.011719 167.09375 L 391.171875 164.734375 L 387.136719 162.539063 L 383.03125 160.5 L 378.988281 158.589844 L 375.125 156.785156 L 371.554688 155.039063 L 368.375 153.3125 L 365.675781 151.5625 L 363.515625 149.730469 L 361.9375 147.777344 L 360.960938 145.652344 L 360.585938 143.316406 L 360.785156 140.746094 L 361.507813 137.914063 L 362.6875 134.8125 L 364.242188 131.445313 L 366.070313 127.828125 L 368.066406 123.992188 L 370.113281 119.976563 L 372.101563 115.835938 L 373.914063 111.628906 L 375.449219 107.425781 L 376.605469 103.300781 L 377.308594 99.332031 L 377.488281 95.585938 L 377.039063 91.863281 L 375.894531 88.566406 L 374.039063 85.761719 L 371.503906 83.492188 L 368.339844 81.789063 L 364.617188 80.644531 L 360.425781 80.046875 L 355.878906 79.941406 L 351.089844 80.265625 L 346.183594 80.929688 L 341.277344 81.828125 L 336.488281 82.847656 L 331.917969 83.855469 L 327.65625 84.734375 L 323.769531 85.355469 L 320.308594 85.609375 L 317.300781 85.398438 L 314.742188 84.640625 L 312.621094 83.277344 L 310.894531 81.289063 L 309.507813 78.667969 L 308.386719 75.449219 L 307.457031 71.683594 L 306.632813 67.460938 L 305.820313 62.890625 L 304.941406 58.09375 L 303.917969 53.21875 L 302.683594 48.410156 L 301.1875 43.824219 L 299.394531 39.605469 L 297.277344 35.890625 L 294.835938 32.796875 L 292.089844 30.425781 L 289.058594 28.847656 L 285.785156 28.101563 L 282.320313 28.195313 L 278.722656 29.105469 L 275.046875 30.777344 L 271.359375 33.121094 L 267.710938 36.023438 L 264.152344 39.359375 L 260.71875 42.96875 L 254.332031 50.382813 L 251.394531 53.863281 L 248.609375 56.988281 L 245.957031 59.628906 L 243.402344 61.679688 L 240.902344 63.050781 L 238.40625 63.699219 L 235.871094 63.597656 L 233.25 62.769531 L 230.492188 61.257813 L 227.574219 59.144531 L 224.460938 56.53125 L 221.152344 53.546875 L 217.644531 50.335938 L 213.953125 47.058594 L 210.117188 43.867188 L 206.171875 40.925781 L 202.179688 38.382813 L 198.199219 36.363281 L 194.304688 34.980469 L 190.558594 34.324219 L 187.261719 34.417969 L 184.207031 35.210938 L 181.441406 36.703125 L 178.996094 38.871094 L 176.890625 41.664063 L 175.140625 45.015625 L 173.734375 48.839844 L 172.65625 53.039063 L 171.875 57.496094 L 171.335938 62.101563 L 170.984375 66.738281 L 170.75 71.292969 L 170.558594 75.65625 L 170.328125 79.734375 L 169.972656 83.445313 L 169.421875 86.726563 L 168.589844 89.527344 L 167.425781 91.832031 L 165.867188 93.628906 L 163.878906 94.933594 L 161.441406 95.789063 L 158.550781 96.242188 L 155.226563 96.363281 L 151.5 96.226563 L 147.425781 95.925781 L 143.070313 95.546875 L 138.527344 95.183594 L 133.882813 94.925781 L 129.246094 94.859375 L 124.722656 95.054688 L 120.421875 95.578125 L 116.449219 96.476563 L 112.902344 97.777344 L 109.859375 99.5 L 107.394531 101.644531 L 105.554688 104.195313 L 104.375 107.121094 L 103.855469 110.378906 L 103.988281 113.914063 L 104.734375 117.671875 L 106.027344 121.578125 L 107.796875 125.574219 L 109.941406 129.589844 L 112.351563 133.558594 L 114.910156 137.433594 L 117.492188 141.164063 L 119.972656 144.710938 L 122.230469 148.054688 L 124.148438 151.179688 L 125.628906 154.082031 L 126.59375 156.78125 L 126.972656 159.289063 L 126.730469 161.640625 L 125.851563 163.871094 L 124.339844 166.023438 L 122.234375 168.140625 L 119.585938 170.261719 L 116.480469 172.433594 L 109.300781 177.058594 L 105.460938 179.558594 L 101.632813 182.207031 L 97.945313 185 L 94.527344 187.929688 L 91.269531 191.238281 L 88.617188 194.652344 L 86.675781 198.128906 L 85.542969 201.613281 L 85.265625 205.054688 L 85.871094 208.398438 L 87.34375 211.589844 L 89.636719 214.585938 L 92.671875 217.355469 L 96.339844 219.871094 L 100.507813 222.132813 L 105.03125 224.140625 L 109.75 225.925781 L 114.496094 227.523438 L 119.113281 228.988281 L 123.449219 230.382813 L 127.371094 231.777344 L 130.765625 233.253906 L 133.550781 234.882813 L 135.664063 236.738281 L 137.085938 238.882813 L 137.828125 241.371094 L 137.925781 244.234375 L 137.445313 247.488281 L 136.488281 251.136719 L 135.164063 255.148438 L 133.605469 259.480469 L 131.953125 264.066406 L 130.34375 268.824219 L 128.921875 273.65625 L 127.816406 278.457031 L 127.136719 283.113281 L 126.980469 287.511719 L 127.417969 291.542969 L 128.492188 295.117188 L 130.21875 298.148438 L 132.59375 300.574219 L 135.574219 302.355469 L 139.105469 303.484375 L 143.105469 303.972656 L 147.476563 303.863281 L 152.117188 303.226563 L 156.910156 302.148438 L 161.742188 300.75 L 166.511719 299.152344 L 171.113281 297.496094 L 175.46875 295.925781 L 179.511719 294.578125 L 183.1875 293.582031 L 186.476563 293.0625 L 189.371094 293.105469 L 191.890625 293.792969 L 194.0625 295.15625 L 195.9375 297.214844 L 197.582031 299.945313 L 199.070313 303.289063 L 200.46875 307.171875 L 201.863281 311.480469 L 203.316406 316.078125 L 204.902344 320.820313 L 206.667969 325.546875 L 208.65625 330.09375 L 210.894531 334.296875 L 213.390625 338.011719 L 216.085938 341.054688 L 219.007813 343.390625 L 222.117188 344.945313 L 225.378906 345.664063 L 228.746094 345.535156 L 232.164063 344.574219 L 235.582031 342.824219 L 238.953125 340.363281 L 242.230469 337.292969 L 245.378906 333.746094 L 248.378906 329.863281 L 251.210938 325.796875 L 253.878906 321.710938 L 256.394531 317.765625 L 258.789063 314.105469 L 261.089844 310.867188 L 263.34375 308.167969 L 265.601563 306.09375 L 267.914063 304.714844 L 270.335938 304.050781 L 272.910156 304.105469 L 275.683594 304.847656 L 278.683594 306.210938 L 281.925781 308.105469 L 285.421875 310.417969 L 289.152344 313.015625 L 293.09375 315.753906 L 297.203125 318.484375 L 301.429688 321.054688 L 305.699219 323.320313 L 309.941406 325.152344 L 314.078125 326.433594 L 318.023438 327.074219 L 321.707031 327.011719 L 325.050781 326.203125 L 327.996094 324.644531 L 330.5 322.355469 L 332.53125 319.382813 L 334.085938 315.800781 L 335.171875 311.707031 L 335.824219 307.210938 L 336.09375 302.433594 L 336.054688 297.507813 L 335.792969 292.566406 L 335.40625 287.730469 L 335.007813 283.117188 L 334.703125 278.828125 L 334.605469 274.941406 L 334.820313 271.523438 L 335.433594 268.601563 L 336.523438 266.195313 L 338.148438 264.292969 L 340.335938 262.855469 L 343.097656 261.832031 L 346.414063 261.144531 L 350.234375 260.714844 L 354.488281 260.445313 L 359.089844 260.242188 L 363.917969 260 L 368.851563 259.632813 L 373.75 259.050781 L 378.472656 258.191406 L 382.882813 256.992188 L 386.847656 255.414063 L 390.042969 253.589844 L 392.671875 251.417969 L 394.667969 248.914063 L 395.996094 246.101563 L 396.628906 243.011719 L 396.574219 239.695313 L 395.855469 236.199219 L 394.523438 232.582031 L 392.648438 228.894531 L 390.316406 225.195313 L 387.636719 221.535156 L 384.71875 217.953125 L 381.6875 214.496094 L 378.675781 211.183594 L 375.804688 208.035156 L 373.191406 205.0625 L 370.949219 202.257813 L 369.171875 199.609375 L 367.9375 197.09375 L 367.300781 194.683594 L 367.296875 192.34375 L 367.929688 190.035156 L 369.183594 187.71875 L 371.023438 185.359375 L 373.382813 182.921875 L 376.179688 180.375 L 382.664063 174.882813 L 386.121094 171.921875 L 389.542969 168.816406 L 392.804688 165.589844 L 395.785156 162.261719 L 398.363281 158.871094 L 400.441406 155.453125 L 401.929688 152.054688 L 402.757813 148.722656 L 402.890625 145.503906 L 402.304688 142.449219 L 400.996094 139.589844 L 399.003906 136.96875 L 396.367188 134.605469 L 393.160156 132.515625 L 389.46875 130.707031 L 385.402344 129.164063 L 381.0625 127.867188 L 376.578125 126.785156 L 372.066406 125.871094 L 367.644531 125.070313 L 363.421875 124.320313 L 359.503906 123.554688 L 355.976563 122.707031 L 352.90625 121.707031 L 350.339844 120.488281 L 348.3125 118.992188 L 346.828125 117.175781 L 345.875 114.996094 L 345.414063 112.433594 L 345.398438 109.484375 L 345.75 106.148438 L 346.394531 102.460938 L 347.238281 98.460938 L 348.179688 94.207031 L 349.121094 89.765625 L 349.964844 85.226563 L 350.65625 80.292969 L 351.011719 75.46875 L 350.945313 70.875 L 350.382813 66.636719 L 349.273438 62.863281 L 347.597656 59.644531 L 345.355469 57.058594 L 342.566406 55.15625 L 339.28125 53.964844 L 335.558594 53.484375 L 331.480469 53.675781 L 327.136719 54.484375 L 322.625 55.824219 L 318.039063 57.585938 L 313.472656 59.640625 L 309.011719 61.851563 L 304.734375 64.066406 L 300.699219 66.140625 L 296.949219 67.929688 L 293.511719 69.304688 L 290.394531 70.152344 L 287.585938 70.378906 L 285.0625 69.921875 L 282.777344 68.757813 L 280.6875 66.875 L 278.726563 64.316406 L 276.835938 61.140625 L 274.953125 57.445313 L 273.015625 53.347656 L 270.972656 48.988281 L 268.78125 44.523438 L 266.414063 40.109375 L 263.847656 35.914063 L 261.085938 32.097656 L 258.132813 28.804688 L 255.019531 26.160156 L 251.773438 24.269531 L 248.445313 23.199219 L 245.074219 23 L 241.71875 23.671875 L 238.429688 25.195313 L 235.25 27.503906 L 232.222656 30.515625 L 229.371094 34.109375 L 226.714844 38.148438 L 224.257813 42.480469 L 221.988281 46.945313 L 219.882813 51.371094 L 217.902344 55.609375 L 216 59.503906 L 214.121094 62.933594 L 212.199219 65.785156 L 210.175781 67.980469 L 207.988281 69.476563 L 205.578125 70.257813 L 202.90625 70.335938 L 199.929688 69.765625 L 196.640625 68.621094 L 193.03125 67.007813 L 189.125 65.046875 L 184.953125 62.875 L 180.566406 60.644531 L 176.039063 58.5 L 171.453125 56.585938 L 167.191406 55.128906 L 163.039063 54.085938 L 159.066406 53.539063 L 155.355469 53.546875 L 151.972656 54.15625 L 148.980469 55.382813 L 146.433594 57.230469 L 144.359375 59.671875 L 142.78125 62.660156 L 141.699219 66.144531 L 141.097656 70.039063 L 140.9375 74.261719 L 141.164063 78.714844 L 141.707031 83.296875 L 142.492188 87.910156 L 143.414063 92.453125 L 144.378906 96.84375 L 145.28125 101 L 146.019531 104.855469 L 146.492188 108.363281 L 146.613281 111.484375 L 146.300781 114.210938 L 145.5 116.535156 L 144.164063 118.484375 L 142.273438 120.089844 L 139.828125 121.394531 L 136.851563 122.460938 L 133.394531 123.355469 L 129.515625 124.140625 L 125.304688 124.898438 L 120.863281 125.691406 L 116.304688 126.589844 L 111.75 127.648438 L 107.324219 128.917969 L 103.148438 130.433594 L 99.347656 132.222656 L 96.023438 134.296875 L 93.273438 136.652344 L 91.171875 139.277344 L 89.773438 142.144531 L 89.105469 145.222656 L 89.179688 148.46875 L 89.972656 151.835938 L 91.441406 155.273438 L 93.515625 158.730469 L 96.109375 162.167969 L 99.117188 165.535156 L 102.417969 168.804688 L 105.886719 171.945313 L 109.378906 174.945313 L 112.773438 177.792969 L 115.933594 180.496094 L 118.742188 183.066406 L 121.097656 185.527344 L 122.917969 187.910156 L 124.132813 190.253906 L 124.710938 192.589844 L 124.628906 194.964844 L 123.90625 197.417969 L 122.578125 199.980469 L 120.703125 202.6875 L 118.367188 205.550781 L 115.667969 208.59375 L 112.726563 211.8125 L 109.722656 215.128906 L 106.726563 218.585938 L 103.863281 222.152344 L 101.25 225.796875 L 99.003906 229.46875 L 97.21875 233.121094 L 95.980469 236.699219 L 95.355469 240.144531 L 95.386719 243.410156 L 96.101563 246.445313 L 97.492188 249.203125 L 99.542969 251.65625 L 102.210938 253.777344 L 105.429688 255.558594 L 109.121094 257 L 113.191406 258.121094 L 117.539063 258.949219 L 122.054688 259.527344 L 126.625 259.910156 L 131.140625 260.164063 L 135.5 260.355469 L 139.601563 260.5625 L 143.371094 260.867188 L 146.738281 261.34375 L 149.65625 262.0625 L 152.09375 263.09375 L 154.039063 264.484375 L 155.503906 266.28125 L 156.511719 268.511719 L 157.109375 271.179688 L 157.355469 274.277344 L 157.320313 277.785156 L 157.085938 281.652344 L 156.734375 285.820313 L 156.359375 290.21875 L 156.042969 294.757813 L 155.875 299.339844 L 155.925781 303.867188 L 156.257813 308.234375 L 156.933594 312.335938 L 157.984375 316.078125 L 159.4375 319.375 L 161.304688 322.152344 L 163.574219 324.34375 L 166.226563 325.917969 L 169.230469 326.847656 L 172.539063 327.136719 L 176.101563 326.804688 L 179.851563 325.894531 L 183.734375 324.472656 L 187.679688 322.617188 L 191.628906 320.421875 L 195.519531 318 L 199.308594 315.464844 L 206.398438 310.527344 L 209.648438 308.359375 L 212.6875 306.539063 L 215.515625 305.15625 L 218.144531 304.285156 L 220.59375 303.988281 L 222.894531 304.296875 L 225.082031 305.230469 L 227.195313 306.769531 L 229.457031 309.085938 L 231.730469 312.007813 L 234.070313 315.433594 L 236.515625 319.238281 L 239.101563 323.273438 L 241.84375 327.386719 L 244.753906 331.417969 L 247.828125 335.203125 L 251.046875 338.589844 L 254.378906 341.441406 L 257.789063 343.632813 L 261.230469 345.070313 L 264.648438 345.691406 L 267.992188 345.464844 L 271.210938 344.378906 L 274.253906 342.472656 L 277.09375 339.808594 L 279.695313 336.476563 L 282.046875 332.589844 L 284.152344 328.285156 L 286.023438 323.714844 L 287.6875 319.027344 L 289.199219 314.386719 L 290.601563 309.9375 L 291.96875 305.820313 L 293.371094 302.152344 L 294.875 299.035156 L 296.5625 296.539063 L 298.488281 294.707031 L 300.71875 293.542969 L 303.292969 293.039063 L 306.242188 293.136719 L 309.574219 293.769531 L 313.28125 294.832031 L 317.332031 296.21875 L 321.679688 297.796875 L 326.253906 299.425781 L 330.972656 300.980469 L 335.742188 302.320313 L 340.453125 303.332031 L 345.003906 303.902344 L 349.28125 303.953125 L 353.183594 303.414063 L 356.628906 302.253906 L 359.53125 300.453125 L 361.839844 298.03125 L 363.523438 295.023438 L 364.570313 291.488281 L 364.996094 287.507813 L 364.84375 283.171875 L 364.183594 278.585938 L 363.105469 273.855469 L 361.714844 269.089844 L 360.136719 264.390625 L 356.953125 255.554688 L 355.617188 251.5625 L 354.625 247.925781 L 354.085938 244.664063 L 354.09375 241.785156 L 354.71875 239.273438 L 356 237.105469 L 357.960938 235.226563 L 360.574219 233.578125 L 363.566406 232.195313 L 367.023438 230.894531 L 370.871094 229.617188 L 375.011719 228.308594 L 379.328125 226.917969 L 383.707031 225.390625 L 388.011719 223.699219 L 392.125 221.808594 L 395.917969 219.703125 L 399.273438 217.378906 L 402.097656 214.84375 L 404.300781 212.109375 L 405.816406 209.207031 L 406.609375 206.167969 L 406.652344 203.03125 L 405.957031 199.835938 L 404.558594 196.625 L 402.503906 193.445313 L 399.875 190.328125 L 396.769531 187.3125 L 393.296875 184.417969 L 389.578125 181.660156 L 381.933594 176.585938 L 378.269531 174.246094 L 374.875 172.015625 L 371.855469 169.863281 L 369.3125 167.75 L 367.316406 165.636719 L 365.921875 163.480469 L 365.15625 161.238281 L 365.023438 158.867188 L 365.507813 156.335938 L 366.558594 153.613281 L 368.113281 150.679688 L 370.089844 147.53125 L 372.382813 144.164063 L 374.878906 140.59375 L 377.457031 136.851563 L 379.996094 132.96875 L 382.367188 129 L 384.460938 124.996094 L 386.160156 121.023438 L 387.378906 117.140625 L 388.039063 113.421875 L 388.085938 109.929688 L 387.484375 106.722656 L 386.222656 103.851563 L 384.308594 101.355469 L 381.777344 99.269531 L 378.679688 97.601563 L 375.089844 96.351563 L 371.085938 95.503906 L 366.769531 95.019531 L 362.242188 94.855469 L 357.609375 94.945313 L 352.988281 95.214844 L 348.46875 95.582031 L 344.152344 95.957031 L 340.117188 96.246094 L 336.4375 96.363281 L 333.15625 96.21875 L 330.3125 95.734375 L 327.921875 94.847656 L 325.828125 93.371094 L 324.234375 91.320313 L 323.082031 88.675781 L 322.300781 85.457031 L 321.808594 81.695313 L 321.507813 77.46875 L 321.292969 72.863281 L 321.0625 67.992188 L 320.71875 62.992188 L 320.171875 58 L 319.34375 53.164063 L 318.175781 48.632813 L 316.625 44.542969 L 314.664063 41.019531 L 312.292969 38.164063 L 309.53125 36.0625 L 306.40625 34.761719 L 302.96875 34.28125 L 299.28125 34.613281 L 295.40625 35.707031 L 291.414063 37.492188 L 287.386719 39.859375 L 283.382813 42.6875 L 279.460938 45.828125 L 275.679688 49.121094 L 272.074219 52.402344 L 268.660156 55.511719 L 265.453125 58.292969 L 262.445313 60.609375 L 259.613281 62.347656 L 256.925781 63.414063 L 254.347656 63.746094 L 251.824219 63.324219 L 249.308594 62.152344 L 246.753906 60.277344 L 244.109375 57.769531 L 241.339844 54.734375 L 238.414063 51.304688 L 232.058594 43.863281 L 228.628906 40.175781 L 225.066406 36.738281 L 221.402344 33.699219 L 217.6875 31.207031 L 213.972656 29.375 L 210.324219 28.304688 L 206.800781 28.058594 L 203.460938 28.660156 L 200.359375 30.117188 L 197.539063 32.386719 L 195.03125 35.402344 L 192.851563 39.066406 L 190.996094 43.265625 L 189.453125 47.855469 L 188.179688 52.6875 L 187.128906 57.605469 L 186.230469 62.457031 L 185.410156 67.09375 L 184.582031 71.382813 L 183.652344 75.214844 L 182.539063 78.5 L 181.15625 81.175781 L 179.429688 83.210938 L 177.304688 84.605469 L 174.921875 85.351563 L 172.136719 85.609375 L 168.949219 85.441406 L 165.382813 84.929688 L 161.464844 84.160156 L 157.253906 83.238281 L 152.816406 82.265625 L 148.230469 81.355469 L 143.597656 80.597656 L 139.007813 80.09375 L 134.5625 79.925781 L 130.371094 80.15625 L 126.519531 80.84375 L 123.105469 82.015625 L 120.195313 83.691406 L 117.847656 85.863281 L 116.109375 88.511719 L 114.996094 91.59375 L 114.507813 95.0625 L 114.613281 98.851563 L 115.273438 102.886719 L 116.417969 107.089844 L 117.960938 111.378906 L 119.804688 115.679688 L 121.832031 119.914063 L 123.925781 124.019531 L 125.960938 127.9375 L 127.820313 131.621094 L 129.386719 135.046875 L 130.558594 138.191406 L 131.242188 141.054688 L 131.371094 143.652344 L 130.898438 146.003906 L 129.796875 148.140625 L 128.066406 150.113281 L 125.738281 151.960938 L 122.855469 153.742188 L 119.496094 155.503906 L 115.753906 157.300781 L 111.738281 159.175781 L 107.570313 161.164063 L 103.386719 163.300781 L 99.324219 165.605469 L 95.511719 168.082031 L 92.074219 170.734375 L 89.136719 173.542969 L 86.789063 176.492188 L 85.121094 179.550781 L 84.179688 182.679688 L 84.003906 185.839844 L 84.597656 188.984375 L 85.941406 192.082031 L 87.988281 195.082031 L 90.667969 197.960938 L 93.886719 200.6875 L 97.542969 203.242188 L 101.511719 205.625 L 105.65625 207.835938 L 113.949219 211.8125 L 117.828125 213.640625 L 121.378906 215.414063 L 124.488281 217.179688 L 127.078125 218.988281 L 129.050781 220.859375 L 130.433594 222.871094 L 131.207031 225.066406 L 131.382813 227.480469 L 131 230.144531 L 130.113281 233.070313 L 128.792969 236.269531 L 127.128906 239.730469 L 125.226563 243.433594 L 123.195313 247.347656 L 121.152344 251.417969 L 119.210938 255.597656 L 117.480469 259.820313 L 116.066406 264.011719 L 115.0625 268.097656 L 114.539063 272 L 114.558594 275.652344 L 115.160156 278.980469 L 116.363281 281.933594 L 118.167969 284.457031 L 120.546875 286.515625 L 123.464844 288.097656 L 126.859375 289.199219 L 130.664063 289.832031 L 134.796875 290.03125 L 139.160156 289.851563 L 143.664063 289.351563 L 148.207031 288.609375 L 152.703125 287.714844 L 157.058594 286.761719 L 161.203125 285.855469 L 165.066406 285.085938 L 168.597656 284.554688 L 171.765625 284.347656 L 174.550781 284.539063 L 176.945313 285.195313 L 178.964844 286.359375 L 180.644531 288.058594 L 182.015625 290.296875 L 183.136719 293.0625 L 184.066406 296.3125 L 184.871094 299.992188 L 185.621094 304.027344 L 186.378906 308.328125 L 187.214844 312.785156 L 188.183594 317.289063 L 189.339844 321.71875 L 190.71875 325.957031 L 192.355469 329.882813 L 194.265625 333.394531 L 196.449219 336.394531 L 198.902344 338.796875 L 201.605469 340.542969 L 204.527344 341.589844 L 207.640625 341.917969 L 210.894531 341.535156 L 214.246094 340.472656 L 217.644531 338.777344 L 221.046875 336.523438 L 224.414063 333.800781 L 227.699219 330.722656 L 230.878906 327.402344 L 236.835938 320.539063 L 239.824219 316.984375 L 242.652344 313.746094 L 245.339844 310.960938 L 247.921875 308.746094 L 250.433594 307.191406 L 252.929688 306.355469 L 255.453125 306.261719 L 258.054688 306.914063 L 260.777344 308.261719 L 263.660156 310.238281 L 266.726563 312.742188 L 269.992188 315.652344 L 273.460938 318.828125 L 277.113281 322.109375 L 280.925781 325.339844 L 284.855469 328.359375 L 288.847656 331.015625 L 292.84375 333.175781 L 296.773438 334.714844 L 300.566406 335.546875 L 304.152344 335.609375 L 307.46875 334.859375 L 310.460938 333.304688 L 313.082031 330.972656 L 315.308594 327.921875 L 317.132813 324.242188 L 318.554688 320.035156 L 319.613281 315.433594 L 320.351563 310.574219 L 320.828125 305.601563 L 321.132813 300.65625 L 321.34375 295.878906 L 321.570313 291.390625 L 321.910156 287.296875 L 322.457031 283.6875 L 323.3125 280.621094 L 324.550781 278.128906 L 326.238281 276.21875 L 328.421875 274.871094 L 331.128906 274.035156 L 334.351563 273.648438 L 338.070313 273.621094 L 342.226563 273.847656 L 346.753906 274.222656 L 351.550781 274.632813 L 356.507813 274.960938 L 361.496094 275.101563 L 366.390625 274.964844 L 371.050781 274.460938 L 375.347656 273.535156 L 379.160156 272.140625 L 382.386719 270.261719 L 384.945313 267.902344 L 386.773438 265.074219 L 387.839844 261.828125 L 388.140625 258.21875 L 387.710938 254.3125 L 386.609375 250.191406 L 384.914063 245.933594 L 382.742188 241.625 L 380.21875 237.34375 L 377.496094 233.160156 L 372.050781 225.316406 L 369.785156 221.964844 L 367.855469 218.828125 L 366.363281 215.914063 L 365.390625 213.210938 L 365.003906 210.695313 L 365.238281 208.339844 L 366.117188 206.101563 L 367.625 203.945313 L 369.734375 201.828125 L 372.382813 199.699219 L 375.492188 197.523438 L 378.964844 195.265625 L 382.6875 192.890625 L 386.53125 190.386719 L 390.367188 187.734375 L 394.0625 184.933594 L 397.480469 181.996094 L 400.507813 178.941406 L 403.023438 175.792969 L 404.941406 172.585938 L 406.1875 169.363281 L 406.710938 166.164063 L 406.484375 163.03125 L 405.503906 160.007813 L 403.800781 157.128906 L 401.417969 154.433594 L 398.433594 151.941406 L 394.933594 149.667969 L 391.023438 147.609375 L 386.824219 145.769531 L 382.464844 144.117188 L 378.074219 142.628906 L 373.773438 141.257813 L 369.691406 139.960938 L 365.933594 138.675781 L 362.59375 137.351563 L 359.75 135.917969 L 357.453125 134.324219 L 355.742188 132.515625 L 354.621094 130.441406 L 354.082031 128.0625 L 354.078125 125.363281 L 354.558594 122.324219 L 355.449219 118.953125 L 356.652344 115.265625 L 358.070313 111.304688 L 359.589844 107.109375 L 361.101563 102.75 L 362.496094 98.296875 L 363.664063 93.835938 L 364.515625 89.445313 L 364.960938 85.226563 L 364.933594 81.257813 L 364.386719 77.625 L 363.292969 74.402344 L 361.636719 71.652344 L 359.429688 69.421875 L 356.703125 67.742188 L 353.503906 66.617188 L 349.886719 66.046875 L 345.933594 65.996094 L 341.722656 66.421875 L 337.339844 67.253906 L 332.878906 68.410156 L 328.054688 69.917969 L 323.339844 71.5625 L 318.835938 73.199219 L 314.609375 74.6875 L 310.722656 75.890625 L 307.21875 76.679688 L 304.105469 76.949219 L 301.386719 76.613281 L 299.03125 75.613281 L 297 73.921875 L 295.238281 71.539063 L 293.675781 68.507813 L 292.238281 64.890625 L 290.847656 60.78125 L 287.917969 51.617188 L 286.25 46.855469 L 284.378906 42.1875 L 282.265625 37.777344 L 279.902344 33.785156 L 277.277344 30.355469 L 274.40625 27.605469 L 271.320313 25.632813 L 268.058594 24.507813 L 264.664063 24.261719 L 261.191406 24.898438 L 257.695313 26.375 L 254.234375 28.628906 L 250.851563 31.554688 L 247.59375 35.027344 L 244.484375 38.898438 L 241.542969 43.007813 L 238.777344 47.1875 L 236.171875 51.261719 L 233.707031 55.078125 L 231.34375 58.484375 L 229.035156 61.347656 L 226.738281 63.578125 L 224.390625 65.09375 L 221.9375 65.867188 L 219.328125 65.886719 L 216.515625 65.191406 L 213.472656 63.839844 L 210.175781 61.929688 L 206.617188 59.582031 L 202.8125 56.933594 L 198.789063 54.140625 L 194.589844 51.359375 L 190.277344 48.75 L 185.917969 46.464844 L 181.597656 44.644531 L 177.394531 43.410156 L 173.398438 42.847656 L 169.695313 43.027344 L 166.347656 43.984375 L 163.429688 45.726563 L 160.976563 48.214844 L 159.015625 51.402344 L 157.554688 55.199219 L 156.574219 59.503906 L 156.03125 64.191406 L 155.863281 69.125 L 155.992188 74.167969 L 156.316406 79.1875 L 156.71875 83.960938 L 157.097656 88.472656 L 157.339844 92.628906 L 157.332031 96.351563 L 156.976563 99.59375 L 156.191406 102.324219 L 154.902344 104.539063 L 153.0625 106.265625 L 150.648438 107.539063 L 147.667969 108.425781 L 144.144531 109.003906 L 140.140625 109.359375 L 135.730469 109.59375 L 131.019531 109.800781 L 126.125 110.082031 L 121.179688 110.523438 L 116.328125 111.210938 L 111.703125 112.203125 L 107.449219 113.550781 L 103.6875 115.285156 L 100.53125 117.417969 L 98.070313 119.945313 L 96.363281 122.84375 L 95.453125 126.074219 L 95.335938 129.582031 L 95.992188 133.304688 L 97.367188 137.183594 L 99.371094 141.140625 L 101.898438 145.113281 L 104.820313 149.035156 L 107.988281 152.855469 L 111.25 156.53125 L 114.445313 160.023438 L 117.425781 163.324219 L 120.042969 166.425781 L 122.175781 169.339844 L 123.710938 172.089844 L 124.578125 174.707031 L 124.722656 177.230469 L 124.132813 179.710938 L 122.820313 182.195313 L 120.832031 184.734375 L 118.253906 187.359375 L 115.179688 190.117188 L 111.75 193.023438 L 108.097656 196.101563 L 104.386719 199.34375 L 100.773438 202.738281 L 97.417969 206.265625 L 94.464844 209.886719 L 92.054688 213.554688 L 90.300781 217.210938 L 89.285156 220.804688 L 89.070313 224.273438 L 89.6875 227.5625 L 91.132813 230.617188 L 93.367188 233.398438 L 96.328125 235.878906 L 99.925781 238.039063 L 104.042969 239.878906 L 108.546875 241.421875 L 113.300781 242.691406 L 118.148438 243.746094 L 122.945313 244.640625 L 127.25 245.402344 L 131.28125 246.15625 L 134.945313 246.972656 L 138.171875 247.921875 L 140.898438 249.066406 L 143.097656 250.472656 L 144.75 252.191406 L 145.867188 254.261719 L 146.472656 256.710938 L 146.617188 259.550781 L 146.363281 262.777344 L 145.796875 266.371094 L 145 270.292969 L 144.074219 274.488281 L 143.121094 278.890625 L 142.238281 283.417969 L 141.523438 287.984375 L 141.066406 292.492188 L 140.9375 296.847656 L 141.207031 300.949219 L 141.921875 304.710938 L 143.109375 308.046875 L 144.78125 310.886719 L 146.9375 313.175781 L 149.554688 314.875 L 152.597656 315.96875 L 156.011719 316.457031 L 159.734375 316.363281 L 163.703125 315.734375 L 167.835938 314.632813 L 172.058594 313.136719 L 176.296875 311.34375 L 180.476563 309.359375 L 184.535156 307.296875 L 188.421875 305.277344 L 192.085938 303.414063 L 195.503906 301.816406 L 198.648438 300.589844 L 201.523438 299.816406 L 204.132813 299.574219 L 206.5 299.90625 L 208.652344 300.84375 L 210.628906 302.394531 L 212.476563 304.539063 L 214.242188 307.230469 L 215.980469 310.410156 L 217.734375 313.992188 L 219.550781 317.875 L 221.46875 321.941406 L 223.519531 326.074219 L 225.726563 330.136719 L 228.101563 334.003906 L 230.644531 337.546875 L 233.351563 340.660156 L 236.199219 343.230469 L 239.167969 345.179688 L 242.222656 346.441406 L 245.324219 346.972656 L 248.4375 346.757813 L 251.515625 345.804688 L 254.527344 344.140625 L 257.429688 341.824219 L 260.199219 338.929688 L 262.8125 335.554688 L 265.457031 331.480469 L 267.902344 327.125 L 270.164063 322.652344 L 272.261719 318.226563 L 274.234375 314.007813 L 276.136719 310.140625 L 278.019531 306.753906 L 279.949219 303.953125 L 281.988281 301.8125 L 284.199219 300.378906 L 286.636719 299.664063 L 289.339844 299.648438 L 292.347656 300.28125 L 295.675781 301.476563 L 299.320313 303.136719 L 303.265625 305.125 L 307.46875 307.3125 L 311.878906 309.546875 L 316.425781 311.675781 L 321.023438 313.558594 L 325.582031 315.0625 L 330 316.066406 L 334.1875 316.480469 L 338.046875 316.234375 L 341.496094 315.289063 L 344.464844 313.625 L 346.902344 311.261719 L 348.773438 308.246094 L 350.074219 304.640625 L 350.816406 300.539063 L 351.042969 296.042969 L 350.816406 291.277344 L 350.222656 286.355469 L 349.363281 281.410156 L 348.355469 276.554688 L 347.328125 271.902344 L 346.402344 267.539063 L 345.714844 263.542969 L 345.371094 259.972656 L 345.484375 256.851563 L 346.136719 254.191406 L 347.386719 251.976563 L 349.273438 250.167969 L 351.796875 248.71875 L 354.9375 247.550781 L 358.636719 246.589844 L 362.820313 245.75 L 367.375 244.933594 L 372.171875 244.066406 L 377.074219 243.0625 L 381.929688 241.851563 L 386.582031 240.382813 L 390.882813 238.617188 L 394.683594 236.523438 L 397.867188 234.105469 L 400.332031 231.371094 L 402.003906 228.351563 L 402.832031 225.078125 L 402.808594 221.605469 L 401.960938 217.996094 L 400.335938 214.304688 L 398.019531 210.589844 L 395.128906 206.917969 L 391.792969 203.332031 L 388.417969 200.097656 L 384.921875 196.996094 L 381.441406 194.042969 L 378.105469 191.238281 L 375.046875 188.578125 L 372.375 186.042969 L 370.1875 183.605469 L 368.570313 181.238281 L 367.566406 178.898438 L 367.21875 176.546875 L 367.527344 174.144531 L 368.46875 171.652344 L 370 169.039063 L 372.054688 166.273438 L 374.535156 163.339844 L 377.339844 160.230469 L 380.347656 156.945313 L 383.425781 153.5 L 386.449219 149.917969 L 389.28125 146.234375 L 391.796875 142.492188 L 393.886719 138.742188 L 395.445313 135.039063 L 396.398438 131.445313 L 396.6875 128.015625 L 396.269531 124.804688 L 395.140625 121.859375 L 393.3125 119.226563 L 390.820313 116.925781 L 387.722656 114.980469 L 384.105469 113.390625 L 380.054688 112.144531 L 375.683594 111.214844 L 371.105469 110.558594 L 366.4375 110.125 L 361.800781 109.84375 L 357.308594 109.640625 L 353.058594 109.433594 L 349.148438 109.144531 L 345.644531 108.6875 L 342.609375 107.984375 L 340.070313 106.964844 L 338.042969 105.574219 L 336.523438 103.757813 L 335.476563 101.496094 L 334.863281 98.773438 L 334.617188 95.601563 L 334.660156 92.003906 L 334.910156 88.03125 L 335.273438 83.75 L 335.65625 79.238281 L 335.964844 74.589844 L 336.109375 69.90625 L 336.015625 65.300781 L 335.609375 60.882813 L 334.84375 56.757813 L 333.675781 53.03125 L 332.082031 49.792969 L 330.0625 47.113281 L 327.621094 45.058594 L 324.792969 43.660156 L 321.609375 42.933594 L 318.128906 42.875 L 314.40625 43.449219 L 310.585938 44.570313 L 306.664063 46.179688 L 302.703125 48.1875 L 298.765625 50.492188 L 294.902344 52.980469 L 291.167969 55.53125 L 284.214844 60.359375 L 281.046875 62.398438 L 278.089844 64.050781 L 275.34375 65.230469 L 272.789063 65.867188 L 270.398438 65.914063 L 268.148438 65.34375 L 265.992188 64.148438 L 263.890625 62.355469 L 261.804688 60.007813 L 259.691406 57.171875 L 257.515625 53.929688 L 255.242188 50.382813 L 252.851563 46.652344 L 250.324219 42.851563 L 247.652344 39.113281 L 244.84375 35.566406 L 241.902344 32.328125 L 238.859375 29.515625 L 235.734375 27.230469 L 232.566406 25.550781 L 229.390625 24.539063 L 226.253906 24.246094 L 223.195313 24.679688 L 220.253906 25.835938 L 217.464844 27.6875 L 214.851563 30.179688 L 212.445313 33.242188 L 210.25 36.785156 L 208.265625 40.699219 L 206.484375 44.871094 L 204.886719 49.179688 L 203.441406 53.5 L 202.101563 57.710938 L 200.828125 61.699219 L 199.5625 65.363281 L 198.25 68.617188 L 196.832031 71.378906 L 195.253906 73.609375 L 193.460938 75.269531 L 191.410156 76.359375 L 189.066406 76.886719 L 186.40625 76.890625 L 183.421875 76.425781 L 180.109375 75.5625 L 176.496094 74.390625 L 172.609375 73.003906 L 168.496094 71.511719 L 164.210938 70.015625 L 159.832031 68.625 L 155.433594 67.4375 L 151.097656 66.554688 L 146.90625 66.050781 L 142.949219 65.992188 L 139.304688 66.429688 L 136.046875 67.402344 L 133.234375 68.914063 L 130.742188 71.160156 L 128.871094 74.007813 L 127.640625 77.402344 L 127.042969 81.273438 L 127.035156 85.523438 L 127.558594 90.058594 L 128.53125 94.765625 L 129.847656 99.542969 L 131.390625 104.277344 L 133.023438 108.875 L 134.613281 113.253906 L 136.023438 117.339844 L 137.121094 121.085938 L 137.796875 124.457031 L 137.941406 127.441406 L 137.488281 130.050781 L 136.378906 132.3125 L 134.59375 134.265625 L 132.144531 135.96875 L 129.066406 137.488281 L 125.433594 138.894531 L 121.335938 140.265625 L 112.257813 143.171875 L 107.5625 144.828125 L 102.96875 146.6875 L 98.636719 148.777344 L 94.714844 151.121094 L 91.339844 153.710938 L 88.628906 156.539063 L 86.671875 159.582031 L 85.539063 162.796875 L 85.265625 166.140625 L 85.84375 169.558594 L 87.246094 173.003906 L 89.40625 176.425781 L 92.230469 179.769531 L 95.601563 182.996094 L 99.378906 186.082031 L 103.410156 189.003906 L 107.53125 191.757813 L 111.582031 194.355469 L 115.398438 196.808594 L 118.847656 199.15625 L 121.792969 201.4375 L 124.136719 203.699219 L 125.800781 206 L 126.75 208.386719 L 126.964844 210.914063 L 126.46875 213.628906 L 125.316406 216.558594 L 123.589844 219.734375 L 121.398438 223.160156 L 118.867188 226.832031 L 113.378906 234.8125 L 110.726563 239.03125 L 108.332031 243.320313 L 106.335938 247.609375 L 104.863281 251.8125 L 104.011719 255.847656 L 103.859375 259.640625 L 104.453125 263.109375 L 105.804688 266.191406 L 107.742188 268.679688 L 110.296875 270.753906 L 113.421875 272.410156 L 117.035156 273.648438 L 121.0625 274.480469 L 125.398438 274.949219 L 129.941406 275.101563 L 134.578125 275.003906 L 139.210938 274.726563 L 143.726563 274.355469 L 148.039063 273.980469 L 152.0625 273.699219 L 155.730469 273.59375 L 158.992188 273.757813 L 161.816406 274.261719 L 164.1875 275.179688 L 166.109375 276.550781 L 167.609375 278.414063 L 168.722656 280.785156 L 169.511719 283.652344 L 170.03125 286.988281 L 170.363281 290.75 L 170.585938 294.867188 L 170.777344 299.257813 L 171.023438 303.820313 L 171.394531 308.457031 L 171.960938 313.046875 L 172.777344 317.472656 L 173.894531 321.621094 L 175.339844 325.386719 L 177.132813 328.671875 L 179.277344 331.386719 L 181.761719 333.472656 L 184.5625 334.882813 L 187.644531 335.589844 L 190.964844 335.597656 L 194.46875 334.929688 L 198.101563 333.636719 L 201.808594 331.789063 L 205.535156 329.46875 L 209.222656 326.789063 L 212.832031 323.863281 L 219.660156 317.777344 L 222.832031 314.882813 L 225.832031 312.242188 L 228.660156 309.980469 L 231.328125 308.183594 L 233.859375 306.933594 L 236.285156 306.292969 L 238.640625 306.289063 L 240.964844 306.933594 L 243.292969 308.207031 L 245.671875 310.070313 L 248.128906 312.460938 L 250.695313 315.289063 L 253.394531 318.453125 L 256.234375 321.839844 L 259.226563 325.316406 L 262.359375 328.753906 L 265.617188 332.023438 L 268.96875 334.996094 L 272.386719 337.554688 L 275.828125 339.59375 L 279.636719 341.15625 L 283.351563 341.875 L 286.898438 341.699219 L 290.222656 340.613281 L 293.265625 338.640625 L 295.988281 335.835938 L 298.367188 332.296875 L 300.394531 328.144531 L 302.085938 323.523438 L 303.472656 318.59375 L 304.613281 313.527344 L 305.566406 308.496094 L 306.421875 303.660156 L 307.269531 299.167969 L 308.210938 295.148438 L 309.335938 291.703125 L 310.742188 288.898438 L 312.511719 286.777344 L 314.703125 285.335938 L 317.363281 284.550781 L 320.515625 284.351563 L 324.15625 284.648438 L 328.25 285.335938 L 332.746094 286.28125 L 337.554688 287.34375 L 342.578125 288.382813 L 347.695313 289.261719 L 352.773438 289.847656 L 357.679688 290.03125 L 362.273438 289.71875 L 366.429688 288.84375 L 370.03125 287.371094 L 372.984375 285.285156 L 375.21875 282.601563 L 376.699219 279.363281 L 377.417969 275.632813 L 377.398438 271.496094 L 376.695313 267.050781 L 375.40625 262.402344 L 373.640625 257.65625 L 371.539063 252.917969 L 369.257813 248.285156 L 366.960938 243.84375 L 364.808594 239.660156 L 362.964844 235.785156 L 361.570313 232.242188 L 360.757813 229.046875 L 360.613281 226.175781 L 361.207031 223.605469 L 362.570313 221.285156 L 364.691406 219.15625 L 367.53125 217.152344 L 371 215.203125 L 374.992188 213.238281 L 383.941406 209.015625 L 388.566406 206.667969 L 393.046875 204.113281 L 397.203125 201.347656 L 400.867188 198.371094 L 403.886719 195.207031 L 406.140625 191.890625 L 407.53125 188.464844 L 408 184.980469 " transform="matrix(1,0,0,1,-66,-5)"/>
</g>
</svg>
