<?xml version="1.0" encoding="UTF-8"?>
<svg xmlns="http://www.w3.org/2000/svg" xmlns:xlink="http://www.w3.org/1999/xlink" width="360pt" height="359pt" viewBox="0 0 360 359" version="1.1">
<g id="surface28">
<path style="fill:none;stroke-width:3.6;stroke-linecap:square;stroke-linejoin:miter;stroke:rgb(99.998474%,50%,0%);stroke-opacity:1;stroke-miterlimit:3.25;" d="M 269.183594 45.101563 L 275.410156 44.308594 L 281.546875 43.976563 L 287.554688 44.109375 L 293.390625 44.691406 L 299.019531 45.714844 L 304.402344 47.164063 L 309.5 49.019531 L 314.28125 51.257813 L 318.71875 53.855469 L 322.777344 56.785156 L 326.433594 60.011719 L 329.667969 63.503906 L 332.464844 67.222656 L 334.804688 71.136719 L 336.675781 75.207031 L 338.078125 79.390625 L 339.003906 83.648438 L 339.457031 87.941406 L 339.441406 92.230469 L 338.96875 96.476563 L 338.050781 100.636719 L 336.707031 104.675781 L 334.953125 108.5625 L 332.820313 112.261719 L 330.328125 115.738281 L 327.515625 118.964844 L 324.414063 121.921875 L 321.054688 124.578125 L 317.480469 126.921875 L 313.726563 128.933594 L 309.835938 130.597656 L 305.851563 131.914063 L 301.816406 132.875 L 297.769531 133.476563 L 293.757813 133.726563 L 289.824219 133.628906 L 286.003906 133.195313 L 282.34375 132.441406 L 278.878906 131.386719 L 275.648438 130.050781 L 272.679688 128.457031 L 270.011719 126.636719 L 267.667969 124.617188 L 265.679688 122.429688 L 264.0625 120.113281 L 262.839844 117.703125 L 262.019531 115.238281 L 261.621094 112.753906 L 261.648438 110.289063 L 262.101563 107.890625 L 262.984375 105.589844 L 264.285156 103.429688 L 266 101.449219 L 268.113281 99.683594 L 270.613281 98.167969 L 273.472656 96.9375 L 276.671875 96.023438 L 280.183594 95.457031 L 283.980469 95.253906 L 288.023438 95.449219 L 292.285156 96.054688 L 296.726563 97.085938 L 301.308594 98.558594 L 305.988281 100.476563 L 311.132813 103.070313 L 316.296875 106.195313 L 321.429688 109.847656 L 326.472656 114.011719 L 331.382813 118.675781 L 336.109375 123.816406 L 340.601563 129.410156 L 344.8125 135.421875 L 348.707031 141.816406 L 352.246094 148.550781 L 355.390625 155.589844 L 358.113281 162.875 L 360.386719 170.363281 L 362.195313 178.003906 L 363.519531 185.738281 L 364.351563 193.511719 L 364.6875 201.269531 L 364.523438 208.957031 L 363.867188 216.515625 L 362.734375 223.894531 L 361.136719 231.042969 L 359.09375 237.902344 L 356.640625 244.433594 L 353.800781 250.589844 L 350.613281 256.328125 L 347.113281 261.613281 L 343.347656 266.417969 L 339.351563 270.707031 L 335.183594 274.464844 L 330.882813 277.667969 L 326.503906 280.316406 L 322.097656 282.390625 L 317.710938 283.902344 L 313.398438 284.851563 L 309.207031 285.25 L 305.183594 285.113281 L 301.375 284.464844 L 297.824219 283.332031 L 294.566406 281.746094 L 291.644531 279.738281 L 289.085938 277.351563 L 286.917969 274.632813 L 285.164063 271.621094 L 283.839844 268.367188 L 282.964844 264.925781 L 282.542969 261.34375 L 282.574219 257.671875 L 283.058594 253.972656 L 283.984375 250.289063 L 285.339844 246.675781 L 287.101563 243.1875 L 289.25 239.863281 L 291.753906 236.757813 L 294.578125 233.914063 L 297.6875 231.363281 L 301.042969 229.144531 L 304.59375 227.292969 L 308.292969 225.832031 L 312.09375 224.785156 L 315.945313 224.164063 L 319.796875 223.984375 L 323.585938 224.25 L 327.269531 224.960938 L 330.789063 226.117188 L 333.886719 227.585938 L 336.753906 229.417969 L 339.355469 231.597656 L 341.652344 234.105469 L 343.609375 236.914063 L 345.199219 240.003906 L 346.390625 243.335938 L 347.15625 246.886719 L 347.476563 250.621094 L 347.332031 254.492188 L 346.707031 258.472656 L 345.59375 262.519531 L 343.984375 266.589844 L 341.878906 270.644531 L 339.277344 274.640625 L 336.1875 278.542969 L 332.621094 282.304688 L 328.59375 285.886719 L 324.121094 289.257813 L 319.230469 292.378906 L 313.945313 295.214844 L 308.296875 297.738281 L 302.320313 299.917969 L 296.046875 301.734375 L 289.515625 303.15625 L 282.769531 304.175781 L 275.851563 304.777344 L 268.800781 304.945313 L 261.667969 304.679688 L 254.492188 303.972656 L 247.324219 302.832031 L 240.203125 301.257813 L 233.175781 299.265625 L 226.289063 296.871094 L 219.582031 294.085938 L 213.097656 290.933594 L 206.867188 287.445313 L 200.929688 283.640625 L 195.320313 279.558594 L 190.066406 275.230469 L 185.195313 270.691406 L 180.726563 265.984375 L 176.683594 261.144531 L 173.074219 256.214844 L 169.914063 251.238281 L 167.210938 246.257813 L 164.960938 241.320313 L 163.167969 236.460938 L 161.824219 231.726563 L 160.917969 227.15625 L 160.4375 222.789063 L 160.363281 218.664063 L 160.671875 214.8125 L 161.34375 211.269531 L 162.347656 208.070313 L 163.652344 205.230469 L 165.222656 202.78125 L 167.027344 200.734375 L 169.027344 199.113281 L 171.179688 197.925781 L 173.449219 197.179688 L 175.796875 196.878906 L 178.175781 197.015625 L 180.546875 197.59375 L 182.828125 198.578125 L 185.027344 199.957031 L 187.105469 201.722656 L 189.03125 203.847656 L 190.773438 206.308594 L 192.300781 209.085938 L 193.582031 212.140625 L 194.597656 215.449219 L 195.320313 218.972656 L 195.734375 222.671875 L 195.824219 226.515625 L 195.578125 230.457031 L 194.984375 234.460938 L 194.039063 238.480469 L 192.746094 242.476563 L 191.101563 246.40625 L 189.117188 250.230469 L 186.800781 253.902344 L 184.164063 257.390625 L 181.230469 260.65625 L 178.015625 263.65625 L 174.542969 266.363281 L 170.84375 268.742188 L 166.945313 270.765625 L 162.875 272.40625 L 158.675781 273.644531 L 154.375 274.460938 L 150.011719 274.835938 L 145.625 274.761719 L 141.253906 274.230469 L 136.9375 273.238281 L 132.71875 271.78125 L 128.628906 269.867188 L 124.714844 267.5 L 121.007813 264.695313 L 117.546875 261.464844 L 114.363281 257.832031 L 111.492188 253.8125 L 108.964844 249.4375 L 106.800781 244.734375 L 105.03125 239.730469 L 103.675781 234.460938 L 102.75 228.960938 L 102.269531 223.269531 L 102.246094 217.421875 L 102.683594 211.464844 L 103.585938 205.429688 L 104.949219 199.363281 L 106.773438 193.300781 L 109.046875 187.289063 L 111.761719 181.367188 L 114.894531 175.570313 L 118.429688 169.933594 L 122.339844 164.5 L 126.605469 159.296875 L 131.191406 154.355469 L 136.066406 149.703125 L 141.199219 145.371094 L 146.546875 141.375 L 152.078125 137.734375 L 157.746094 134.46875 L 163.515625 131.585938 L 169.34375 129.09375 L 175.183594 127 L 181.484375 125.171875 L 187.703125 123.808594 L 193.78125 122.898438 L 199.671875 122.425781 L 205.320313 122.367188 L 210.6875 122.703125 L 215.726563 123.402344 L 220.398438 124.433594 L 224.671875 125.761719 L 228.507813 127.347656 L 231.882813 129.144531 L 234.773438 131.109375 L 237.167969 133.195313 L 239.054688 135.359375 L 240.421875 137.550781 L 241.273438 139.714844 L 241.617188 141.8125 L 241.457031 143.792969 L 240.808594 145.609375 L 239.699219 147.214844 L 238.152344 148.574219 L 236.191406 149.648438 L 233.859375 150.398438 L 231.191406 150.792969 L 228.226563 150.8125 L 225.015625 150.425781 L 221.601563 149.617188 L 218.03125 148.375 L 214.363281 146.691406 L 210.640625 144.5625 L 206.921875 141.992188 L 203.253906 138.988281 L 199.691406 135.566406 L 196.285156 131.738281 L 193.078125 127.535156 L 190.121094 122.980469 L 187.453125 118.105469 L 185.117188 112.949219 L 183.148438 107.550781 L 181.582031 101.957031 L 180.4375 96.207031 L 179.742188 90.355469 L 179.515625 84.453125 L 179.769531 78.546875 L 180.507813 72.695313 L 181.738281 66.945313 L 183.457031 61.355469 L 185.652344 55.976563 L 188.3125 50.851563 L 191.421875 46.039063 L 194.953125 41.578125 L 198.882813 37.515625 L 203.171875 33.886719 L 207.792969 30.734375 L 212.699219 28.082031 L 217.855469 25.960938 L 223.210938 24.390625 L 228.71875 23.390625 L 234.335938 22.96875 L 240.007813 23.140625 L 245.683594 23.894531 L 251.316406 25.234375 L 256.859375 27.148438 L 262.257813 29.621094 L 267.125 32.410156 L 271.796875 35.652344 L 276.234375 39.3125 L 280.402344 43.371094 L 284.277344 47.792969 L 287.832031 52.546875 L 291.042969 57.59375 L 293.890625 62.902344 L 296.359375 68.421875 L 298.433594 74.117188 L 300.109375 79.945313 L 301.382813 85.863281 L 302.246094 91.820313 L 302.710938 97.78125 L 302.785156 103.699219 L 302.472656 109.53125 L 301.792969 115.234375 L 300.761719 120.773438 L 299.410156 126.105469 L 297.753906 131.195313 L 295.824219 136.015625 L 293.65625 140.53125 L 291.277344 144.714844 L 288.726563 148.546875 L 286.046875 152.003906 L 283.265625 155.070313 L 280.433594 157.734375 L 277.585938 159.988281 L 274.765625 161.828125 L 272.011719 163.253906 L 269.367188 164.265625 L 266.871094 164.875 L 264.5625 165.097656 L 262.472656 164.941406 L 260.644531 164.425781 L 259.105469 163.582031 L 257.886719 162.425781 L 257.011719 160.992188 L 256.511719 159.308594 L 256.398438 157.414063 L 256.695313 155.339844 L 257.410156 153.121094 L 258.554688 150.804688 L 260.132813 148.421875 L 262.144531 146.019531 L 264.585938 143.628906 L 267.453125 141.300781 L 270.734375 139.066406 L 274.410156 136.96875 L 278.460938 135.042969 L 282.871094 133.324219 L 287.605469 131.84375 L 292.640625 130.632813 L 297.941406 129.722656 L 303.472656 129.136719 L 309.199219 128.894531 L 315.074219 129.015625 L 321.066406 129.511719 L 327.125 130.398438 L 333.210938 131.683594 L 339.277344 133.367188 L 345.28125 135.445313 L 351.179688 137.917969 L 356.929688 140.777344 L 362.941406 144.292969 L 368.675781 148.222656 L 374.082031 152.542969 L 379.117188 157.222656 L 383.734375 162.226563 L 387.898438 167.515625 L 391.570313 173.046875 L 394.722656 178.773438 L 397.332031 184.652344 L 399.375 190.628906 L 400.84375 196.652344 L 401.722656 202.675781 L 402.011719 208.640625 L 401.71875 214.496094 L 400.847656 220.191406 L 399.410156 225.679688 L 397.433594 230.90625 L 394.933594 235.832031 L 391.949219 240.414063 L 388.503906 244.609375 L 384.648438 248.386719 L 380.414063 251.714844 L 375.851563 254.570313 L 371.007813 256.929688 L 365.929688 258.773438 L 360.675781 260.101563 L 355.296875 260.898438 L 349.84375 261.175781 L 344.371094 260.929688 L 338.933594 260.183594 L 333.578125 258.945313 L 328.359375 257.242188 L 323.324219 255.101563 L 318.515625 252.558594 L 313.972656 249.648438 L 309.738281 246.410156 L 305.84375 242.890625 L 302.3125 239.136719 L 299.175781 235.199219 L 296.449219 231.128906 L 294.144531 226.980469 L 292.273438 222.808594 L 290.835938 218.664063 L 289.832031 214.609375 L 289.25 210.695313 L 289.078125 206.96875 L 289.296875 203.488281 L 289.882813 200.292969 L 290.808594 197.433594 L 292.039063 194.945313 L 293.539063 192.871094 L 295.269531 191.238281 L 297.1875 190.078125 L 299.246094 189.414063 L 301.398438 189.257813 L 303.59375 189.625 L 305.785156 190.523438 L 307.921875 191.949219 L 309.953125 193.898438 L 311.828125 196.359375 L 313.5 199.320313 L 314.925781 202.753906 L 316.058594 206.632813 L 316.863281 210.929688 L 317.292969 215.519531 L 317.339844 220.433594 L 316.972656 225.636719 L 316.171875 231.078125 L 314.914063 236.714844 L 313.195313 242.496094 L 310.996094 248.375 L 308.324219 254.292969 L 305.175781 260.207031 L 301.554688 266.054688 L 297.480469 271.792969 L 292.964844 277.367188 L 288.035156 282.730469 L 282.710938 287.835938 L 277.027344 292.640625 L 271.023438 297.105469 L 264.730469 301.1875 L 258.191406 304.859375 L 251.457031 308.089844 L 244.570313 310.855469 L 237.582031 313.132813 L 230.542969 314.910156 L 223.503906 316.179688 L 216.519531 316.933594 L 209.636719 317.171875 L 202.910156 316.902344 L 196.394531 316.136719 L 190.128906 314.886719 L 184.164063 313.179688 L 178.546875 311.03125 L 173.3125 308.480469 L 168.5 305.550781 L 164.140625 302.289063 L 160.261719 298.726563 L 156.890625 294.910156 L 154.046875 290.886719 L 151.738281 286.699219 L 149.980469 282.394531 L 148.773438 278.023438 L 148.113281 273.632813 L 148 269.273438 L 148.414063 264.988281 L 149.339844 260.828125 L 150.753906 256.835938 L 152.632813 253.050781 L 154.941406 249.511719 L 157.648438 246.257813 L 160.710938 243.316406 L 164.085938 240.71875 L 167.730469 238.484375 L 171.597656 236.636719 L 175.632813 235.1875 L 179.789063 234.144531 L 184.011719 233.515625 L 188.253906 233.296875 L 192.457031 233.484375 L 196.574219 234.066406 L 200.554688 235.027344 L 204.347656 236.34375 L 207.914063 237.996094 L 211.203125 239.949219 L 214.183594 242.171875 L 216.808594 244.628906 L 219.058594 247.28125 L 220.785156 249.890625 L 222.140625 252.589844 L 223.105469 255.351563 L 223.667969 258.125 L 223.820313 260.878906 L 223.5625 263.570313 L 222.890625 266.160156 L 221.8125 268.605469 L 220.332031 270.871094 L 218.464844 272.917969 L 216.226563 274.714844 L 213.636719 276.21875 L 210.714844 277.40625 L 207.488281 278.246094 L 203.988281 278.710938 L 200.242188 278.777344 L 196.28125 278.425781 L 192.148438 277.636719 L 187.875 276.402344 L 183.503906 274.710938 L 179.070313 272.558594 L 174.613281 269.941406 L 170.179688 266.867188 L 165.804688 263.335938 L 161.527344 259.363281 L 157.386719 254.960938 L 153.421875 250.152344 L 149.667969 244.953125 L 146.160156 239.394531 L 142.925781 233.5 L 139.996094 227.300781 L 137.394531 220.835938 L 135.148438 214.140625 L 133.277344 207.25 L 131.792969 200.207031 L 130.710938 193.054688 L 130.039063 185.832031 L 129.785156 178.585938 L 129.945313 171.359375 L 130.523438 164.191406 L 131.507813 157.132813 L 132.890625 150.222656 L 134.65625 143.5 L 136.785156 137.007813 L 139.265625 130.777344 L 142.0625 124.847656 L 145.152344 119.253906 L 148.511719 114.023438 L 152.097656 109.179688 L 155.886719 104.75 L 159.832031 100.753906 L 163.90625 97.203125 L 168.0625 94.113281 L 172.269531 91.496094 L 176.480469 89.347656 L 180.660156 87.671875 L 184.765625 86.46875 L 188.761719 85.726563 L 192.609375 85.433594 L 196.273438 85.574219 L 199.71875 86.128906 L 202.914063 87.082031 L 205.832031 88.398438 L 208.441406 90.054688 L 210.898438 92.199219 L 212.941406 94.660156 L 214.546875 97.398438 L 215.703125 100.359375 L 216.398438 103.496094 L 216.625 106.757813 L 216.378906 110.09375 L 215.675781 113.449219 L 214.515625 116.777344 L 212.921875 120.023438 L 210.910156 123.140625 L 208.507813 126.082031 L 205.75 128.808594 L 202.664063 131.269531 L 199.296875 133.4375 L 195.683594 135.273438 L 191.875 136.746094 L 187.914063 137.839844 L 183.855469 138.527344 L 179.753906 138.796875 L 175.65625 138.640625 L 171.617188 138.050781 L 167.691406 137.03125 L 163.933594 135.589844 L 160.390625 133.738281 L 157.117188 131.488281 L 154.15625 128.871094 L 151.558594 125.90625 L 149.359375 122.625 L 147.597656 119.066406 L 146.304688 115.261719 L 145.515625 111.261719 L 145.25 107.105469 L 145.53125 102.84375 L 146.367188 98.519531 L 147.769531 94.183594 L 149.738281 89.886719 L 152.273438 85.679688 L 155.363281 81.609375 L 159 77.726563 L 163.15625 74.078125 L 167.8125 70.710938 L 172.941406 67.660156 L 178.507813 64.96875 L 184.46875 62.671875 L 190.789063 60.800781 L 197.417969 59.378906 L 204.308594 58.433594 L 211.417969 57.980469 L 218.683594 58.03125 L 226.054688 58.589844 L 233.476563 59.660156 L 240.898438 61.242188 L 248.261719 63.320313 L 255.515625 65.882813 L 262.609375 68.910156 L 269.488281 72.378906 L 276.105469 76.253906 L 282.421875 80.511719 L 288.394531 85.105469 L 293.984375 89.996094 L 299.164063 95.140625 L 303.898438 100.488281 L 308.167969 105.996094 L 311.71875 111.230469 L 314.839844 116.515625 L 317.523438 121.804688 L 319.765625 127.054688 L 321.570313 132.226563 L 322.945313 137.273438 L 323.894531 142.15625 L 324.4375 146.835938 L 324.59375 151.273438 L 324.375 155.4375 L 323.8125 159.289063 L 322.933594 162.800781 L 321.765625 165.945313 L 320.347656 168.699219 L 318.707031 171.042969 L 316.882813 172.960938 L 314.917969 174.441406 L 312.84375 175.472656 L 310.707031 176.054688 L 308.546875 176.191406 L 306.398438 175.878906 L 304.304688 175.128906 L 302.308594 173.957031 L 300.441406 172.378906 L 298.738281 170.414063 L 297.238281 168.089844 L 295.96875 165.429688 L 294.960938 162.464844 L 294.234375 159.230469 L 293.820313 155.765625 L 293.734375 152.105469 L 293.988281 148.289063 L 294.597656 144.359375 L 295.570313 140.363281 L 296.90625 136.339844 L 298.609375 132.332031 L 300.671875 128.390625 L 303.089844 124.550781 L 305.847656 120.859375 L 308.933594 117.359375 L 312.320313 114.085938 L 315.988281 111.078125 L 319.914063 108.371094 L 324.0625 106 L 328.40625 103.988281 L 332.90625 102.367188 L 337.527344 101.15625 L 342.230469 100.378906 L 346.976563 100.046875 L 351.726563 100.167969 L 356.433594 100.757813 L 361.058594 101.808594 L 365.558594 103.328125 L 369.890625 105.304688 L 374.019531 107.730469 L 377.902344 110.59375 L 381.5 113.875 L 384.78125 117.550781 L 387.714844 121.601563 L 390.261719 125.996094 L 392.40625 130.703125 L 394.117188 135.691406 L 395.375 140.925781 L 396.164063 146.363281 L 396.472656 151.855469 L 396.308594 157.46875 L 395.671875 163.167969 L 394.558594 168.90625 L 392.976563 174.644531 L 390.925781 180.351563 L 388.425781 185.976563 L 385.484375 191.492188 L 382.121094 196.855469 L 378.363281 202.03125 L 374.230469 206.988281 L 369.753906 211.695313 L 364.960938 216.125 L 359.890625 220.25 L 354.574219 224.050781 L 349.050781 227.503906 L 343.359375 230.59375 L 337.539063 233.316406 L 331.632813 235.652344 L 325.683594 237.601563 L 319.734375 239.164063 L 313.824219 240.339844 L 307.996094 241.132813 L 302.292969 241.558594 L 296.75 241.628906 L 291.40625 241.359375 L 286.296875 240.769531 L 281.457031 239.882813 L 276.917969 238.722656 L 272.707031 237.324219 L 268.851563 235.714844 L 265.367188 233.925781 L 262.28125 231.992188 L 259.601563 229.953125 L 257.34375 227.839844 L 255.507813 225.695313 L 254.109375 223.554688 L 253.136719 221.457031 L 252.589844 219.4375 L 252.464844 217.539063 L 252.742188 215.789063 L 253.410156 214.230469 L 254.453125 212.886719 L 255.84375 211.792969 L 257.558594 210.980469 L 259.566406 210.46875 L 261.84375 210.28125 L 264.351563 210.441406 L 267.054688 210.960938 L 269.921875 211.851563 L 272.910156 213.128906 L 275.984375 214.789063 L 279.097656 216.84375 L 282.21875 219.28125 L 285.300781 222.097656 L 288.3125 225.289063 L 291.207031 228.832031 L 293.953125 232.71875 L 296.511719 236.925781 L 298.851563 241.425781 L 300.9375 246.191406 L 302.742188 251.199219 L 304.238281 256.414063 L 305.40625 261.796875 L 306.269531 267.789063 L 306.699219 273.894531 L 306.675781 280.054688 L 306.1875 286.222656 L 305.226563 292.34375 L 303.792969 298.367188 L 301.886719 304.238281 L 299.523438 309.902344 L 296.714844 315.3125 L 293.476563 320.421875 L 289.832031 325.179688 L 285.8125 329.542969 L 281.449219 333.476563 L 276.78125 336.941406 L 271.839844 339.90625 L 266.675781 342.339844 L 261.328125 344.226563 L 255.84375 345.546875 L 250.273438 346.289063 L 244.667969 346.441406 L 239.070313 346.007813 L 233.535156 344.988281 L 228.113281 343.398438 L 222.84375 341.246094 L 217.78125 338.554688 L 212.964844 335.347656 L 208.4375 331.65625 L 204.234375 327.511719 L 200.390625 322.957031 L 196.9375 318.027344 L 193.898438 312.769531 L 191.300781 307.230469 L 189.152344 301.460938 L 187.472656 295.511719 L 186.265625 289.433594 L 185.53125 283.285156 L 185.265625 277.113281 L 185.457031 270.972656 L 186.097656 264.914063 L 187.164063 258.992188 L 188.632813 253.25 L 190.476563 247.734375 L 192.660156 242.488281 L 195.148438 237.546875 L 197.902344 232.953125 L 200.878906 228.730469 L 204.03125 224.910156 L 207.308594 221.511719 L 210.667969 218.550781 L 214.058594 216.042969 L 217.425781 213.988281 L 220.71875 212.394531 L 223.886719 211.253906 L 226.886719 210.554688 L 229.664063 210.285156 L 232.175781 210.425781 L 234.382813 210.957031 L 236.238281 211.839844 L 237.714844 213.050781 L 238.773438 214.550781 L 239.390625 216.300781 L 239.542969 218.257813 L 239.210938 220.378906 L 238.382813 222.617188 L 237.15625 224.773438 L 235.484375 226.945313 L 233.375 229.101563 L 230.828125 231.203125 L 227.859375 233.203125 L 224.484375 235.074219 L 220.714844 236.773438 L 216.574219 238.269531 L 212.085938 239.527344 L 207.28125 240.515625 L 202.191406 241.210938 L 196.851563 241.582031 L 191.292969 241.613281 L 185.558594 241.285156 L 179.6875 240.578125 L 173.71875 239.484375 L 167.703125 237.996094 L 161.675781 236.113281 L 155.683594 233.828125 L 149.773438 231.152344 L 143.984375 228.09375 L 138.359375 224.660156 L 132.9375 220.867188 L 127.761719 216.742188 L 122.871094 212.296875 L 118.296875 207.566406 L 114.070313 202.574219 L 110.226563 197.355469 L 106.785156 191.941406 L 103.777344 186.371094 L 101.214844 180.679688 L 99.117188 174.90625 L 97.492188 169.09375 L 96.355469 163.285156 L 95.703125 157.515625 L 95.535156 151.832031 L 95.851563 146.273438 L 96.644531 140.878906 L 97.894531 135.6875 L 99.589844 130.734375 L 101.710938 126.058594 L 104.238281 121.691406 L 107.136719 117.664063 L 110.382813 114 L 113.941406 110.726563 L 117.785156 107.867188 L 121.867188 105.433594 L 126.15625 103.445313 L 130.613281 101.90625 L 135.195313 100.824219 L 139.863281 100.203125 L 144.570313 100.039063 L 149.285156 100.324219 L 153.960938 101.050781 L 158.558594 102.203125 L 163.042969 103.761719 L 167.375 105.707031 L 171.519531 108.015625 L 175.449219 110.652344 L 179.132813 113.59375 L 182.539063 116.804688 L 185.652344 120.242188 L 188.449219 123.878906 L 190.910156 127.664063 L 193.1875 131.890625 L 195.050781 136.199219 L 196.488281 140.527344 L 197.5 144.824219 L 198.097656 149.03125 L 198.285156 153.101563 L 198.082031 156.980469 L 197.503906 160.621094 L 196.582031 163.96875 L 195.34375 166.988281 L 193.824219 169.636719 L 192.058594 171.875 L 190.085938 173.671875 L 187.957031 175.007813 L 185.714844 175.851563 L 183.40625 176.191406 L 181.082031 176.019531 L 178.789063 175.324219 L 176.582031 174.105469 L 174.507813 172.375 L 172.613281 170.140625 L 170.949219 167.421875 L 169.558594 164.238281 L 168.484375 160.617188 L 167.761719 156.589844 L 167.433594 152.195313 L 167.523438 147.472656 L 168.066406 142.460938 L 169.078125 137.214844 L 170.578125 131.777344 L 172.578125 126.199219 L 175.089844 120.539063 L 178.105469 114.84375 L 181.628906 109.175781 L 185.644531 103.578125 L 190.140625 98.113281 L 195.09375 92.824219 L 200.484375 87.765625 L 206.277344 82.980469 L 212.433594 78.519531 L 218.925781 74.414063 L 225.699219 70.707031 L 232.714844 67.429688 L 239.917969 64.605469 L 247.265625 62.261719 L 254.695313 60.414063 L 262.15625 59.074219 L 269.59375 58.25 L 276.953125 57.941406 L 284.175781 58.144531 L 291.210938 58.851563 L 298.007813 60.046875 L 304.511719 61.707031 L 310.675781 63.8125 L 316.460938 66.328125 L 321.824219 69.226563 L 326.730469 72.460938 L 331.144531 76 L 335.039063 79.796875 L 338.394531 83.804688 L 341.195313 87.972656 L 343.429688 92.253906 L 345.089844 96.597656 L 346.179688 100.953125 L 346.699219 105.1875 L 346.683594 109.339844 L 346.144531 113.363281 L 345.109375 117.210938 L 343.605469 120.847656 L 341.652344 124.226563 L 339.292969 127.320313 L 336.5625 130.09375 L 333.5 132.515625 L 330.15625 134.566406 L 326.566406 136.226563 L 322.789063 137.484375 L 318.871094 138.324219 L 314.859375 138.746094 L 310.8125 138.75 L 306.773438 138.339844 L 302.800781 137.53125 L 298.9375 136.332031 L 295.234375 134.765625 L 291.738281 132.859375 L 288.488281 130.640625 L 285.527344 128.140625 L 282.890625 125.398438 L 280.609375 122.453125 L 278.714844 119.347656 L 277.230469 116.125 L 276.171875 112.835938 L 275.554688 109.527344 L 275.390625 106.246094 L 275.679688 103.046875 L 276.425781 99.972656 L 277.621094 97.078125 L 279.25 94.40625 L 281.304688 92.003906 L 283.753906 89.917969 L 286.582031 88.183594 L 289.757813 86.84375 L 293.242188 85.929688 L 297.003906 85.476563 L 301.003906 85.503906 L 305.195313 86.035156 L 309.53125 87.085938 L 313.972656 88.671875 L 318.46875 90.796875 L 322.972656 93.464844 L 327.429688 96.667969 L 331.796875 100.402344 L 336.027344 104.648438 L 340.074219 109.386719 L 343.894531 114.597656 L 347.441406 120.25 L 350.679688 126.3125 L 353.578125 132.746094 L 356.097656 139.511719 L 358.210938 146.5625 L 359.898438 153.855469 L 361.136719 161.339844 L 361.914063 168.960938 L 362.222656 176.675781 L 362.050781 184.421875 L 361.40625 192.148438 L 360.289063 199.804688 L 358.710938 207.335938 L 356.691406 214.695313 L 354.421875 221.355469 L 351.800781 227.78125 L 348.859375 233.941406 L 345.613281 239.792969 L 342.09375 245.316406 L 338.335938 250.472656 L 334.371094 255.246094 L 330.234375 259.609375 L 325.964844 263.542969 L 321.597656 267.039063 L 317.171875 270.082031 L 312.730469 272.667969 L 308.3125 274.796875 L 303.953125 276.460938 L 299.699219 277.675781 L 295.582031 278.445313 L 291.644531 278.78125 L 287.914063 278.703125 L 284.429688 278.230469 L 281.21875 277.382813 L 278.316406 276.191406 L 275.738281 274.683594 L 273.511719 272.890625 L 271.65625 270.84375 L 270.1875 268.582031 L 269.113281 266.140625 L 268.445313 263.5625 L 268.1875 260.878906 L 268.339844 258.132813 L 268.902344 255.363281 L 269.859375 252.613281 L 271.207031 249.917969 L 272.921875 247.316406 L 274.996094 244.84375 L 277.402344 242.535156 L 280.113281 240.421875 L 283.101563 238.539063 L 286.339844 236.90625 L 289.789063 235.554688 L 293.414063 234.503906 L 297.179688 233.769531 L 301.046875 233.371094 L 304.976563 233.316406 L 308.917969 233.617188 L 312.839844 234.273438 L 316.695313 235.285156 L 320.445313 236.648438 L 324.042969 238.359375 L 327.457031 240.402344 L 330.640625 242.765625 L 333.5625 245.425781 L 336.183594 248.367188 L 338.476563 251.5625 L 340.40625 254.984375 L 341.949219 258.605469 L 343.078125 262.386719 L 343.777344 266.300781 L 344.03125 270.308594 L 343.820313 274.375 L 343.140625 278.457031 L 341.984375 282.519531 L 340.351563 286.523438 L 338.242188 290.429688 L 335.667969 294.199219 L 332.363281 298.089844 L 328.535156 301.726563 L 324.210938 305.070313 L 319.421875 308.074219 L 314.203125 310.707031 L 308.582031 312.925781 L 302.605469 314.707031 L 296.320313 316.023438 L 289.769531 316.847656 L 283.003906 317.167969 L 276.074219 316.972656 L 269.035156 316.253906 L 261.933594 315.011719 L 254.832031 313.25 L 247.777344 310.976563 L 240.824219 308.210938 L 234.023438 304.96875 L 227.425781 301.277344 L 221.070313 297.164063 L 215.007813 292.664063 L 209.277344 287.820313 L 203.910156 282.664063 L 198.941406 277.25 L 194.398438 271.621094 L 190.304688 265.832031 L 186.675781 259.925781 L 183.523438 253.960938 L 180.855469 247.992188 L 178.671875 242.066406 L 176.972656 236.242188 L 175.746094 230.570313 L 174.980469 225.101563 L 174.65625 219.882813 L 174.746094 214.960938 L 175.226563 210.375 L 176.0625 206.167969 L 177.21875 202.371094 L 178.65625 199.015625 L 180.335938 196.128906 L 182.207031 193.730469 L 184.226563 191.835938 L 186.34375 190.457031 L 188.515625 189.597656 L 190.691406 189.253906 L 192.820313 189.425781 L 194.855469 190.097656 L 196.753906 191.253906 L 198.46875 192.871094 L 199.957031 194.921875 L 201.179688 197.378906 L 202.105469 200.203125 L 202.695313 203.355469 L 202.929688 206.792969 L 202.78125 210.46875 L 202.230469 214.335938 L 201.265625 218.34375 L 199.878906 222.441406 L 198.0625 226.574219 L 195.828125 230.6875 L 193.171875 234.730469 L 190.113281 238.648438 L 186.667969 242.394531 L 182.859375 245.914063 L 178.710938 249.167969 L 174.566406 251.917969 L 170.183594 254.367188 L 165.59375 256.476563 L 160.835938 258.222656 L 155.945313 259.582031 L 150.957031 260.535156 L 145.910156 261.0625 L 140.851563 261.15625 L 135.820313 260.804688 L 130.859375 260.003906 L 126.007813 258.753906 L 121.3125 257.058594 L 116.8125 254.925781 L 112.542969 252.367188 L 108.550781 249.398438 L 104.863281 246.039063 L 101.523438 242.3125 L 98.554688 238.242188 L 95.992188 233.859375 L 93.859375 229.199219 L 92.175781 224.289063 L 90.960938 219.171875 L 90.230469 213.882813 L 89.996094 208.460938 L 90.261719 202.945313 L 91.027344 197.382813 L 92.296875 191.808594 L 94.066406 186.269531 L 96.316406 180.804688 L 99.039063 175.449219 L 102.214844 170.246094 L 105.824219 165.234375 L 109.839844 160.441406 L 114.230469 155.90625 L 118.96875 151.65625 L 124.019531 147.71875 L 129.34375 144.117188 L 134.90625 140.871094 L 140.660156 137.996094 L 146.5625 135.507813 L 152.578125 133.414063 L 158.65625 131.71875 L 164.75 130.421875 L 170.824219 129.527344 L 176.824219 129.019531 L 182.714844 128.890625 L 188.453125 129.128906 L 193.996094 129.714844 L 199.3125 130.621094 L 204.355469 131.832031 L 209.105469 133.3125 L 213.523438 135.03125 L 217.585938 136.960938 L 221.269531 139.0625 L 224.554688 141.300781 L 227.425781 143.632813 L 229.871094 146.027344 L 231.886719 148.433594 L 233.464844 150.820313 L 234.605469 153.140625 L 235.320313 155.359375 L 235.609375 157.4375 L 235.492188 159.335938 L 234.984375 161.015625 L 234.015625 162.554688 L 232.640625 163.761719 L 230.894531 164.601563 L 228.816406 165.039063 L 226.449219 165.046875 L 223.835938 164.605469 L 221.03125 163.691406 L 218.078125 162.300781 L 215.03125 160.417969 L 211.941406 158.046875 L 208.863281 155.195313 L 205.847656 151.867188 L 202.949219 148.078125 L 200.210938 143.851563 L 197.683594 139.214844 L 195.414063 134.199219 L 193.441406 128.839844 L 191.808594 123.171875 L 190.546875 117.25 L 189.6875 111.109375 L 189.253906 104.808594 L 189.269531 98.394531 L 189.75 91.929688 L 190.699219 85.460938 L 192.128906 79.046875 L 194.035156 72.746094 L 196.410156 66.609375 L 199.238281 60.699219 L 202.511719 55.058594 L 206.199219 49.746094 L 210.277344 44.808594 L 214.714844 40.285156 L 219.472656 36.21875 L 224.511719 32.644531 L 229.792969 29.597656 L 235.265625 27.101563 L 240.878906 25.179688 L 246.589844 23.847656 L 252.34375 23.113281 L 258.085938 22.980469 L 263.769531 23.453125 L 269.335938 24.519531 L 274.742188 26.171875 L 279.9375 28.386719 L 284.875 31.140625 L 289.507813 34.410156 L 293.800781 38.15625 L 297.710938 42.34375 L 301.210938 46.929688 L 304.273438 51.875 L 306.871094 57.121094 L 308.988281 62.625 L 310.613281 68.332031 L 311.734375 74.183594 L 312.355469 80.132813 L 312.476563 86.121094 L 312.109375 92.089844 L 311.265625 97.992188 L 309.96875 103.773438 L 308.242188 109.382813 L 306.117188 114.769531 L 303.628906 119.898438 L 300.816406 124.71875 L 297.71875 129.203125 L 294.445313 133.242188 L 290.992188 136.898438 L 287.40625 140.152344 L 283.734375 142.980469 L 280.027344 145.378906 L 276.339844 147.335938 L 272.71875 148.855469 L 269.214844 149.941406 L 265.882813 150.601563 L 262.765625 150.847656 L 259.910156 150.707031 L 257.359375 150.195313 L 255.152344 149.339844 L 253.332031 148.179688 L 251.921875 146.75 L 250.953125 145.082031 L 250.453125 143.222656 L 250.4375 141.214844 L 250.921875 139.105469 L 251.914063 136.9375 L 253.417969 134.761719 L 255.429688 132.628906 L 257.945313 130.578125 L 260.949219 128.664063 L 264.425781 126.925781 L 268.351563 125.410156 L 272.699219 124.15625 L 277.4375 123.207031 L 282.53125 122.59375 L 287.9375 122.34375 L 293.613281 122.492188 L 299.515625 123.058594 L 305.59375 124.058594 L 311.800781 125.507813 L 318.082031 127.414063 L 324.382813 129.785156 L 330.652344 132.613281 L 336.835938 135.898438 L 342.886719 139.621094 L 348.746094 143.769531 L 354.371094 148.320313 L 359.707031 153.246094 L 364.71875 158.519531 L 369.359375 164.101563 L 373.597656 169.957031 L 377.390625 176.046875 L 380.714844 182.320313 L 383.546875 188.730469 L 385.867188 195.238281 L 387.660156 201.78125 L 388.914063 208.316406 L 389.625 214.792969 L 389.800781 221.15625 L 389.441406 227.355469 L 388.558594 233.34375 L 387.171875 239.070313 L 385.300781 244.496094 L 382.972656 249.574219 L 380.21875 254.269531 L 377.066406 258.542969 L 373.5625 262.367188 L 369.746094 265.714844 L 365.652344 268.558594 L 361.339844 270.886719 L 357.152344 272.582031 L 352.847656 273.808594 L 348.472656 274.566406 L 344.058594 274.859375 L 339.652344 274.6875 L 335.289063 274.070313 L 331.011719 273.015625 L 326.851563 271.542969 L 322.847656 269.671875 L 319.03125 267.429688 L 315.4375 264.84375 L 312.089844 261.941406 L 309.015625 258.765625 L 306.238281 255.339844 L 303.777344 251.710938 L 301.644531 247.917969 L 299.855469 244 L 298.417969 240 L 297.335938 235.957031 L 296.609375 231.917969 L 296.234375 227.921875 L 296.203125 224.015625 L 296.507813 220.234375 L 297.132813 216.621094 L 298.054688 213.21875 L 299.261719 210.054688 L 300.722656 207.164063 L 302.410156 204.582031 L 304.292969 202.335938 L 306.34375 200.449219 L 308.523438 198.941406 L 310.800781 197.835938 L 313.128906 197.144531 L 315.480469 196.875 L 317.808594 197.035156 L 320.078125 197.628906 L 322.25 198.652344 L 324.28125 200.101563 L 326.136719 201.964844 L 327.777344 204.234375 L 329.171875 206.886719 L 330.289063 209.902344 L 331.089844 213.261719 L 331.554688 216.929688 L 331.65625 220.882813 L 331.367188 225.089844 L 330.671875 229.507813 L 329.558594 234.105469 L 328.011719 238.84375 L 326.023438 243.683594 L 323.59375 248.582031 L 320.714844 253.5 L 317.398438 258.394531 L 313.648438 263.226563 L 309.480469 267.953125 L 304.90625 272.535156 L 299.945313 276.9375 L 294.625 281.117188 L 288.96875 285.050781 L 283.003906 288.695313 L 276.765625 292.027344 L 270.289063 295.023438 L 263.609375 297.652344 L 256.769531 299.898438 L 249.214844 301.882813 L 241.570313 303.382813 L 233.890625 304.382813 L 226.230469 304.886719 L 218.648438 304.886719 L 211.195313 304.390625 L 203.929688 303.414063 L 196.898438 301.964844 L 190.15625 300.070313 L 183.746094 297.75 L 177.714844 295.042969 L 172.101563 291.976563 L 166.941406 288.589844 L 162.269531 284.925781 L 158.109375 281.027344 L 154.484375 276.945313 L 151.414063 272.71875 L 148.90625 268.40625 L 146.964844 264.054688 L 145.589844 259.710938 L 144.78125 255.429688 L 144.523438 251.257813 L 144.800781 247.246094 L 145.589844 243.433594 L 146.867188 239.867188 L 148.597656 236.585938 L 150.75 233.625 L 153.28125 231.015625 L 156.152344 228.789063 L 159.308594 226.964844 L 162.710938 225.566406 L 166.304688 224.601563 L 170.035156 224.082031 L 173.855469 224.007813 L 177.707031 224.375 L 181.542969 225.179688 L 185.304688 226.402344 L 188.941406 228.03125 L 192.410156 230.039063 L 195.664063 232.398438 L 198.65625 235.074219 L 201.347656 238.035156 L 203.703125 241.230469 L 205.691406 244.625 L 207.285156 248.167969 L 208.460938 251.8125 L 209.203125 255.507813 L 209.5 259.199219 L 209.347656 262.832031 L 208.738281 266.359375 L 207.675781 269.730469 L 206.179688 272.886719 L 204.253906 275.78125 L 201.925781 278.367188 L 199.21875 280.601563 L 196.160156 282.441406 L 192.78125 283.847656 L 189.125 284.789063 L 185.226563 285.230469 L 181.136719 285.15625 L 176.894531 284.539063 L 172.550781 283.367188 L 168.15625 281.632813 L 163.757813 279.332031 L 159.695313 276.671875 L 155.714844 273.53125 L 151.859375 269.910156 L 148.167969 265.828125 L 144.671875 261.304688 L 141.417969 256.363281 L 138.429688 251.027344 L 135.746094 245.324219 L 133.390625 239.292969 L 131.394531 232.964844 L 129.773438 226.375 L 128.550781 219.570313 L 127.738281 212.585938 L 127.351563 205.46875 L 127.394531 198.265625 L 127.867188 191.019531 L 128.777344 183.773438 L 130.113281 176.574219 L 131.867188 169.464844 L 134.023438 162.496094 L 136.570313 155.703125 L 139.488281 149.125 L 142.746094 142.808594 L 146.320313 136.78125 L 150.175781 131.082031 L 154.289063 125.738281 L 158.617188 120.777344 L 163.125 116.222656 L 167.769531 112.09375 L 172.515625 108.402344 L 177.316406 105.167969 L 182.132813 102.390625 L 186.921875 100.074219 L 191.640625 98.222656 L 196.246094 96.828125 L 200.699219 95.878906 L 204.960938 95.367188 L 208.992188 95.269531 L 212.757813 95.566406 L 216.230469 96.238281 L 219.375 97.253906 L 222.164063 98.582031 L 224.574219 100.195313 L 226.589844 102.050781 L 228.191406 104.113281 L 229.371094 106.351563 L 230.113281 108.714844 L 230.417969 111.167969 L 230.289063 113.671875 L 229.722656 116.183594 L 228.738281 118.660156 L 227.339844 121.0625 L 225.546875 123.355469 L 223.382813 125.5 L 220.867188 127.457031 L 218.03125 129.199219 L 214.90625 130.695313 L 211.523438 131.917969 L 207.921875 132.84375 L 204.136719 133.449219 L 200.210938 133.71875 L 196.1875 133.640625 L 192.109375 133.203125 L 188.019531 132.402344 L 184.039063 131.261719 L 180.132813 129.773438 L 176.34375 127.945313 L 172.707031 125.785156 L 169.265625 123.304688 L 166.054688 120.523438 L 163.113281 117.460938 L 160.472656 114.136719 L 158.164063 110.585938 L 156.214844 106.832031 L 154.65625 102.90625 L 153.507813 98.84375 L 152.785156 94.679688 L 152.503906 90.449219 L 152.679688 86.191406 L 153.316406 81.945313 L 154.421875 77.746094 L 155.992188 73.640625 L 158.023438 69.660156 L 160.507813 65.84375 L 163.4375 62.234375 L 166.792969 58.859375 L 170.558594 55.761719 L 174.710938 52.964844 L 179.222656 50.5 L 184.066406 48.398438 L 189.207031 46.679688 L 194.621094 45.367188 L 200.265625 44.480469 L 206.101563 44.027344 L 212.097656 44.019531 L 218.207031 44.46875 L 224.394531 45.375 L 230.613281 46.738281 L 236.828125 48.550781 L 242.992188 50.804688 L 249.070313 53.488281 L 255.023438 56.585938 L 260.816406 60.078125 L 266.40625 63.941406 L 271.765625 68.148438 L 276.863281 72.671875 L 281.667969 77.480469 L 286.15625 82.535156 L 290.300781 87.804688 L 294.09375 93.25 L 297.507813 98.828125 L 300.535156 104.503906 L 303.171875 110.226563 L 305.40625 115.964844 L 307.242188 121.671875 L 308.679688 127.300781 L 309.726563 132.820313 L 310.394531 138.1875 L 310.699219 143.359375 L 310.65625 148.300781 L 310.28125 152.980469 L 309.605469 157.367188 L 308.652344 161.425781 L 307.449219 165.132813 L 306.027344 168.464844 L 304.425781 171.402344 L 302.671875 173.929688 L 300.804688 176.03125 L 298.695313 177.820313 L 296.546875 179.09375 L 294.402344 179.851563 L 292.3125 180.09375 L 290.324219 179.835938 L 288.484375 179.085938 L 286.839844 177.875 L 285.425781 176.21875 L 284.285156 174.152344 L 283.453125 171.707031 L 282.960938 168.921875 L 282.839844 165.835938 L 283.105469 162.5 L 283.78125 158.957031 L 284.882813 155.253906 L 286.417969 151.445313 L 288.386719 147.578125 L 290.789063 143.714844 L 293.621094 139.894531 L 296.867188 136.179688 L 300.511719 132.613281 L 304.535156 129.246094 L 308.902344 126.125 L 313.59375 123.296875 L 318.5625 120.792969 L 323.777344 118.660156 L 329.191406 116.925781 L 334.761719 115.621094 L 340.4375 114.765625 L 346.175781 114.378906 L 351.917969 114.480469 L 357.613281 115.074219 L 363.210938 116.167969 L 368.660156 117.753906 L 373.910156 119.824219 L 378.90625 122.375 L 383.601563 125.382813 L 387.953125 128.824219 L 391.914063 132.675781 L 395.449219 136.902344 L 398.519531 141.472656 L 401.09375 146.347656 L 403.144531 151.484375 L 404.648438 156.839844 L 405.589844 162.363281 L 405.957031 168.011719 L 405.738281 173.734375 L 404.9375 179.480469 L 403.558594 185.195313 L 401.605469 190.839844 L 399.101563 196.355469 L 396.054688 201.699219 L 392.5 206.828125 L 388.464844 211.699219 L 383.980469 216.269531 L 379.085938 220.507813 L 373.824219 224.378906 L 368.242188 227.855469 L 362.382813 230.917969 L 356.300781 233.542969 L 350.046875 235.71875 L 343.671875 237.4375 L 337.230469 238.695313 L 330.78125 239.496094 L 324.796875 239.835938 L 318.894531 239.789063 L 313.113281 239.375 L 307.496094 238.609375 L 302.074219 237.511719 L 296.894531 236.105469 L 291.980469 234.421875 L 287.371094 232.484375 L 283.089844 230.332031 L 279.160156 227.996094 L 275.605469 225.511719 L 272.445313 222.921875 L 269.6875 220.265625 L 267.34375 217.578125 L 265.421875 214.902344 L 263.921875 212.28125 L 262.835938 209.753906 L 262.164063 207.355469 L 261.894531 205.128906 L 262.011719 203.113281 L 262.496094 201.339844 L 263.328125 199.839844 L 264.480469 198.644531 L 265.929688 197.785156 L 267.640625 197.28125 L 269.582031 197.160156 L 271.71875 197.429688 L 274.011719 198.113281 L 276.425781 199.214844 L 278.917969 200.742188 L 281.453125 202.699219 L 283.984375 205.082031 L 286.480469 207.882813 L 288.890625 211.089844 L 291.1875 214.695313 L 293.324219 218.679688 L 295.269531 223.015625 L 296.988281 227.679688 L 298.449219 232.648438 L 299.621094 237.886719 L 300.480469 243.359375 L 301.003906 249.03125 L 301.171875 254.863281 L 300.964844 260.8125 L 300.375 266.839844 L 299.394531 272.902344 L 298.011719 278.953125 L 296.230469 284.949219 L 294.054688 290.847656 L 291.492188 296.605469 L 288.546875 302.179688 L 285.242188 307.527344 L 281.59375 312.609375 L 277.621094 317.394531 L 273.351563 321.835938 L 268.808594 325.910156 L 264.03125 329.585938 L 259.046875 332.835938 L 253.890625 335.640625 L 248.605469 337.972656 L 243.222656 339.824219 L 237.789063 341.179688 L 232.339844 342.035156 L 226.917969 342.382813 L 221.121094 342.195313 L 215.453125 341.417969 L 209.96875 340.070313 L 204.714844 338.167969 L 199.734375 335.730469 L 195.074219 332.789063 L 190.773438 329.375 L 186.871094 325.523438 L 183.390625 321.28125 L 180.371094 316.6875 L 177.828125 311.789063 L 175.777344 306.636719 L 174.238281 301.285156 L 173.214844 295.785156 L 172.707031 290.183594 L 172.710938 284.546875 L 173.214844 278.917969 L 174.207031 273.355469 L 175.667969 267.90625 L 177.570313 262.621094 L 179.878906 257.542969 L 182.566406 252.722656 L 185.589844 248.191406 L 188.910156 243.988281 L 192.472656 240.144531 L 196.238281 236.683594 L 200.152344 233.632813 L 204.160156 231 L 208.207031 228.804688 L 212.246094 227.046875 L 216.214844 225.726563 L 220.0625 224.839844 L 223.738281 224.378906 L 227.191406 224.320313 L 230.371094 224.648438 L 233.234375 225.332031 L 235.738281 226.347656 L 237.84375 227.65625 L 239.515625 229.21875 L 240.730469 231 L 241.457031 232.949219 L 241.679688 235.019531 L 241.382813 237.167969 L 240.558594 239.34375 L 239.207031 241.492188 L 237.328125 243.570313 L 234.929688 245.523438 L 232.027344 247.304688 L 228.644531 248.867188 L 224.800781 250.167969 L 220.527344 251.167969 L 215.859375 251.824219 L 210.835938 252.101563 L 205.5 251.976563 L 199.898438 251.414063 L 194.078125 250.398438 L 188.089844 248.914063 L 181.988281 246.949219 L 175.828125 244.496094 L 169.664063 241.554688 L 163.550781 238.132813 L 157.542969 234.238281 L 151.695313 229.890625 L 146.058594 225.109375 L 140.777344 220.019531 L 135.792969 214.570313 L 131.144531 208.789063 L 126.875 202.71875 L 123.015625 196.398438 L 119.597656 189.871094 L 116.644531 183.183594 L 114.179688 176.386719 L 112.214844 169.527344 L 110.769531 162.65625 L 109.84375 155.824219 L 109.4375 149.085938 L 109.550781 142.492188 L 110.171875 136.09375 L 111.289063 129.9375 L 112.875 124.066406 L 114.917969 118.527344 L 117.378906 113.363281 L 120.230469 108.605469 L 123.4375 104.292969 L 126.960938 100.453125 L 130.757813 97.109375 L 134.785156 94.28125 L 138.996094 91.984375 L 143.339844 90.230469 L 147.773438 89.023438 L 152.246094 88.359375 L 156.710938 88.238281 L 161.117188 88.640625 L 165.421875 89.558594 L 169.574219 90.964844 L 173.539063 92.835938 L 177.277344 95.140625 L 180.742188 97.847656 L 183.910156 100.910156 L 186.75 104.296875 L 189.234375 107.957031 L 191.34375 111.84375 L 193.066406 115.90625 L 194.382813 120.097656 L 195.292969 124.367188 L 195.796875 128.65625 L 195.894531 132.921875 L 195.59375 137.105469 L 194.917969 141.15625 L 193.875 145.03125 L 192.496094 148.679688 L 190.800781 152.0625 L 188.832031 155.136719 L 186.613281 157.863281 L 184.191406 160.207031 L 181.605469 162.148438 L 178.898438 163.652344 L 176.121094 164.707031 L 173.3125 165.296875 L 170.527344 165.40625 L 167.808594 165.035156 L 165.210938 164.1875 L 162.78125 162.863281 L 160.5625 161.078125 L 158.605469 158.847656 L 156.949219 156.1875 L 155.632813 153.128906 L 154.695313 149.703125 L 154.191406 146.203125 L 154.074219 142.4375 L 154.359375 138.445313 L 155.066406 134.257813 L 156.210938 129.914063 L 157.800781 125.449219 L 159.84375 120.902344 L 162.34375 116.316406 L 165.296875 111.730469 L 168.699219 107.183594 L 172.542969 102.714844 L 176.8125 98.363281 L 181.492188 94.171875 L 186.5625 90.175781 L 192 86.402344 L 197.773438 82.894531 L 203.855469 79.675781 L 210.214844 76.777344 L 216.8125 74.21875 L 223.613281 72.027344 L 230.574219 70.214844 L 237.660156 68.800781 L 244.824219 67.796875 L 252.023438 67.203125 L 259.214844 67.03125 L 266.359375 67.273438 L 273.40625 67.929688 L 280.320313 68.992188 L 287.054688 70.441406 L 293.574219 72.269531 L 299.839844 74.457031 L 305.8125 76.976563 L 311.457031 79.808594 L 316.75 82.917969 L 321.660156 86.28125 L 326.164063 89.859375 L 330.238281 93.625 L 333.867188 97.53125 L 337.039063 101.546875 L 339.738281 105.632813 L 341.964844 109.75 L 343.714844 113.859375 L 344.992188 117.917969 L 345.800781 121.890625 L 346.148438 125.738281 L 346.054688 129.421875 L 345.535156 132.914063 L 344.609375 136.175781 L 343.304688 139.179688 L 341.644531 141.894531 L 339.664063 144.300781 L 337.386719 146.371094 L 334.859375 148.089844 L 332.109375 149.441406 L 329.183594 150.414063 L 326.113281 151 L 322.941406 151.195313 L 319.710938 151 L 316.460938 150.417969 L 313.230469 149.457031 L 310.0625 148.132813 L 306.992188 146.453125 L 304.0625 144.441406 L 301.300781 142.121094 L 298.539063 139.28125 L 296.0625 136.144531 L 293.898438 132.75 L 292.085938 129.136719 L 290.648438 125.359375 L 289.609375 121.464844 L 288.984375 117.5 L 288.789063 113.519531 L 289.027344 109.574219 L 289.707031 105.71875 L 290.8125 102.007813 L 292.347656 98.488281 L 294.292969 95.21875 L 296.625 92.238281 L 299.328125 89.59375 L 302.371094 87.335938 L 305.71875 85.496094 L 309.335938 84.113281 L 313.183594 83.214844 L 317.21875 82.832031 L 321.394531 82.980469 L 325.667969 83.679688 L 329.988281 84.941406 L 334.304688 86.769531 L 338.566406 89.164063 L 342.726563 92.121094 L 346.734375 95.625 L 350.542969 99.660156 L 354.109375 104.210938 L 357.382813 109.242188 L 360.332031 114.726563 L 362.914063 120.628906 L 365.09375 126.90625 L 366.84375 133.515625 L 368.144531 140.410156 L 368.96875 147.542969 L 369.300781 154.863281 L 369.136719 162.3125 L 368.46875 169.839844 L 367.296875 177.390625 L 365.625 184.90625 L 363.46875 192.339844 L 360.84375 199.632813 L 357.765625 206.734375 L 354.269531 213.597656 L 350.382813 220.179688 L 346.136719 226.429688 L 341.574219 232.3125 L 336.734375 237.792969 L 331.667969 242.84375 L 326.417969 247.433594 L 321.035156 251.542969 L 315.574219 255.15625 L 310.082031 258.261719 L 304.617188 260.859375 L 299.226563 262.945313 L 293.964844 264.527344 L 288.878906 265.613281 L 284.023438 266.21875 L 279.441406 266.371094 L 275.171875 266.089844 L 271.261719 265.410156 L 267.742188 264.363281 L 264.644531 262.988281 L 262.160156 261.445313 L 260.089844 259.683594 L 258.445313 257.746094 L 257.234375 255.667969 L 256.46875 253.492188 L 256.148438 251.253906 L 256.273438 249 L 256.835938 246.765625 L 257.824219 244.589844 L 259.226563 242.511719 L 261.023438 240.570313 L 263.195313 238.800781 L 265.714844 237.234375 L 268.550781 235.902344 L 271.675781 234.832031 L 275.058594 234.050781 L 278.652344 233.582031 L 282.425781 233.4375 L 286.332031 233.636719 L 290.335938 234.1875 L 294.390625 235.101563 L 298.453125 236.378906 L 302.476563 238.015625 L 306.421875 240.011719 L 310.242188 242.359375 L 313.898438 245.039063 L 317.347656 248.035156 L 320.550781 251.332031 L 323.472656 254.902344 L 326.078125 258.722656 L 328.335938 262.757813 L 330.214844 266.980469 L 331.695313 271.351563 L 332.753906 275.835938 L 333.371094 280.394531 L 333.53125 284.988281 L 333.230469 289.574219 L 332.457031 294.113281 L 331.214844 298.5625 L 329.5 302.882813 L 327.324219 307.03125 L 324.699219 310.964844 L 321.632813 314.652344 L 318.152344 318.050781 L 314.273438 321.128906 L 310.027344 323.855469 L 305.4375 326.203125 L 300.535156 328.140625 L 295.363281 329.648438 L 289.949219 330.707031 L 284.332031 331.304688 L 278.558594 331.421875 L 272.664063 331.054688 L 266.695313 330.203125 L 260.691406 328.867188 L 254.695313 327.046875 L 248.75 324.757813 L 242.894531 322.007813 L 237.171875 318.816406 L 231.617188 315.207031 L 226.269531 311.199219 L 221.164063 306.824219 L 216.332031 302.109375 L 211.796875 297.09375 L 207.675781 291.917969 L 203.886719 286.523438 L 200.449219 280.949219 L 197.382813 275.230469 L 194.695313 269.414063 L 192.394531 263.535156 L 190.480469 257.644531 L 188.957031 251.773438 L 187.820313 245.972656 L 187.0625 240.277344 L 186.667969 234.730469 L 186.628906 229.367188 L 186.921875 224.230469 L 187.523438 219.34375 L 188.417969 214.75 L 189.574219 210.472656 L 190.960938 206.542969 L 192.550781 202.980469 L 194.304688 199.804688 L 196.195313 197.03125 L 198.179688 194.679688 L 200.222656 192.753906 L 202.289063 191.257813 L 204.339844 190.195313 L 206.335938 189.566406 L 208.242188 189.359375 L 210.023438 189.570313 L 211.640625 190.179688 L 213.0625 191.171875 L 214.261719 192.527344 L 215.203125 194.222656 L 215.863281 196.230469 L 216.21875 198.519531 L 216.246094 201.058594 L 215.929688 203.816406 L 215.253906 206.753906 L 214.210938 209.832031 L 212.785156 213.019531 L 210.984375 216.269531 L 208.800781 219.542969 L 206.238281 222.800781 L 203.308594 226.007813 L 200.019531 229.117188 L 196.390625 232.09375 L 192.4375 234.90625 L 188.179688 237.511719 L 183.644531 239.878906 L 178.863281 241.980469 L 173.859375 243.78125 L 168.675781 245.265625 L 163.335938 246.402344 L 157.886719 247.175781 L 152.359375 247.570313 L 146.800781 247.570313 L 141.246094 247.171875 L 135.742188 246.367188 L 130.324219 245.15625 L 125.035156 243.539063 L 119.914063 241.527344 L 115.003906 239.125 L 110.34375 236.347656 L 105.964844 233.214844 L 101.902344 229.746094 L 98.191406 225.960938 L 94.597656 221.527344 L 91.480469 216.796875 L 88.878906 211.800781 L 86.8125 206.589844 L 85.300781 201.203125 L 84.359375 195.691406 L 84 190.101563 L 84.226563 184.484375 L 85.039063 178.890625 L 86.429688 173.363281 L 88.386719 167.957031 L 90.890625 162.714844 L 93.925781 157.679688 L 97.464844 152.902344 L 101.472656 148.417969 L 105.914063 144.261719 L 110.75 140.472656 L 115.9375 137.070313 L 121.433594 134.085938 L 127.1875 131.535156 L 133.152344 129.4375 L 139.269531 127.800781 L 145.492188 126.632813 L 151.765625 125.925781 L 158.035156 125.683594 L 164.25 125.886719 L 170.355469 126.527344 L 176.304688 127.582031 L 182.054688 129.023438 L 187.554688 130.824219 L 192.761719 132.953125 L 197.644531 135.367188 L 202.167969 138.03125 L 206.300781 140.898438 L 210.015625 143.925781 L 213.296875 147.0625 L 216.128906 150.261719 L 218.5 153.472656 L 220.402344 156.644531 L 221.847656 159.726563 L 222.828125 162.671875 L 223.367188 165.429688 L 223.472656 167.957031 L 223.167969 170.203125 L 222.476563 172.136719 L 221.433594 173.710938 L 220.066406 174.894531 L 218.417969 175.660156 L 216.523438 175.980469 L 214.425781 175.832031 L 212.175781 175.203125 L 209.8125 174.074219 L 207.390625 172.449219 L 204.953125 170.324219 L 202.554688 167.699219 L 200.238281 164.589844 L 198.054688 161.011719 L 196.042969 156.984375 L 194.253906 152.527344 L 192.726563 147.679688 L 191.5 142.472656 L 190.605469 136.941406 L 190.074219 131.128906 L 189.9375 125.082031 L 190.179688 119.273438 L 190.800781 113.339844 L 191.804688 107.324219 L 193.199219 101.273438 L 194.992188 95.230469 L 197.183594 89.234375 L 199.761719 83.332031 L 202.722656 77.570313 L 206.050781 71.980469 L 209.734375 66.613281 L 213.75 61.503906 L 218.078125 56.691406 L 222.691406 52.203125 L 227.558594 48.082031 L 232.652344 44.347656 L 237.933594 41.027344 L 243.367188 38.148438 L 248.921875 35.722656 L 254.550781 33.773438 L 260.214844 32.300781 L 265.875 31.324219 L 271.492188 30.835938 L 277.023438 30.835938 L 282.429688 31.324219 L 287.667969 32.289063 L 292.703125 33.71875 L 297.496094 35.59375 L 302.019531 37.894531 L 306.230469 40.597656 L 310.109375 43.679688 L 313.621094 47.101563 L 316.75 50.839844 L 319.46875 54.851563 L 321.769531 59.109375 L 323.628906 63.566406 L 325.042969 68.1875 L 326.007813 72.929688 L 326.523438 77.757813 L 326.589844 82.621094 L 326.214844 87.484375 L 325.40625 92.304688 L 324.183594 97.046875 L 322.566406 101.667969 L 320.570313 106.136719 L 318.226563 110.414063 L 315.5625 114.46875 L 312.609375 118.273438 L 309.398438 121.800781 L 305.96875 125.027344 L 302.359375 127.9375 L 298.609375 130.507813 L 294.757813 132.734375 L 290.851563 134.601563 L 286.929688 136.105469 L 283.035156 137.246094 L 279.210938 138.027344 L 275.5 138.457031 L 271.9375 138.542969 L 268.574219 138.300781 L 265.4375 137.75 L 262.566406 136.90625 L 259.992188 135.800781 L 257.75 134.457031 L 255.859375 132.90625 L 254.242188 131.03125 L 253.097656 128.988281 L 252.449219 126.832031 L 252.304688 124.609375 L 252.679688 122.363281 L 253.582031 120.148438 L 255.003906 118.015625 L 256.941406 116.011719 L 259.382813 114.183594 L 262.308594 112.578125 L 265.699219 111.242188 L 269.523438 110.21875 L 273.75 109.539063 L 278.34375 109.246094 L 283.261719 109.371094 L 288.460938 109.933594 L 293.890625 110.960938 L 299.507813 112.464844 L 305.257813 114.464844 L 311.085938 116.960938 L 316.941406 119.957031 L 322.765625 123.449219 L 328.507813 127.429688 L 334.117188 131.875 L 339.539063 136.769531 L 344.726563 142.089844 L 349.628906 147.800781 L 354.207031 153.871094 L 358.414063 160.261719 L 362.222656 166.929688 L 365.59375 173.824219 L 368.503906 180.902344 L 370.925781 188.109375 L 372.847656 195.394531 L 374.253906 202.703125 L 375.136719 209.980469 L 375.5 217.171875 L 375.34375 224.222656 L 374.679688 231.078125 L 373.523438 237.6875 L 371.890625 244.003906 L 369.8125 249.976563 L 367.3125 255.5625 L 364.429688 260.726563 L 361.199219 265.429688 L 357.660156 269.640625 L 353.863281 273.335938 L 349.84375 276.492188 L 345.660156 279.089844 L 341.355469 281.125 L 336.984375 282.589844 L 332.59375 283.484375 L 328.238281 283.816406 L 323.964844 283.597656 L 319.820313 282.847656 L 315.851563 281.585938 L 312.105469 279.839844 L 308.613281 277.644531 L 305.421875 275.035156 L 302.558594 272.054688 L 300.054688 268.742188 L 297.933594 265.148438 L 296.214844 261.324219 L 294.914063 257.320313 L 294.082031 253.464844 L 293.621094 249.542969 L 293.535156 245.597656 L 293.820313 241.675781 L 294.460938 237.816406 L 295.445313 234.066406 L 296.761719 230.464844 L 298.386719 227.050781 L 300.292969 223.863281 L 302.457031 220.933594 L 304.84375 218.296875 L 307.425781 215.980469 L 310.164063 214.011719 L 313.023438 212.410156 L 315.960938 211.199219 L 318.9375 210.382813 L 321.914063 209.980469 L 324.84375 209.996094 L 327.691406 210.429688 L 330.40625 211.28125 L 332.953125 212.539063 L 335.289063 214.199219 L 337.375 216.246094 L 339.179688 218.65625 L 340.660156 221.410156 L 341.792969 224.484375 L 342.542969 227.847656 L 342.886719 231.472656 L 342.796875 235.320313 L 342.261719 239.355469 L 341.265625 243.539063 L 339.792969 247.835938 L 337.839844 252.203125 L 335.402344 256.597656 L 332.484375 260.976563 L 329.085938 265.300781 L 325.226563 269.527344 L 320.914063 273.617188 L 316.167969 277.53125 L 311.011719 281.230469 L 305.46875 284.679688 L 299.570313 287.847656 L 293.347656 290.703125 L 286.835938 293.21875 L 280.078125 295.371094 L 273.109375 297.136719 L 265.972656 298.503906 L 258.710938 299.453125 L 251.371094 299.980469 L 244 300.078125 L 236.640625 299.746094 L 229.335938 298.988281 L 222.140625 297.8125 L 215.089844 296.226563 L 208.226563 294.25 L 201.597656 291.894531 L 195.242188 289.191406 L 189.191406 286.164063 L 183.480469 282.839844 L 178.144531 279.25 L 173.207031 275.425781 L 168.695313 271.414063 L 164.625 267.246094 L 161.015625 262.960938 L 157.9375 258.683594 L 155.316406 254.378906 L 153.160156 250.082031 L 151.472656 245.828125 L 150.242188 241.660156 L 149.460938 237.613281 L 149.121094 233.730469 L 149.207031 230.042969 L 149.695313 226.582031 L 150.566406 223.382813 L 151.796875 220.46875 L 153.351563 217.875 L 155.207031 215.617188 L 157.324219 213.714844 L 159.671875 212.1875 L 162.214844 211.046875 L 164.90625 210.304688 L 167.714844 209.960938 L 170.601563 210.019531 L 173.523438 210.480469 L 176.4375 211.335938 L 179.3125 212.574219 L 182.101563 214.179688 L 184.777344 216.140625 L 187.296875 218.429688 L 189.628906 221.027344 L 191.746094 223.90625 L 193.613281 227.03125 L 195.210938 230.375 L 196.511719 233.902344 L 197.496094 237.570313 L 198.148438 241.347656 L 198.460938 245.191406 L 198.417969 249.058594 L 198.015625 252.90625 L 197.253906 256.699219 L 196.136719 260.394531 L 194.667969 263.945313 L 192.859375 267.316406 L 190.71875 270.46875 L 188.269531 273.367188 L 185.53125 275.96875 L 182.523438 278.25 L 179.277344 280.175781 L 175.816406 281.714844 L 172.175781 282.851563 L 168.386719 283.558594 L 164.484375 283.820313 L 160.507813 283.621094 L 156.492188 282.953125 L 152.480469 281.808594 L 148.503906 280.1875 L 144.609375 278.089844 L 140.828125 275.519531 L 137.203125 272.488281 L 133.769531 269.011719 L 130.558594 265.101563 L 127.613281 260.78125 L 124.953125 256.078125 L 122.617188 251.011719 L 120.625 245.617188 L 119.003906 239.929688 L 117.769531 233.976563 L 116.945313 227.800781 L 116.523438 220.894531 L 116.613281 213.824219 L 117.210938 206.636719 L 118.328125 199.390625 L 119.957031 192.136719 L 122.085938 184.929688 L 124.707031 177.820313 L 127.796875 170.863281 L 131.328125 164.105469 L 135.28125 157.59375 L 139.613281 151.375 L 144.292969 145.484375 L 149.277344 139.960938 L 154.523438 134.839844 L 159.984375 130.144531 L 165.609375 125.902344 L 171.347656 122.128906 L 177.152344 118.835938 L 182.960938 116.035156 L 188.726563 113.726563 L 194.398438 111.90625 L 199.921875 110.570313 L 205.246094 109.703125 L 210.324219 109.285156 L 215.113281 109.292969 L 219.566406 109.703125 L 223.648438 110.484375 L 227.324219 111.59375 L 230.5625 113 L 233.339844 114.660156 L 235.628906 116.527344 L 237.421875 118.554688 L 238.703125 120.699219 L 239.46875 122.910156 L 239.714844 125.140625 L 239.457031 127.335938 L 238.695313 129.457031 L 237.453125 131.449219 L 235.753906 133.277344 L 233.617188 134.890625 L 231.078125 136.25 L 228.167969 137.324219 L 224.933594 138.082031 L 221.410156 138.484375 L 217.648438 138.519531 L 213.695313 138.160156 L 209.597656 137.398438 L 205.414063 136.214844 L 201.191406 134.613281 L 196.988281 132.59375 L 192.851563 130.160156 L 188.839844 127.324219 L 185 124.101563 L 181.382813 120.515625 L 178.035156 116.59375 L 175.003906 112.359375 L 172.328125 107.855469 L 170.042969 103.117188 L 168.183594 98.1875 L 166.777344 93.105469 L 165.851563 87.925781 L 165.421875 82.691406 L 165.503906 77.457031 L 166.105469 72.269531 L 167.140625 67.519531 L 168.628906 62.894531 L 170.5625 58.445313 L 172.9375 54.203125 L 175.738281 50.214844 L 178.945313 46.507813 L 182.539063 43.125 L 186.496094 40.09375 L 190.785156 37.449219 L 195.378906 35.214844 L 200.246094 33.414063 L 205.347656 32.066406 L 210.644531 31.191406 L 216.105469 30.796875 L 221.683594 30.894531 L 227.339844 31.492188 L 233.03125 32.582031 L 238.71875 34.164063 L 244.359375 36.234375 L 249.914063 38.777344 L 255.34375 41.773438 L 260.605469 45.210938 L 265.671875 49.0625 L 270.5 53.296875 L 275.066406 57.890625 L 279.335938 62.808594 L 283.285156 68.011719 L 286.890625 73.46875 L 290.136719 79.132813 L 293.007813 84.96875 L 295.488281 90.929688 L 297.574219 96.96875 L 299.257813 103.050781 L 300.542969 109.121094 L 301.4375 115.144531 L 301.941406 121.070313 L 302.074219 126.863281 L 301.847656 132.480469 L 301.28125 137.878906 L 300.398438 143.023438 L 299.222656 147.882813 L 297.789063 152.425781 L 296.125 156.621094 L 294.261719 160.445313 L 292.242188 163.878906 L 290.09375 166.902344 L 287.863281 169.5 L 285.589844 171.664063 L 283.304688 173.390625 L 281.058594 174.675781 L 278.886719 175.523438 L 276.824219 175.9375 L 274.917969 175.933594 L 273.195313 175.527344 L 271.699219 174.730469 L 270.453125 173.570313 L 269.496094 172.066406 L 268.855469 170.253906 L 268.546875 168.160156 L 268.601563 165.824219 L 269.027344 163.273438 L 269.847656 160.550781 L 271.066406 157.695313 L 272.691406 154.746094 L 274.914063 151.496094 L 277.617188 148.234375 L 280.785156 145.019531 L 284.410156 141.902344 L 288.472656 138.929688 L 292.945313 136.15625 L 297.800781 133.621094 L 303.003906 131.375 L 308.515625 129.453125 L 314.292969 127.894531 L 320.292969 126.730469 L 326.46875 125.988281 L 332.761719 125.6875 L 339.125 125.851563 L 345.5 126.484375 L 351.832031 127.601563 L 358.0625 129.199219 L 364.144531 131.273438 L 370.015625 133.8125 L 375.621094 136.804688 L 380.917969 140.230469 L 385.855469 144.058594 L 390.386719 148.261719 L 394.46875 152.808594 L 398.066406 157.660156 L 401.148438 162.773438 L 403.683594 168.101563 L 405.652344 173.597656 L 407.035156 179.21875 L 407.820313 184.90625 L 408 190.613281 L 407.578125 196.285156 L 406.554688 201.871094 L 404.945313 207.320313 L 402.765625 212.585938 L 400.035156 217.621094 L 396.78125 222.375 L 393.035156 226.8125 L 388.839844 230.894531 L 384.230469 234.582031 L 379.25 237.851563 L 373.949219 240.675781 L 368.375 243.035156 L 362.582031 244.914063 L 356.625 246.300781 L 350.558594 247.191406 L 344.433594 247.59375 L 338.3125 247.507813 L 332.242188 246.953125 L 326.277344 245.9375 L 320.472656 244.492188 L 314.871094 242.644531 L 309.523438 240.425781 L 304.472656 237.871094 L 299.75 235.023438 L 295.394531 231.921875 L 291.433594 228.621094 L 287.894531 225.167969 L 284.789063 221.613281 L 282.140625 218.007813 L 279.949219 214.410156 L 278.222656 210.867188 L 276.957031 207.4375 L 276.140625 204.167969 L 275.765625 201.167969 L 275.796875 198.417969 L 276.210938 195.964844 L 276.976563 193.847656 L 278.066406 192.101563 L 279.445313 190.761719 L 281.078125 189.855469 L 282.917969 189.40625 L 284.929688 189.4375 L 287.058594 189.960938 L 289.265625 190.988281 L 291.503906 192.523438 L 293.71875 194.5625 L 295.867188 197.105469 L 297.902344 200.132813 L 299.777344 203.632813 L 301.449219 207.585938 L 302.875 211.960938 L 304.015625 216.726563 L 304.835938 221.851563 L 305.304688 227.296875 L 305.390625 233.019531 L 305.070313 238.972656 L 304.324219 245.105469 L 303.140625 251.375 L 301.503906 257.722656 L 299.410156 264.101563 L 296.863281 270.453125 L 293.863281 276.730469 L 290.421875 282.875 L 286.558594 288.839844 L 282.285156 294.570313 L 277.632813 300.023438 L 272.628906 305.152344 L 267.304688 309.917969 L 261.695313 314.277344 L 255.847656 318.199219 L 249.800781 321.652344 L 243.601563 324.609375 L 237.292969 327.054688 L 230.933594 328.96875 L 224.5625 330.335938 L 218.242188 331.160156 L 212.011719 331.4375 L 205.929688 331.171875 L 200.042969 330.371094 L 194.394531 329.054688 L 189.035156 327.242188 L 184.003906 324.960938 L 179.339844 322.234375 L 175.082031 319.097656 L 171.261719 315.585938 L 167.90625 311.746094 L 165.035156 307.613281 L 162.671875 303.238281 L 160.828125 298.664063 L 159.511719 293.945313 L 158.726563 289.125 L 158.46875 284.253906 L 158.734375 279.386719 L 159.507813 274.566406 L 160.769531 269.839844 L 162.503906 265.257813 L 164.675781 260.859375 L 167.070313 256.960938 L 169.792969 253.289063 L 172.8125 249.871094 L 176.089844 246.730469 L 179.59375 243.894531 L 183.28125 241.375 L 187.117188 239.191406 L 191.054688 237.351563 L 195.058594 235.863281 L 199.078125 234.730469 L 203.078125 233.957031 L 207.011719 233.53125 L 210.839844 233.449219 L 214.523438 233.695313 L 218.015625 234.261719 L 221.289063 235.121094 L 224.300781 236.257813 L 227.027344 237.644531 L 229.425781 239.253906 L 231.480469 241.050781 L 233.164063 243.011719 L 234.457031 245.09375 L 235.335938 247.261719 L 235.796875 249.484375 L 235.828125 251.714844 L 235.425781 253.917969 L 234.585938 256.058594 L 233.3125 258.09375 L 231.609375 259.984375 L 229.496094 261.691406 L 226.980469 263.1875 L 224.082031 264.433594 L 220.824219 265.394531 L 217.230469 266.042969 L 213.328125 266.351563 L 209.152344 266.300781 L 204.734375 265.859375 L 200.109375 265.019531 L 195.316406 263.761719 L 190.390625 262.078125 L 185.375 259.957031 L 180.3125 257.402344 L 175.242188 254.414063 L 170.207031 250.992188 L 165.246094 247.148438 L 160.398438 242.894531 L 155.707031 238.253906 L 151.210938 233.238281 L 146.941406 227.875 L 142.933594 222.191406 L 139.21875 216.214844 L 135.828125 209.984375 L 132.785156 203.527344 L 130.117188 196.886719 L 127.835938 190.101563 L 125.960938 183.210938 L 124.503906 176.253906 L 123.472656 169.28125 L 122.871094 162.328125 L 122.699219 155.441406 L 122.957031 148.664063 L 123.632813 142.039063 L 124.714844 135.605469 L 126.191406 129.402344 L 128.214844 122.980469 L 130.652344 116.921875 L 133.46875 111.265625 L 136.628906 106.050781 L 140.097656 101.308594 L 143.824219 97.070313 L 147.773438 93.359375 L 151.890625 90.191406 L 156.125 87.585938 L 160.4375 85.546875 L 164.765625 84.074219 L 169.070313 83.171875 L 173.292969 82.820313 L 177.394531 83.015625 L 181.320313 83.734375 L 185.03125 84.949219 L 188.484375 86.632813 L 191.644531 88.75 L 194.472656 91.265625 L 196.945313 94.136719 L 199.03125 97.320313 L 200.710938 100.761719 L 201.96875 104.417969 L 202.796875 108.238281 L 203.1875 112.164063 L 203.136719 116.144531 L 202.65625 120.128906 L 201.753906 124.058594 L 200.445313 127.890625 L 198.753906 131.566406 L 196.699219 135.042969 L 194.320313 138.277344 L 191.644531 141.222656 L 188.710938 143.84375 L 185.566406 146.109375 L 182.25 147.984375 L 178.8125 149.445313 L 175.304688 150.476563 L 171.773438 151.058594 L 168.273438 151.183594 L 164.859375 150.847656 L 161.574219 150.050781 L 158.480469 148.804688 L 155.621094 147.113281 L 153.046875 145.003906 L 150.800781 142.488281 L 148.929688 139.601563 L 147.46875 136.371094 L 146.453125 132.832031 L 145.921875 129.027344 L 145.890625 124.992188 L 146.390625 120.777344 L 147.433594 116.429688 L 149.03125 111.992188 L 151.1875 107.519531 L 153.910156 103.0625 L 157.183594 98.671875 L 161.007813 94.394531 L 165.359375 90.28125 L 170.21875 86.375 L 175.558594 82.730469 L 181.347656 79.378906 L 187.550781 76.367188 L 194.128906 73.726563 L 200.570313 71.625 L 207.257813 69.898438 L 214.160156 68.5625 L 221.222656 67.636719 L 228.414063 67.132813 L 235.683594 67.050781 L 242.984375 67.402344 L 250.277344 68.179688 L 257.511719 69.382813 L 264.644531 70.996094 L 271.636719 73.015625 L 278.4375 75.417969 L 285.011719 78.1875 L 291.324219 81.296875 L 297.332031 84.71875 L 303.007813 88.421875 L 308.320313 92.378906 L 313.242188 96.546875 L 317.75 100.894531 L 321.824219 105.382813 L 325.453125 109.96875 L 328.621094 114.609375 L 331.324219 119.265625 L 333.558594 123.894531 L 335.324219 128.453125 L 336.628906 132.90625 L 337.480469 137.203125 L 337.894531 141.316406 L 337.886719 145.199219 L 337.476563 148.824219 L 336.695313 152.15625 L 335.5625 155.164063 L 334.109375 157.824219 L 332.375 160.109375 L 330.390625 162.007813 L 328.195313 163.496094 L 325.828125 164.566406 L 323.324219 165.210938 L 320.730469 165.421875 L 318.085938 165.207031 L 315.429688 164.566406 L 312.808594 163.511719 L 310.253906 162.050781 L 307.8125 160.207031 L 305.515625 157.996094 L 303.402344 155.445313 L 301.503906 152.582031 L 299.851563 149.433594 L 298.472656 146.039063 L 297.390625 142.433594 L 296.625 138.652344 L 296.195313 134.738281 L 296.117188 130.734375 L 296.394531 126.683594 L 297.035156 122.628906 L 298.042969 118.613281 L 299.414063 114.679688 L 301.140625 110.875 L 303.214844 107.242188 L 305.621094 103.820313 L 308.34375 100.648438 L 311.355469 97.769531 L 314.636719 95.210938 L 318.15625 93.007813 L 321.808594 91.222656 L 325.632813 89.835938 L 329.589844 88.863281 L 333.648438 88.328125 L 337.773438 88.238281 L 341.921875 88.613281 L 346.058594 89.453125 L 350.144531 90.761719 L 354.140625 92.539063 L 358.011719 94.78125 L 361.714844 97.480469 L 365.214844 100.621094 L 368.480469 104.1875 L 371.472656 108.160156 L 374.167969 112.515625 L 376.527344 117.230469 L 378.53125 122.273438 L 380.15625 127.609375 L 381.378906 133.210938 L 382.1875 139.042969 L 382.5625 145.058594 L 382.496094 151.226563 L 381.984375 157.503906 L 381.023438 163.847656 L 379.617188 170.222656 L 377.765625 176.582031 L 375.484375 182.886719 L 372.78125 189.097656 L 369.675781 195.175781 L 366.183594 201.085938 L 362.335938 206.789063 L 358.152344 212.25 L 353.664063 217.445313 L 348.90625 222.339844 L 343.910156 226.914063 L 338.710938 231.140625 L 333.347656 235.003906 L 327.859375 238.488281 L 322.289063 241.582031 L 316.679688 244.273438 L 311.066406 246.5625 L 305.496094 248.449219 L 300.007813 249.933594 L 294.644531 251.027344 L 289.441406 251.734375 L 284.4375 252.074219 L 279.671875 252.0625 L 275.175781 251.71875 L 270.980469 251.070313 L 267.117188 250.144531 L 263.609375 248.964844 L 260.476563 247.5625 L 257.746094 245.976563 L 255.429688 244.242188 L 253.539063 242.386719 L 252.078125 240.457031 L 251.058594 238.484375 L 250.480469 236.507813 L 250.332031 234.5625 L 250.617188 232.695313 L 251.316406 230.929688 L 252.414063 229.308594 L 253.898438 227.863281 L 255.746094 226.625 L 258.128906 225.550781 L 260.871094 224.789063 L 263.933594 224.371094 L 267.273438 224.320313 L 270.847656 224.664063 L 274.601563 225.410156 L 278.492188 226.578125 L 282.460938 228.175781 L 286.464844 230.199219 L 290.441406 232.648438 L 294.347656 235.515625 L 298.125 238.785156 L 301.730469 242.4375 L 305.109375 246.453125 L 308.21875 250.796875 L 311.019531 255.441406 L 313.46875 260.351563 L 315.53125 265.484375 L 317.175781 270.800781 L 318.378906 276.246094 L 319.113281 281.78125 L 319.363281 287.351563 L 319.121094 292.910156 L 318.375 298.398438 L 317.125 303.773438 L 315.375 308.976563 L 313.132813 313.957031 L 310.414063 318.671875 L 307.238281 323.070313 L 303.628906 327.109375 L 299.617188 330.75 L 295.226563 333.945313 L 290.503906 336.671875 L 285.484375 338.894531 L 280.210938 340.589844 L 274.726563 341.734375 L 269.085938 342.316406 L 263.328125 342.324219 L 257.507813 341.757813 L 251.679688 340.609375 L 245.882813 338.890625 L 240.175781 336.609375 L 234.605469 333.789063 L 229.210938 330.445313 L 224.046875 326.605469 L 219.148438 322.304688 L 214.554688 317.578125 L 210.296875 312.460938 L 206.414063 306.996094 L 202.929688 301.238281 L 199.863281 295.226563 L 197.230469 289.015625 L 195.046875 282.660156 L 193.320313 276.210938 L 192.050781 269.722656 L 191.234375 263.25 L 190.863281 256.84375 L 190.925781 250.558594 L 191.398438 244.445313 L 192.265625 238.550781 L 193.492188 232.921875 L 195.050781 227.597656 L 196.902344 222.621094 L 199.011719 218.023438 L 201.175781 214.105469 L 203.488281 210.5625 L 205.910156 207.421875 L 208.410156 204.6875 L 210.945313 202.371094 L 213.472656 200.484375 L 215.953125 199.023438 L 218.347656 197.984375 L 220.621094 197.363281 L 222.726563 197.152344 L 224.632813 197.332031 L 226.304688 197.886719 L 227.710938 198.796875 L 228.820313 200.035156 L 229.601563 201.574219 L 230.035156 203.382813 L 230.097656 205.429688 L 229.773438 207.679688 L 229.046875 210.09375 L 227.910156 212.632813 L 226.351563 215.261719 L 224.375 217.9375 L 221.976563 220.621094 L 219.167969 223.269531 L 215.957031 225.84375 L 212.359375 228.308594 L 208.386719 230.621094 L 204.066406 232.746094 L 199.421875 234.648438 L 194.480469 236.296875 L 189.273438 237.664063 L 183.832031 238.722656 L 178.195313 239.445313 L 172.40625 239.816406 L 166.496094 239.8125 L 160.515625 239.429688 L 154.5 238.652344 L 148.496094 237.476563 L 142.550781 235.898438 L 136.703125 233.921875 L 130.996094 231.554688 L 125.476563 228.808594 L 120.179688 225.691406 L 115.152344 222.226563 L 110.425781 218.429688 L 106.035156 214.332031 L 102.019531 209.957031 L 98.398438 205.332031 L 95.210938 200.492188 L 92.46875 195.476563 L 90.195313 190.316406 L 88.40625 185.050781 L 87.117188 179.722656 L 86.328125 174.367188 L 86.046875 169.027344 L 86.273438 163.742188 L 87.003906 158.554688 L 88.226563 153.503906 L 89.929688 148.625 L 92.09375 143.960938 L 94.707031 139.539063 L 97.734375 135.394531 L 101.160156 131.558594 L 104.945313 128.058594 L 109.558594 124.582031 L 114.535156 121.582031 L 119.824219 119.082031 L 125.363281 117.101563 L 131.101563 115.65625 L 136.976563 114.742188 L 142.933594 114.371094 L 148.914063 114.527344 L 154.855469 115.199219 L 160.703125 116.375 L 166.398438 118.019531 L 171.898438 120.109375 L 177.144531 122.609375 L 182.097656 125.476563 L 186.714844 128.664063 L 190.957031 132.128906 L 194.796875 135.820313 L 198.210938 139.675781 L 201.171875 143.644531 L 203.671875 147.667969 L 205.703125 151.6875 L 207.257813 155.644531 L 208.347656 159.480469 L 208.980469 163.136719 L 209.175781 166.558594 L 208.949219 169.695313 L 208.332031 172.496094 L 207.359375 174.914063 L 206.0625 176.914063 L 204.488281 178.449219 L 202.679688 179.496094 L 200.6875 180.027344 L 198.554688 180.023438 L 196.34375 179.464844 L 194.101563 178.347656 L 191.886719 176.675781 L 189.75 174.445313 L 187.75 171.667969 L 185.933594 168.367188 L 184.351563 164.566406 L 183.054688 160.289063 L 182.085938 155.574219 L 181.484375 150.457031 L 181.285156 144.988281 L 181.523438 139.214844 L 182.226563 133.183594 L 183.40625 126.957031 L 185.085938 120.585938 L 187.273438 114.132813 L 189.972656 107.65625 L 193.175781 101.214844 L 196.875 94.875 L 201.058594 88.691406 L 205.699219 82.722656 L 210.777344 77.019531 L 216.253906 71.644531 L 222.09375 66.636719 L 228.257813 62.042969 L 234.695313 57.90625 L 241.359375 54.261719 L 248.199219 51.136719 L 255.152344 48.558594 L 262.167969 46.542969 L 269.183594 45.101563 " transform="matrix(1,0,0,1,-66,-5)"/>
</g>
</svg>
